<svg width="14" height="17" viewBox="0 0 14 17" fill="none" xmlns="http://www.w3.org/2000/svg">
<path fill-rule="evenodd" clip-rule="evenodd" d="M13.0384 13.3013H4.38096C4.25489 13.3018 4.12996 13.2757 4.01333 13.2245C3.8967 13.1733 3.79065 13.098 3.70124 13.0029C3.61183 12.9078 3.54082 12.7948 3.49226 12.6704C3.4437 12.546 3.41856 12.4125 3.41826 12.2776V1.02365C3.41856 0.888801 3.4437 0.755338 3.49226 0.630892C3.54082 0.506445 3.61183 0.393457 3.70124 0.298387C3.79065 0.203317 3.8967 0.12803 4.01333 0.0768319C4.12996 0.0256334 4.25489 -0.000472643 4.38096 6.48504e-06H13.0384C13.1644 -0.000472644 13.2891 0.025602 13.4056 0.0767395C13.5221 0.127877 13.6281 0.203074 13.7174 0.298031C13.8067 0.392989 13.8776 0.505843 13.9261 0.630142C13.9746 0.754441 13.9997 0.887746 14 1.02243V12.2764C13.9999 12.4113 13.9749 12.5448 13.9264 12.6693C13.878 12.7938 13.8071 12.9069 13.7178 13.002C13.6285 13.0972 13.5226 13.1726 13.406 13.224C13.2894 13.2753 13.1645 13.3016 13.0384 13.3013ZM9.62131 15.9727C9.62146 16.1078 9.59668 16.2415 9.5484 16.3663C9.50012 16.4911 9.42928 16.6045 9.33994 16.6999C9.25061 16.7953 9.14454 16.871 9.02781 16.9225C8.91109 16.974 8.78601 17.0003 8.65975 17H0.961564C0.706621 16.999 0.462394 16.8902 0.282228 16.6973C0.102062 16.5043 0.000598283 16.243 0 15.9703V5.746C0 5.47226 0.101666 5.20973 0.282633 5.01617C0.4636 4.8226 0.709044 4.71386 0.964969 4.71386C1.2209 4.71386 1.46634 4.8226 1.64731 5.01617C1.82827 5.20973 1.92994 5.47226 1.92994 5.746V14.4706C1.92994 14.5995 1.97778 14.723 2.06294 14.8141C2.1481 14.9052 2.26361 14.9564 2.38404 14.9564H8.65975C8.91378 14.9557 9.15767 15.0629 9.33794 15.2543C9.5182 15.4458 9.62011 15.7059 9.62131 15.9776V15.9727ZM7.26679 3.06972H10.1572C10.2855 3.06499 10.4135 3.08795 10.5334 3.13723C10.6533 3.18651 10.7627 3.26111 10.8551 3.35657C10.9475 3.45204 11.0209 3.56642 11.0711 3.69289C11.1213 3.81937 11.1471 3.95536 11.1471 4.09275C11.1471 4.23015 11.1213 4.36614 11.0711 4.49261C11.0209 4.61909 10.9475 4.73347 10.8551 4.82894C10.7627 4.9244 10.6533 4.999 10.5334 5.04828C10.4135 5.09756 10.2855 5.12052 10.1572 5.11579H7.26679C7.13841 5.12052 7.01046 5.09756 6.89055 5.04828C6.77065 4.999 6.66125 4.9244 6.56887 4.82894C6.47649 4.73347 6.40302 4.61909 6.35284 4.49261C6.30267 4.36614 6.27681 4.23015 6.27681 4.09275C6.27681 3.95536 6.30267 3.81937 6.35284 3.69289C6.40302 3.56642 6.47649 3.45204 6.56887 3.35657C6.66125 3.26111 6.77065 3.18651 6.89055 3.13723C7.01046 3.08795 7.13841 3.06499 7.26679 3.06972ZM7.26679 6.90443H10.1572C10.2855 6.8997 10.4135 6.92266 10.5334 6.97194C10.6533 7.02122 10.7627 7.09582 10.8551 7.19128C10.9475 7.28675 11.0209 7.40113 11.0711 7.52761C11.1213 7.65408 11.1471 7.79007 11.1471 7.92747C11.1471 8.06486 11.1213 8.20085 11.0711 8.32733C11.0209 8.4538 10.9475 8.56818 10.8551 8.66365C10.7627 8.75911 10.6533 8.83371 10.5334 8.88299C10.4135 8.93227 10.2855 8.95523 10.1572 8.9505H7.26679C7.13841 8.95523 7.01046 8.93227 6.89055 8.88299C6.77065 8.83371 6.66125 8.75911 6.56887 8.66365C6.47649 8.56818 6.40302 8.4538 6.35284 8.32733C6.30267 8.20085 6.27681 8.06486 6.27681 7.92747C6.27681 7.79007 6.30267 7.65408 6.35284 7.52761C6.40302 7.40113 6.47649 7.28675 6.56887 7.19128C6.66125 7.09582 6.77065 7.02122 6.89055 6.97194C7.01046 6.92266 7.13841 6.8997 7.26679 6.90443Z" fill="url(#paint0_linear_81_38)"/>
<defs>
<linearGradient id="paint0_linear_81_38" x1="0.042201" y1="8.48955" x2="14.0252" y2="8.48955" gradientUnits="userSpaceOnUse">
<stop stop-color="#41BFB5"/>
<stop offset="0.04" stop-color="#41BFB5"/>
<stop offset="0.4" stop-color="#2DADA1"/>
<stop offset="1" stop-color="#058A7A"/>
</linearGradient>
</defs>
</svg>
