<?xml version="1.0" encoding="UTF-8"?>
<svg id="Layer_1" data-name="Layer 1" xmlns="http://www.w3.org/2000/svg" xmlns:xlink="http://www.w3.org/1999/xlink" version="1.1" viewBox="0 0 50.2 50.7">
  <defs>
    <style>
      .cls-1 {
        clip-path: url(#clippath);
      }

      .cls-2, .cls-3, .cls-4, .cls-5, .cls-6, .cls-7 {
        stroke-width: 0px;
      }

      .cls-2, .cls-8, .cls-9 {
        fill: none;
      }

      .cls-10 {
        mask: url(#mask);
      }

      .cls-3 {
        fill: url(#linear-gradient);
      }

      .cls-11 {
        clip-path: url(#clippath-1);
      }

      .cls-12 {
        clip-path: url(#clippath-4);
      }

      .cls-13 {
        clip-path: url(#clippath-3);
      }

      .cls-14 {
        clip-path: url(#clippath-2);
      }

      .cls-15 {
        clip-path: url(#clippath-5);
      }

      .cls-8 {
        stroke: #f47938;
        stroke-miterlimit: 10;
      }

      .cls-16 {
        opacity: .8;
      }

      .cls-4 {
        fill: url(#linear-gradient-4);
      }

      .cls-5 {
        fill: url(#linear-gradient-2);
      }

      .cls-6 {
        fill: url(#linear-gradient-3);
      }

      .cls-9 {
        stroke: #5b4c3c;
        stroke-linecap: round;
        stroke-linejoin: round;
        stroke-width: .2px;
      }

      .cls-7 {
        fill: #fff;
      }

      .cls-17 {
        mask: url(#mask-1);
      }
    </style>
    <clipPath id="clippath">
      <rect class="cls-2" x="-8.1" y="-7.1" width="66.4" height="57.4"/>
    </clipPath>
    <linearGradient id="linear-gradient" x1="-284.8" y1="-229.4" x2="-283.8" y2="-229.4" gradientTransform="translate(-19318.9 15625.2) rotate(180) scale(68 -68)" gradientUnits="userSpaceOnUse">
      <stop offset="0" stop-color="#fff"/>
      <stop offset="1" stop-color="#000"/>
    </linearGradient>
    <mask id="mask" x="-36.1" y="-39.6" width="122.5" height="122.3" maskUnits="userSpaceOnUse">
      <rect class="cls-3" x="-18.7" y="-21.6" width="87.7" height="86.4" transform="translate(-8 20.6) rotate(-39)"/>
    </mask>
    <clipPath id="clippath-1">
      <rect class="cls-2" x="-8.1" y="-7.1" width="66.4" height="57.4"/>
    </clipPath>
    <clipPath id="clippath-2">
      <rect class="cls-2" x="-8.6" y="-7.6" width="67.4" height="58.4"/>
    </clipPath>
    <linearGradient id="linear-gradient-2" x1="-301.3" y1="-243.3" x2="-300.3" y2="-243.3" gradientTransform="translate(20768.3 -16757.9) scale(69 -69)" xlink:href="#linear-gradient"/>
    <mask id="mask-1" x="-36.3" y="-39.7" width="122.9" height="122.4" maskUnits="userSpaceOnUse">
      <rect class="cls-5" x="-19.3" y="-21.9" width="88.8" height="86.8" transform="translate(-7.9 18.9) rotate(-36)"/>
    </mask>
    <clipPath id="clippath-3">
      <rect class="cls-2" x="-8.6" y="-7.6" width="67.4" height="58.4"/>
    </clipPath>
    <clipPath id="clippath-4">
      <path class="cls-2" d="M27.2,18.4c0,.7-.4,1.3-1.1,1.5l-.6.2c-.2,0-.3.3-.3.5,0,.2.2.4.4.4.3,0,.7,0,1.1,0h.6c.7,0,1.4.3,1.9.8l1.9,2c0,0,.1,0,.2,0,0,0,.1,0,.2-.1l1.2-3.3c-1.3-1.9-3.3-3.2-5.5-3.5v1.5Z"/>
    </clipPath>
    <linearGradient id="linear-gradient-3" x1="-314.4" y1="-333.8" x2="-313.4" y2="-333.8" gradientTransform="translate(2351.6 -2450) scale(7.4 -7.4)" gradientUnits="userSpaceOnUse">
      <stop offset="0" stop-color="#f36e38"/>
      <stop offset=".1" stop-color="#f36e38"/>
      <stop offset=".4" stop-color="#f15e38"/>
      <stop offset=".9" stop-color="#ef3c38"/>
      <stop offset="1" stop-color="#ef3c38"/>
    </linearGradient>
    <clipPath id="clippath-5">
      <path class="cls-2" d="M22.3,26.7c-.6-.5-.7-1.3-.3-1.9l.2-.3.4-1.5c0-.3.3-.6.7-.7.3-.1.7,0,1,0l.8.5.9-.2c.5-.1,1.1,0,1.4.4l2,2.3c.5.5.4,1.3,0,1.8l-.6.7-.2,1.1c0,.2-.2.3-.4.3s0,0,0,0c-.2,0-.3-.2-.3-.4l.2-1.2c0,0,0-.1,0-.2l.7-.7c.2-.2.2-.6,0-.8l-2-2.3c-.2-.2-.4-.3-.7-.2l-1,.3c0,0-.2,0-.3,0l-1-.6c0,0-.2,0-.3,0-.1,0-.2.1-.2.2l-.4,1.6s0,0,0,.1l-.2.3c-.2.3-.1.7.2.9.2.1.3.2.5.1l1.2-.2c.3,0,.5,0,.7.2.2.2.3.4.3.7v1.9c0,.2,0,.4-.3.4-.2,0-.4-.1-.4-.3v-1.9c0,0-.1-.1-.1-.1,0,0,0,0-.1,0l-1.2.2c0,0-.1,0-.2,0-.3,0-.6-.1-.9-.3M17.9,24.6c0,1.4.4,2.8,1.1,4,1.2-.7,2.7-.7,3.9,0l1,.6c.2.1.5.2.7.2l3.8.4c.6,0,1.1.4,1.4.8l3.1-2.5c.6-1.1.9-2.3.9-3.6s-.3-2.5-.8-3.6l-1,2.7c-.1.3-.4.5-.7.6,0,0-.1,0-.2,0-.3,0-.5-.1-.7-.3l-1.9-2c-.4-.4-.8-.6-1.3-.6h-.6c-.4,0-.8,0-1.1,0-.6,0-1.1-.4-1.1-1,0-.6.3-1.1.8-1.3l.6-.2c.3,0,.6-.4.5-.8v-1.7c-.3,0-.4,0-.5,0-4.4,0-8,3.6-8,8"/>
    </clipPath>
    <linearGradient id="linear-gradient-4" x1="-303.1" y1="-281.2" x2="-302.1" y2="-281.2" gradientTransform="translate(4855.5 -4465) scale(16 -16)" xlink:href="#linear-gradient-3"/>
  </defs>
  <g class="cls-16">
    <g class="cls-1">
      <g class="cls-10">
        <g class="cls-11">
          <path class="cls-7" d="M25.1,49.2c13.4,0,24.2-10.8,24.2-24.2S38.5.9,25.1.9.9,11.7.9,25s10.8,24.2,24.2,24.2"/>
        </g>
      </g>
    </g>
  </g>
  <g class="cls-16">
    <g class="cls-14">
      <g class="cls-17">
        <g class="cls-13">
          <path class="cls-8" d="M25.1,49.2c13.4,0,24.2-10.8,24.2-24.2S38.5.9,25.1.9.9,11.7.9,25s10.8,24.2,24.2,24.2Z"/>
        </g>
      </g>
    </g>
  </g>
  <g class="cls-12">
    <rect class="cls-6" x="25.1" y="16.8" width="7.4" height="6.9"/>
  </g>
  <path class="cls-9" d="M21.9,35.8h4.1c0,0,.1,0,.1,0,1.9,0,3.7-.7,5.1-2l3.8-3.6c.2-.2.3-.4.3-.7,0-.3,0-.6-.3-.8-.4-.4-1-.4-1.4,0l-.2.2s0,0,0,0l-3.3,2.6c0,.2,0,.4,0,.6,0,.5-.3,1-.7,1.3-.4.3-.8.4-1.2.4s-.1,0-.2,0l-4.1-.4c-.2,0-.3-.2-.3-.4,0-.2.2-.3.4-.3l4.1.4c.3,0,.6,0,.9-.3.2-.2.4-.5.4-.8,0-.2,0-.4,0-.6,0,0,0,0,0,0-.2-.4-.6-.7-1-.7l-3.8-.4c-.4,0-.7-.1-1-.3l-1-.6c-1.1-.6-2.4-.5-3.4.2,0,0,0,0,0,0,0,0,0,0,0,0,0,0-.1,0-.2.1l-1.5,1.3,4.5,4.8ZM16.6,31.1c-.1-.1-.4-.2-.5,0l-2.3,2.1,5.5,6,2.4-2.1c0,0,.1-.2.1-.2,0,0,0-.2,0-.3l-.2-.2h0c0,0-4.8-5.2-4.8-5.2h0Z"/>
  <g class="cls-15">
    <rect class="cls-4" x="17.9" y="16.6" width="16" height="14"/>
  </g>
</svg>