<?xml version="1.0" encoding="UTF-8"?>
<svg id="Layer_1" data-name="Layer 1" xmlns="http://www.w3.org/2000/svg" xmlns:xlink="http://www.w3.org/1999/xlink" version="1.1" viewBox="0 0 50.2 50.7">
  <defs>
    <style>
      .cls-1 {
        clip-path: url(#clippath);
      }

      .cls-2, .cls-3, .cls-4, .cls-5, .cls-6, .cls-7, .cls-8 {
        stroke-width: 0px;
      }

      .cls-2, .cls-9, .cls-10 {
        fill: none;
      }

      .cls-11 {
        mask: url(#mask);
      }

      .cls-3 {
        fill: url(#linear-gradient);
      }

      .cls-12 {
        clip-path: url(#clippath-1);
      }

      .cls-13 {
        clip-path: url(#clippath-4);
      }

      .cls-14 {
        clip-path: url(#clippath-3);
      }

      .cls-15 {
        clip-path: url(#clippath-2);
      }

      .cls-16 {
        clip-path: url(#clippath-6);
      }

      .cls-17 {
        clip-path: url(#clippath-5);
      }

      .cls-9 {
        stroke: #f47938;
      }

      .cls-9, .cls-10 {
        stroke-miterlimit: 10;
      }

      .cls-18 {
        opacity: .8;
      }

      .cls-4 {
        fill: url(#linear-gradient-4);
      }

      .cls-5 {
        fill: url(#linear-gradient-2);
      }

      .cls-6 {
        fill: url(#linear-gradient-3);
      }

      .cls-7 {
        fill: url(#linear-gradient-5);
      }

      .cls-8 {
        fill: #fff;
      }

      .cls-19 {
        mask: url(#mask-1);
      }

      .cls-10 {
        stroke: #5b4c3c;
        stroke-width: .2px;
      }
    </style>
    <clipPath id="clippath">
      <rect class="cls-2" x="-8.1" y="-6.9" width="66.4" height="57.4"/>
    </clipPath>
    <linearGradient id="linear-gradient" x1="-287.1" y1="-227.5" x2="-286.1" y2="-227.5" gradientTransform="translate(-19475.8 15498.1) rotate(180) scale(68 -68)" gradientUnits="userSpaceOnUse">
      <stop offset="0" stop-color="#fff"/>
      <stop offset="1" stop-color="#000"/>
    </linearGradient>
    <mask id="mask" x="-36.1" y="-39.4" width="122.5" height="122.3" maskUnits="userSpaceOnUse">
      <rect class="cls-3" x="-18.7" y="-21.4" width="87.7" height="86.4" transform="translate(-8.1 20.7) rotate(-39)"/>
    </mask>
    <clipPath id="clippath-1">
      <rect class="cls-2" x="-8.1" y="-6.9" width="66.4" height="57.4"/>
    </clipPath>
    <clipPath id="clippath-2">
      <rect class="cls-2" x="-8.6" y="-7.4" width="67.4" height="58.4"/>
    </clipPath>
    <linearGradient id="linear-gradient-2" x1="-299" y1="-245.1" x2="-298" y2="-245.1" gradientTransform="translate(20605 -16876.6) scale(69 -69)" xlink:href="#linear-gradient"/>
    <mask id="mask-1" x="-36.3" y="-39.4" width="122.9" height="122.4" maskUnits="userSpaceOnUse">
      <rect class="cls-5" x="-19.3" y="-21.6" width="88.8" height="86.8" transform="translate(-8 18.9) rotate(-36)"/>
    </mask>
    <clipPath id="clippath-3">
      <rect class="cls-2" x="-8.6" y="-7.4" width="67.4" height="58.4"/>
    </clipPath>
    <clipPath id="clippath-4">
      <path class="cls-2" d="M19.2,18.2c0,1,.8,1.7,1.7,1.7s1.7-.8,1.7-1.7-.8-1.7-1.7-1.7-1.7.8-1.7,1.7"/>
    </clipPath>
    <linearGradient id="linear-gradient-3" x1="-280" y1="-445.4" x2="-279" y2="-445.4" gradientTransform="translate(989 -1524.3) scale(3.5 -3.5)" gradientUnits="userSpaceOnUse">
      <stop offset="0" stop-color="#f36e38"/>
      <stop offset=".1" stop-color="#f36e38"/>
      <stop offset=".4" stop-color="#f15e38"/>
      <stop offset=".9" stop-color="#ef3c38"/>
      <stop offset="1" stop-color="#ef3c38"/>
    </linearGradient>
    <clipPath id="clippath-5">
      <path class="cls-2" d="M26.8,18.2c0,1,.8,1.7,1.7,1.7s1.7-.8,1.7-1.7-.8-1.7-1.7-1.7-1.7.8-1.7,1.7"/>
    </clipPath>
    <linearGradient id="linear-gradient-4" x1="-280" x2="-279" gradientTransform="translate(996.6 -1524.3) scale(3.5 -3.5)" xlink:href="#linear-gradient-3"/>
    <clipPath id="clippath-6">
      <path class="cls-2" d="M23,15.3c0,1,.8,1.7,1.7,1.7s1.7-.8,1.7-1.7-.8-1.7-1.7-1.7-1.7.8-1.7,1.7"/>
    </clipPath>
    <linearGradient id="linear-gradient-5" x1="-280" y1="-445.4" x2="-279" y2="-445.4" gradientTransform="translate(992.8 -1527.2) scale(3.5 -3.5)" xlink:href="#linear-gradient-3"/>
  </defs>
  <g class="cls-18">
    <g class="cls-1">
      <g class="cls-11">
        <g class="cls-12">
          <path class="cls-8" d="M25.1,49.5c13.4,0,24.2-10.8,24.2-24.2S38.5,1.1,25.1,1.1.9,11.9.9,25.3s10.8,24.2,24.2,24.2"/>
        </g>
      </g>
    </g>
  </g>
  <g class="cls-18">
    <g class="cls-15">
      <g class="cls-19">
        <g class="cls-14">
          <path class="cls-9" d="M25.1,49.5c13.4,0,24.2-10.8,24.2-24.2S38.5,1.1,25.1,1.1.9,11.9.9,25.3s10.8,24.2,24.2,24.2Z"/>
        </g>
      </g>
    </g>
  </g>
  <path class="cls-10" d="M34.5,24.4c-.1-.6-.6-1-1.2-1.1-.1,0-.2,0-.3,0l-.5.4c-.2.2-.5.2-.8,0l-.4-.4c0,0-.2,0-.3,0-.6,0-1,.5-1.2,1.1l-1.1,4.6c0,.3.2.6.5.7,0,0,0,0,0,0,0,0,.2,0,.2,0l-.5,2.1c0,.2,0,.4.3.4,0,0,0,0,0,0h1.5l.3,3.3c0,.3.3.5.6.5h.8c.3,0,.5-.2.6-.5l.3-3.3h1.5c.2,0,.4-.2.4-.4,0,0,0,0,0,0l-.5-2.1c0,0,.1,0,.2,0,.3,0,.6-.3.5-.7,0,0,0,0,0,0l-1.1-4.6Z"/>
  <path class="cls-10" d="M33.9,21.2c0-.9-.8-1.7-1.7-1.7s-1.7.8-1.7,1.7.8,1.7,1.7,1.7,1.7-.8,1.7-1.7Z"/>
  <path class="cls-10" d="M19.5,24.4c-.1-.6-.6-1-1.2-1.1-.1,0-.2,0-.3,0l-.4.4c-.2.2-.5.2-.8,0l-.4-.4c0,0-.2,0-.3,0-.6,0-1,.5-1.2,1.1l-1.1,4.6c0,.3.2.6.5.7,0,0,0,0,0,0,0,0,.2,0,.2,0l-.5,2.1c0,.2,0,.4.3.4,0,0,0,0,0,0h1.5l.3,3.3c0,.3.3.5.6.5h.8c.3,0,.5-.2.6-.5l.3-3.3h1.5c.2,0,.4-.2.4-.4,0,0,0,0,0,0l-.5-2.1c0,0,.1,0,.2,0,.3,0,.6-.3.5-.7,0,0,0,0,0,0l-1.1-4.6Z"/>
  <path class="cls-10" d="M17.2,22.9c-.9,0-1.7-.8-1.7-1.7s.8-1.7,1.7-1.7,1.7.8,1.7,1.7-.8,1.7-1.7,1.7Z"/>
  <g class="cls-13">
    <rect class="cls-6" x="19.2" y="16.5" width="3.5" height="3.5"/>
  </g>
  <g class="cls-17">
    <rect class="cls-4" x="26.8" y="16.5" width="3.5" height="3.5"/>
  </g>
  <g class="cls-16">
    <rect class="cls-7" x="23" y="13.6" width="3.5" height="3.5"/>
  </g>
  <path class="cls-10" d="M26.3,23.3h-.6c0,0-.1,0-.2,0l-.4.4c-.2.2-.5.2-.7,0l-.4-.4c0,0-.1,0-.2,0h-.6c-.8,0-1.4.6-1.4,1.4s0,.1,0,.2l.4,3.2c0,.5.4.9.8,1l.7,6.5c0,.3.3.5.5.5h1.1c.3,0,.5-.2.5-.5l.7-6.5c.4-.2.8-.6.8-1l.4-3.2c0-.8-.5-1.5-1.3-1.6,0,0-.1,0-.2,0h0ZM24.7,22.9c.9,0,1.7-.8,1.7-1.7s-.8-1.7-1.7-1.7-1.7.8-1.7,1.7.8,1.7,1.7,1.7h0Z"/>
</svg>