<?xml version="1.0" encoding="UTF-8"?>
<svg id="Layer_1" data-name="Layer 1" xmlns="http://www.w3.org/2000/svg" xmlns:xlink="http://www.w3.org/1999/xlink" version="1.1" viewBox="0 0 50.2 50.7">
  <defs>
    <style>
      .cls-1 {
        clip-path: url(#clippath);
      }

      .cls-2, .cls-3, .cls-4, .cls-5, .cls-6, .cls-7, .cls-8 {
        stroke-width: 0px;
      }

      .cls-2, .cls-9, .cls-10 {
        fill: none;
      }

      .cls-11 {
        mask: url(#mask);
      }

      .cls-3 {
        fill: url(#linear-gradient);
      }

      .cls-12 {
        clip-path: url(#clippath-1);
      }

      .cls-13 {
        clip-path: url(#clippath-4);
      }

      .cls-14 {
        clip-path: url(#clippath-3);
      }

      .cls-15 {
        clip-path: url(#clippath-2);
      }

      .cls-16 {
        clip-path: url(#clippath-6);
      }

      .cls-17 {
        clip-path: url(#clippath-5);
      }

      .cls-9 {
        stroke: #f47938;
        stroke-miterlimit: 10;
      }

      .cls-18 {
        opacity: .8;
      }

      .cls-4 {
        fill: url(#linear-gradient-4);
      }

      .cls-5 {
        fill: url(#linear-gradient-2);
      }

      .cls-6 {
        fill: url(#linear-gradient-3);
      }

      .cls-7 {
        fill: url(#linear-gradient-5);
      }

      .cls-10 {
        stroke: #5b4c3c;
        stroke-linecap: round;
        stroke-linejoin: round;
        stroke-width: .2px;
      }

      .cls-8 {
        fill: #fff;
      }

      .cls-19 {
        mask: url(#mask-1);
      }
    </style>
    <clipPath id="clippath">
      <rect class="cls-2" x="-8.1" y="-6.5" width="66.4" height="57.4"/>
    </clipPath>
    <linearGradient id="linear-gradient" x1="-286" y1="-228.4" x2="-285" y2="-228.4" gradientTransform="translate(-19397 15561.8) rotate(180) scale(68 -68)" gradientUnits="userSpaceOnUse">
      <stop offset="0" stop-color="#fff"/>
      <stop offset="1" stop-color="#000"/>
    </linearGradient>
    <mask id="mask" x="-36.1" y="-38.9" width="122.5" height="122.3" maskUnits="userSpaceOnUse">
      <rect class="cls-3" x="-18.7" y="-21" width="87.7" height="86.4" transform="translate(-8.4 20.8) rotate(-39)"/>
    </mask>
    <clipPath id="clippath-1">
      <rect class="cls-2" x="-8.1" y="-6.5" width="66.4" height="57.4"/>
    </clipPath>
    <clipPath id="clippath-2">
      <rect class="cls-2" x="-8.6" y="-7" width="67.4" height="58.4"/>
    </clipPath>
    <linearGradient id="linear-gradient-2" x1="-300.2" y1="-244.2" x2="-299.2" y2="-244.2" gradientTransform="translate(20687 -16817.1) scale(69 -69)" xlink:href="#linear-gradient"/>
    <mask id="mask-1" x="-36.3" y="-39" width="122.9" height="122.4" maskUnits="userSpaceOnUse">
      <rect class="cls-5" x="-19.3" y="-21.2" width="88.8" height="86.8" transform="translate(-8.2 19) rotate(-36)"/>
    </mask>
    <clipPath id="clippath-3">
      <rect class="cls-2" x="-8.6" y="-7" width="67.4" height="58.4"/>
    </clipPath>
    <clipPath id="clippath-4">
      <path class="cls-2" d="M21.5,19.9l-3.5,6c.4.3.7.7,1.1,1.1h0c0-.1.1-.2.2-.3l1.9-2.4c.3-.4.7-.6,1.2-.7,1-.1,1.9.6,2,1.5.5,0,1,0,1.4.4.6.5.8,1.2.6,1.9.8.1,1.4.8,1.5,1.6.5,0,.9.1,1.3.4.6.4.8,1.2.6,1.9l1.4.8c.4,0,.7-.2.9-.6.2-.3.2-.6.1-.9l-4.5-2.6c-.1,0-.2-.2,0-.4,0-.1.2-.2.4,0l4.7,2.8c.4,0,.7-.2.9-.6.2-.3.2-.6.1-1l-4.5-2.6c-.1,0-.1-.2,0-.3,0-.1.2-.2.4-.1l5,2.9c.4,0,.7-.2.8-.6.2-.3.2-.8,0-1.1h-.5c0,.1-6.1-3.3-6.1-3.3l-.6,1.1c-.5.8-1.8,1.3-2.6.7-.8-.6-1.1-1.7-.6-2.6l.9-1.6.2-.3c-1.2-.6-3-.5-4.4-.9h0Z"/>
    </clipPath>
    <linearGradient id="linear-gradient-3" x1="-296.5" y1="-277.7" x2="-295.5" y2="-277.7" gradientTransform="translate(5165.2 -4794.8) scale(17.4 -17.4)" gradientUnits="userSpaceOnUse">
      <stop offset="0" stop-color="#f36e38"/>
      <stop offset=".1" stop-color="#f36e38"/>
      <stop offset=".4" stop-color="#f15e38"/>
      <stop offset=".9" stop-color="#ef3c38"/>
      <stop offset="1" stop-color="#ef3c38"/>
    </linearGradient>
    <clipPath id="clippath-5">
      <path class="cls-2" d="M17.5,17.7l-3.5,6.1c-.2.4,0,.8.3,1l2.2,1.2c.4.2.8,0,1-.3l3.5-6.1c.2-.4,0-.8-.3-1,0,0,0,0,0,0l-2.2-1.2h0c-.1,0-.2-.1-.4-.1-.3,0-.5.1-.7.4"/>
    </clipPath>
    <linearGradient id="linear-gradient-4" x1="-301" y1="-336.7" x2="-300" y2="-336.7" gradientTransform="translate(2177.2 -2398.2) scale(7.2 -7.2)" xlink:href="#linear-gradient-3"/>
    <clipPath id="clippath-6">
      <path class="cls-2" d="M29.5,31.9l-1.3,1.6.8.5c.6.3,1.3.1,1.6-.4,0,0,0,0,0,0,.2-.3.2-.6.1-.9-.2,0-1.2-.7-1.3-.7h0"/>
    </clipPath>
    <linearGradient id="linear-gradient-5" x1="-314.7" y1="-518.6" x2="-313.7" y2="-518.6" gradientTransform="translate(837 -1299.6) scale(2.6 -2.6)" xlink:href="#linear-gradient-3"/>
  </defs>
  <g class="cls-18">
    <g class="cls-1">
      <g class="cls-11">
        <g class="cls-12">
          <path class="cls-8" d="M25.1,49.9c13.4,0,24.2-10.8,24.2-24.2S38.5,1.5,25.1,1.5.9,12.3.9,25.7s10.8,24.2,24.2,24.2"/>
        </g>
      </g>
    </g>
  </g>
  <g class="cls-18">
    <g class="cls-15">
      <g class="cls-19">
        <g class="cls-14">
          <path class="cls-9" d="M25.1,49.9c13.4,0,24.2-10.8,24.2-24.2S38.5,1.5,25.1,1.5.9,12.3.9,25.7s10.8,24.2,24.2,24.2Z"/>
        </g>
      </g>
    </g>
  </g>
  <g class="cls-13">
    <rect class="cls-6" x="18" y="19.9" width="17.4" height="12.3"/>
  </g>
  <g class="cls-17">
    <rect class="cls-4" x="13.8" y="17.3" width="7.4" height="8.9"/>
  </g>
  <path class="cls-10" d="M35.5,26.1s0,0,0-.1l-3.5-6c0,0,0-.1,0-.2-1.5.3-3.1-.2-4.4.3-.3,0-.5.2-.7.5l-.6.8-.9,1.6c-.3.6-.1,1.4.5,1.8.5.4,1.5,0,1.8-.5l.9-1.5,6.3,3.5c.3,0,.5-.1.7-.3h0ZM34.8,17.6l-2.1,1.2c-.4.2-.5.7-.3,1,0,0,0,0,0,0l3.4,5.9c.2.4.7.5,1,.3l2.1-1.2c.4-.2.5-.7.3-1l-3.4-5.9c-.2-.4-.7-.5-1-.3ZM27.7,29.6l-2.1,2.6c0,.4.2.8.5,1,.5.4,1.3.3,1.7-.2l1.1-1.4c.4-.5.3-1.3-.2-1.7-.3-.2-.7-.3-1.1-.3h0ZM25.9,28l-2.6,3c0,.4.2.8.5,1,.3.2.7.3,1.1.2l2.4-3c0-.4-.1-.8-.5-1-.3-.2-.6-.3-.9-.3h0ZM24.4,25.7l-3,3.6c0,.4.2.8.5,1,.3.2.7.3,1,.2l3-3.4c.1-.5,0-.9-.4-1.2-.3-.2-.7-.3-1.1-.3h0ZM23.5,24.5c-.5-.4-1.3-.3-1.7.2l-1.9,2.3c-.4.5-.3,1.3.2,1.7.3.2.7.3,1,.2l2.9-3.5c0-.4-.2-.8-.5-1Z"/>
  <g class="cls-16">
    <rect class="cls-7" x="28.2" y="31.8" width="2.6" height="2.4"/>
  </g>
</svg>