<?xml version="1.0" encoding="UTF-8"?>
<svg id="Layer_1" data-name="Layer 1" xmlns="http://www.w3.org/2000/svg" xmlns:xlink="http://www.w3.org/1999/xlink" version="1.1" viewBox="0 0 50.2 50.7">
  <defs>
    <style>
      .cls-1 {
        clip-path: url(#clippath);
      }

      .cls-2, .cls-3, .cls-4, .cls-5, .cls-6 {
        stroke-width: 0px;
      }

      .cls-2, .cls-7, .cls-8 {
        fill: none;
      }

      .cls-9 {
        mask: url(#mask);
      }

      .cls-3 {
        fill: url(#linear-gradient);
      }

      .cls-10 {
        clip-path: url(#clippath-1);
      }

      .cls-11 {
        clip-path: url(#clippath-4);
      }

      .cls-12 {
        clip-path: url(#clippath-3);
      }

      .cls-13 {
        clip-path: url(#clippath-2);
      }

      .cls-7 {
        stroke: #f47938;
      }

      .cls-7, .cls-8 {
        stroke-miterlimit: 10;
      }

      .cls-14 {
        opacity: .8;
      }

      .cls-4 {
        fill: url(#linear-gradient-2);
      }

      .cls-5 {
        fill: url(#linear-gradient-3);
      }

      .cls-6 {
        fill: #fff;
      }

      .cls-15 {
        mask: url(#mask-1);
      }

      .cls-8 {
        stroke: #5b4c3c;
        stroke-width: .2px;
      }
    </style>
    <clipPath id="clippath">
      <rect class="cls-2" x="-8.1" y="-7.1" width="66.4" height="57.4"/>
    </clipPath>
    <linearGradient id="linear-gradient" x1="-288.3" y1="-226.6" x2="-287.3" y2="-226.6" gradientTransform="translate(-19554.4 15434.5) rotate(-180) scale(68 -68)" gradientUnits="userSpaceOnUse">
      <stop offset="0" stop-color="#fff"/>
      <stop offset="1" stop-color="#000"/>
    </linearGradient>
    <mask id="mask" x="-36.1" y="-39.6" width="122.5" height="122.3" maskUnits="userSpaceOnUse">
      <rect class="cls-3" x="-18.7" y="-21.6" width="87.7" height="86.4" transform="translate(-8 20.6) rotate(-39)"/>
    </mask>
    <clipPath id="clippath-1">
      <rect class="cls-2" x="-8.1" y="-7.1" width="66.4" height="57.4"/>
    </clipPath>
    <clipPath id="clippath-2">
      <rect class="cls-2" x="-8.6" y="-7.6" width="67.4" height="58.4"/>
    </clipPath>
    <linearGradient id="linear-gradient-2" x1="-297.8" y1="-245.9" x2="-296.8" y2="-245.9" gradientTransform="translate(20523.2 -16936) scale(69 -69)" xlink:href="#linear-gradient"/>
    <mask id="mask-1" x="-36.3" y="-39.7" width="122.9" height="122.4" maskUnits="userSpaceOnUse">
      <rect class="cls-4" x="-19.3" y="-21.9" width="88.8" height="86.8" transform="translate(-7.9 18.9) rotate(-36)"/>
    </mask>
    <clipPath id="clippath-3">
      <rect class="cls-2" x="-8.6" y="-7.6" width="67.4" height="58.4"/>
    </clipPath>
    <clipPath id="clippath-4">
      <path class="cls-2" d="M34.7,13.4l-4.4.5c-.5,0-.9.5-.8,1,0,.2.1.4.3.5l1,1-4.1,4.2c-.2.2-.4.2-.6,0l-3.8-3c-.4-.3-1-.3-1.3.1l-6.1,7.1c-.3.4-.3,1,0,1.3,0,0,0,0,0,0l.3.3c.4-1.2,1.5-2,2.8-2.1.3,0,.6,0,.8.1l2.9-3.3c.2-.2.4-.2.6,0l3.5,2.8c.4.3.9.3,1.3,0l5.4-5.5.8.8c.4.4,1,.4,1.3,0,.1-.1.2-.3.3-.5l.5-4.4c0-.5-.3-1-.8-1,0,0,0,0-.1,0s0,0-.1,0"/>
    </clipPath>
    <linearGradient id="linear-gradient-3" x1="-286.3" y1="-270.4" x2="-285.3" y2="-270.4" gradientTransform="translate(6032.6 -5663.5) scale(21 -21)" gradientUnits="userSpaceOnUse">
      <stop offset="0" stop-color="#f36e38"/>
      <stop offset=".1" stop-color="#f36e38"/>
      <stop offset=".4" stop-color="#f15e38"/>
      <stop offset=".9" stop-color="#ef3c38"/>
      <stop offset="1" stop-color="#ef3c38"/>
    </linearGradient>
  </defs>
  <g class="cls-14">
    <g class="cls-1">
      <g class="cls-9">
        <g class="cls-10">
          <path class="cls-6" d="M25.1,49.2c13.4,0,24.2-10.8,24.2-24.2S38.5.9,25.1.9.9,11.7.9,25s10.8,24.2,24.2,24.2"/>
        </g>
      </g>
    </g>
  </g>
  <g class="cls-14">
    <g class="cls-13">
      <g class="cls-15">
        <g class="cls-12">
          <path class="cls-7" d="M25.1,49.2c13.4,0,24.2-10.8,24.2-24.2S38.5.9,25.1.9.9,11.7.9,25s10.8,24.2,24.2,24.2Z"/>
        </g>
      </g>
    </g>
  </g>
  <path class="cls-8" d="M36.1,32.2c-.2-.6-.7-1.1-1.3-1.3l-1.3-.4c-.1,0-.2-.2-.1-.3,0,0,0,0,0-.1.6-.6,1-1.3,1-2.2.1-1.3-.9-2.5-2.2-2.6-1.3.1-2.3,1.3-2.2,2.6,0,.8.3,1.6,1,2.2,0,0,.1.2,0,.3,0,0,0,0-.1,0l-1.3.4c-.5.2-.9.5-1.1.9h.2c.8.3,1.5.9,1.9,1.6h5.3c.2,0,.4-.2.4-.4s0-.1,0-.2l-.3-.7ZM19.8,33.4c.4-.7,1.1-1.3,1.9-1.6h.2c-.3-.5-.7-.8-1.1-1l-1.3-.4c-.1,0-.2-.2-.1-.3,0,0,0,0,0-.1.6-.6,1-1.3,1-2.2.1-1.3-.9-2.5-2.2-2.6-1.3.1-2.3,1.3-2.2,2.6,0,.8.3,1.6,1,2.2,0,0,.1.2,0,.3,0,0,0,0-.1,0l-1.3.4c-.6.2-1.1.7-1.3,1.3l-.3.7c0,.2,0,.5.2.6,0,0,.1,0,.2,0h5.3ZM30.2,34.2c-.3-.8-.9-1.4-1.7-1.6l-1.6-.5c-.1,0-.2-.2-.2-.4,0,0,0,0,0-.1.8-.7,1.2-1.7,1.2-2.8,0-1.9-1.3-3.4-2.8-3.4s-2.8,1.5-2.8,3.4c0,1.1.4,2.1,1.2,2.8.1,0,.1.3,0,.4,0,0,0,0-.1,0l-1.6.5c-.8.3-1.4.9-1.7,1.6l-.3.8c-.1.3,0,.6.3.7,0,0,.1,0,.2,0h9.6c.3,0,.6-.3.6-.6s0-.1,0-.2l-.3-.8Z"/>
  <g class="cls-11">
    <rect class="cls-5" x="14.6" y="13.4" width="21.2" height="13.1"/>
  </g>
</svg>