<?xml version="1.0" encoding="UTF-8"?>
<svg id="Layer_1" data-name="Layer 1" xmlns="http://www.w3.org/2000/svg" xmlns:xlink="http://www.w3.org/1999/xlink" version="1.1" viewBox="0 0 50.2 50.7">
  <defs>
    <style>
      .cls-1 {
        clip-path: url(#clippath);
      }

      .cls-2, .cls-3, .cls-4, .cls-5, .cls-6, .cls-7, .cls-8 {
        stroke-width: 0px;
      }

      .cls-2, .cls-9, .cls-10 {
        fill: none;
      }

      .cls-11 {
        mask: url(#mask);
      }

      .cls-3 {
        fill: url(#linear-gradient);
      }

      .cls-12 {
        clip-path: url(#clippath-1);
      }

      .cls-13 {
        clip-path: url(#clippath-4);
      }

      .cls-14 {
        clip-path: url(#clippath-3);
      }

      .cls-15 {
        clip-path: url(#clippath-2);
      }

      .cls-16 {
        clip-path: url(#clippath-6);
      }

      .cls-17 {
        clip-path: url(#clippath-5);
      }

      .cls-9 {
        stroke: #f47938;
      }

      .cls-9, .cls-10 {
        stroke-miterlimit: 10;
      }

      .cls-18 {
        opacity: .8;
      }

      .cls-4 {
        fill: url(#linear-gradient-4);
      }

      .cls-5 {
        fill: url(#linear-gradient-2);
      }

      .cls-6 {
        fill: url(#linear-gradient-3);
      }

      .cls-7 {
        fill: url(#linear-gradient-5);
      }

      .cls-8 {
        fill: #fff;
      }

      .cls-19 {
        mask: url(#mask-1);
      }

      .cls-10 {
        stroke: #5b4c3c;
        stroke-width: .2px;
      }
    </style>
    <clipPath id="clippath">
      <rect class="cls-2" x="-8.1" y="-6.7" width="66.4" height="57.4"/>
    </clipPath>
    <linearGradient id="linear-gradient" x1="-288.3" y1="-226.6" x2="-287.3" y2="-226.6" gradientTransform="translate(-19554.2 15434.6) rotate(-180) scale(68 -68)" gradientUnits="userSpaceOnUse">
      <stop offset="0" stop-color="#fff"/>
      <stop offset="1" stop-color="#000"/>
    </linearGradient>
    <mask id="mask" x="-36.1" y="-39.2" width="122.5" height="122.3" maskUnits="userSpaceOnUse">
      <rect class="cls-3" x="-18.7" y="-21.2" width="87.7" height="86.4" transform="translate(-8.2 20.7) rotate(-39)"/>
    </mask>
    <clipPath id="clippath-1">
      <rect class="cls-2" x="-8.1" y="-6.7" width="66.4" height="57.4"/>
    </clipPath>
    <clipPath id="clippath-2">
      <path class="cls-2" d="M15.6,24.4c.1,0,.2,0,.2-.1l3.5-2.5c.6-1.5,1.6-2.7,2.9-3.6,1.3-.9,2.9-1.4,4.5-1.4,4.4,0,8,3.6,8,8s-3.6,8-8,8-2.8-.4-4-1.1c0,0,0,.1-.2.2-.2.2-.5.4-.9.4-.6,0-2.4.1-2.5.1,0,0-.1,0-.2,0s-.1,0-.2,0h-.2c2.1,2.2,5,3.5,8.1,3.5,6.1,0,11.1-5,11.1-11.1s-5-11.1-11.1-11.1-10.9,4.8-11.1,10.7"/>
    </clipPath>
    <linearGradient id="linear-gradient-2" x1="-282.2" y1="-268.3" x2="-281.2" y2="-268.3" gradientTransform="translate(6293.6 -5944.9) scale(22.2 -22.2)" gradientUnits="userSpaceOnUse">
      <stop offset="0" stop-color="#f36e38"/>
      <stop offset=".1" stop-color="#f36e38"/>
      <stop offset=".4" stop-color="#f15e38"/>
      <stop offset=".9" stop-color="#ef3c38"/>
      <stop offset="1" stop-color="#ef3c38"/>
    </linearGradient>
    <clipPath id="clippath-3">
      <path class="cls-2" d="M20,21.4h.1c.2-.2.5-.3.7-.3.4,0,.8.2,1,.5.4.5.3,1.3-.3,1.7l-.8.6h2c.5-1.8,2.1-3.1,4-3.1s4.1,1.8,4.1,4.1-1.8,4.1-4.1,4.1-2-.4-2.7-1c-.2.2-.4.3-.6.4.2.2.3.5.3.8,0,.6-.5,1.1-1.1,1.2.2.2.3.5.3.8s0,.2,0,.3c1.2.7,2.5,1,3.8,1,4.2,0,7.6-3.4,7.6-7.5s-3.4-7.5-7.6-7.5-5.4,1.6-6.7,4.1"/>
    </clipPath>
    <linearGradient id="linear-gradient-3" x1="-275.9" y1="-286.6" x2="-274.9" y2="-286.6" gradientTransform="translate(3954.5 -4061.4) scale(14.3 -14.3)" xlink:href="#linear-gradient-2"/>
    <clipPath id="clippath-4">
      <path class="cls-2" d="M23.2,23.8h2.8c.3,0,.6.1.9.4.2.2.4.5.4.9,0,.7-.5,1.2-1.2,1.2h-2c.2.2.3.5.3.8s0,.3,0,.5c.7.6,1.5,1,2.5,1,2,0,3.7-1.6,3.7-3.7s-1.6-3.7-3.7-3.7-3.1,1.1-3.5,2.7"/>
    </clipPath>
    <linearGradient id="linear-gradient-4" x1="-258.8" y1="-336.6" x2="-257.8" y2="-336.6" gradientTransform="translate(1884.9 -2396.3) scale(7.2 -7.2)" xlink:href="#linear-gradient-2"/>
    <clipPath id="clippath-5">
      <rect class="cls-2" x="-8.6" y="-7.2" width="67.4" height="58.4"/>
    </clipPath>
    <linearGradient id="linear-gradient-5" x1="-297.8" y1="-245.9" x2="-296.8" y2="-245.9" gradientTransform="translate(20523.4 -16935.9) scale(69 -69)" xlink:href="#linear-gradient"/>
    <mask id="mask-1" x="-36.3" y="-39.3" width="122.9" height="122.4" maskUnits="userSpaceOnUse">
      <rect class="cls-7" x="-19.3" y="-21.4" width="88.8" height="86.8" transform="translate(-8.1 19) rotate(-36)"/>
    </mask>
    <clipPath id="clippath-6">
      <rect class="cls-2" x="-8.6" y="-7.2" width="67.4" height="58.4"/>
    </clipPath>
  </defs>
  <g class="cls-18">
    <g class="cls-1">
      <g class="cls-11">
        <g class="cls-12">
          <path class="cls-8" d="M25.1,49.7c13.4,0,24.2-10.8,24.2-24.2S38.5,1.3,25.1,1.3.9,12.1.9,25.5s10.8,24.2,24.2,24.2"/>
        </g>
      </g>
    </g>
  </g>
  <g>
    <rect class="cls-2" x="-8.6" y="-7.6" width="67.4" height="58.4"/>
    <g>
      <rect class="cls-10" x="12.5" y="25.1" width=".7" height="6.4"/>
      <g class="cls-15">
        <rect class="cls-5" x="15.6" y="13.7" width="22.2" height="22.3"/>
      </g>
      <path class="cls-10" d="M19.2,31.8c.2,0,1.9-.1,2.5-.1.2,0,.4,0,.5-.2,0,0,.1-.2.2-.2,0,0,0,0,0,0,0,0,0-.2,0-.3,0-.4-.3-.7-.7-.8h-1.9c-.1,0-.2,0-.2-.2s0-.2.2-.2h2.6c.4,0,.8-.3.8-.8s-.3-.8-.8-.8h-1.7c-.1,0-.2,0-.2-.2s0-.2.2-.2h2.3c.3,0,.5-.1.6-.4t0,0c0-.1.1-.2.1-.4,0-.4-.3-.8-.8-.8h-1.7c-.1,0-.2,0-.2-.2s0-.2.2-.2h4.5c.4,0,.8-.3.8-.8s0-.4-.2-.5c-.1-.1-.3-.2-.5-.2h-5.6l-.4.3c0,0-.2,0-.3,0,0,0,0-.2,0-.3l.5-.3h0s1.3-.9,1.3-.9c.3-.2.4-.7.2-1-.1-.2-.4-.3-.6-.3s-.3,0-.4.1l-.7.5-3.4,2.4c0,0-.3.2-.6.3-.5.2-1.2.4-1.5.4v5.4l2,.5s0,0,0,0c.3.2.6.2,1,.3h1c0,0,.7.1.7.1.1,0,.2,0,.3,0Z"/>
      <g class="cls-14">
        <rect class="cls-6" x="20" y="17.3" width="14.3" height="15.1"/>
      </g>
      <g class="cls-13">
        <rect class="cls-4" x="23.2" y="21.2" width="7.2" height="7.3"/>
      </g>
    </g>
  </g>
  <g class="cls-18">
    <g class="cls-17">
      <g class="cls-19">
        <g class="cls-16">
          <path class="cls-9" d="M25.1,49.7c13.4,0,24.2-10.8,24.2-24.2S38.5,1.3,25.1,1.3.9,12.1.9,25.5s10.8,24.2,24.2,24.2Z"/>
        </g>
      </g>
    </g>
  </g>
</svg>