<svg width="1510" height="860" viewBox="0 0 1510 860" fill="none" xmlns="http://www.w3.org/2000/svg">
<mask id="mask0_81_37" style="mask-type:luminance" maskUnits="userSpaceOnUse" x="0" y="0" width="1513" height="860">
<path d="M1513 0H0V860H1513V0Z" fill="white"/>
</mask>
<g mask="url(#mask0_81_37)">
<path d="M1513 0H0V860H1513V0Z" fill="url(#paint0_linear_81_37)"/>
</g>
<mask id="mask1_81_37" style="mask-type:luminance" maskUnits="userSpaceOnUse" x="0" y="0" width="1513" height="860">
<path d="M1513 0H0V860H1513V0Z" fill="white"/>
</mask>
<g mask="url(#mask1_81_37)">
<mask id="mask2_81_37" style="mask-type:luminance" maskUnits="userSpaceOnUse" x="-12" y="-321" width="1225" height="786">
<path d="M1212.44 -320.254H-11.002V464.663H1212.44V-320.254Z" fill="white"/>
</mask>
<g mask="url(#mask2_81_37)">
<mask id="mask3_81_37" style="mask-type:luminance" maskUnits="userSpaceOnUse" x="0" y="-312" width="1202" height="776">
<path d="M671.31 -311.678L0 463.588H530.129L1201.44 -311.678H671.31Z" fill="white"/>
</mask>
<g mask="url(#mask3_81_37)">
<path d="M1201.43 -311.678H0V463.588H1201.43V-311.678Z" fill="url(#paint1_linear_81_37)"/>
</g>
</g>
<mask id="mask4_81_37" style="mask-type:luminance" maskUnits="userSpaceOnUse" x="300" y="272" width="1225" height="786">
<path d="M1524.01 272.572H300.568V1057.48H1524.01V272.572Z" fill="white"/>
</mask>
<g mask="url(#mask4_81_37)">
<mask id="mask5_81_37" style="mask-type:luminance" maskUnits="userSpaceOnUse" x="311" y="281" width="1202" height="776">
<path d="M982.88 281.148L311.57 1056.41H841.69L1513 281.148H982.88Z" fill="white"/>
</mask>
<g mask="url(#mask5_81_37)">
<path d="M1513 281.148H311.57V1056.41H1513V281.148Z" fill="url(#paint2_linear_81_37)"/>
</g>
</g>
</g>
<path opacity="0.35" d="M1513 0H0V860H1513V0Z" fill="white"/>
<defs>
<linearGradient id="paint0_linear_81_37" x1="753.476" y1="857.227" x2="753.476" y2="1.0901" gradientUnits="userSpaceOnUse">
<stop stop-color="#4DC1B7"/>
<stop offset="0.04" stop-color="#4DC1B7"/>
<stop offset="0.43" stop-color="#40AEA3"/>
<stop offset="1" stop-color="#2A8E7F"/>
</linearGradient>
<linearGradient id="paint1_linear_81_37" x1="-0.840364" y1="74.621" x2="530.837" y2="74.621" gradientUnits="userSpaceOnUse">
<stop stop-color="#4DC1B7"/>
<stop offset="0.04" stop-color="#4DC1B7"/>
<stop offset="1" stop-color="#2A8E7F"/>
</linearGradient>
<linearGradient id="paint2_linear_81_37" x1="313.333" y1="666.922" x2="841.072" y2="666.922" gradientUnits="userSpaceOnUse">
<stop stop-color="#4DC1B7"/>
<stop offset="0.04" stop-color="#4DC1B7"/>
<stop offset="1" stop-color="#2A8E7F"/>
</linearGradient>
</defs>
</svg>
