<svg width="76" height="73" viewBox="0 0 76 73" fill="none" xmlns="http://www.w3.org/2000/svg">
<g clip-path="url(#clip0_142_1974)">
<path d="M73.3198 70.2561C73.7626 70.2561 74.2055 70.3252 74.6483 70.3252C75.3474 70.3252 76 70.3252 76 71.3167C76 72.239 75.7902 72.9307 74.6949 72.9769C74.1821 72.9769 73.6461 72.9769 73.1334 72.9769C49.6878 72.9769 26.2423 72.9769 2.79669 72.9769C1.84115 72.9769 0.862312 73.1383 0 72.5388V70.3252C0.839006 69.5874 1.86446 69.6796 2.86661 69.6796C15.0555 69.5413 27.2677 69.6566 39.4566 69.6105C41.4609 69.6105 43.4652 69.6105 45.4928 69.6105C48.8255 69.6105 48.8954 69.5182 48.9187 66.3132C48.9187 64.0997 48.8488 61.9093 48.9653 59.6957C48.8488 53.0782 48.8721 46.4377 48.9653 39.8202C48.9887 36.7305 50.0607 35.6698 53.1371 35.6007C57.0757 35.5084 61.0377 35.5084 64.9764 35.6007C67.8197 35.6698 68.6587 36.4538 68.682 39.1515C68.7286 45.9304 68.7985 52.6863 68.6587 59.4652C68.7053 62.0245 68.7286 64.5839 68.6587 67.1433C68.6121 68.8496 69.1481 69.7949 71.0592 69.6796C71.8749 69.6335 72.6906 69.7027 73.3664 70.2561H73.3198Z" fill="#8F96AB"/>
<path d="M2.68016 70.2561C1.79454 70.2561 0.885618 70.3022 0 70.3253V27.8765C1.42165 28.2684 2.33057 29.2599 3.09966 30.4358C3.37933 31.312 3.30941 32.2343 3.33272 33.1336C3.42594 41.9646 3.42594 50.7956 3.33272 59.6266C3.42594 62.3474 3.37933 65.0451 3.35603 67.7659C3.35603 68.6421 3.35603 69.5413 2.65685 70.2331L2.68016 70.2561Z" fill="white"/>
<path d="M0 22.5733C1.2119 20.083 1.42165 17.3161 2.23735 14.6876C2.37718 14.2034 2.58694 13.7653 2.75008 13.2811C4.70776 12.1743 6.73536 12.4741 8.78626 13.0044C9.3456 13.3964 9.48543 13.9959 9.36891 14.5723C8.69304 17.5698 8.45998 20.6595 7.27139 23.5417C7.06164 23.7261 6.80527 23.8414 6.54891 23.9336C4.33487 24.072 2.09752 24.6484 0 23.4494L0 22.5733Z" fill="#F16566"/>
<path d="M0 23.4724C2.28396 23.4724 4.56792 23.5185 6.85189 23.5416C7.57436 24.6022 7.2947 25.7782 7.318 26.931C6.64214 29.8132 5.12726 30.8739 2.68016 30.1591C1.51487 29.721 0.699172 28.8909 0 27.9225V23.4955L0 23.4724Z" fill="#D3555B"/>
<path d="M2.75006 59.742C2.75006 50.7265 2.75006 41.7341 2.75006 32.7186C4.75435 31.7502 6.75865 30.7357 9.06591 31.8655C9.32228 32.0039 9.0193 31.9577 9.27567 31.9116C12.6084 31.2199 15.9877 32.2114 19.3204 31.6349C19.4603 31.6119 19.6234 31.4966 19.7399 31.5197C23.0027 32.3958 26.3122 31.266 29.575 31.7502C29.7148 31.7502 29.8779 31.8886 29.9945 31.8655C33.3272 31.1046 36.7065 32.3036 40.0392 31.658C40.249 31.6119 40.482 31.4505 40.6918 31.4966C43.8847 32.3036 47.1242 31.1277 50.3171 31.7963C50.5268 31.8425 50.7832 32.0039 50.9696 31.9347C54.2091 30.9893 57.5418 32.4189 60.8046 31.5888C61.5271 31.4044 62.2962 31.243 62.9954 31.4735C64.8365 32.1191 66.5612 31.9577 68.4256 31.4274C70.1036 30.9432 71.7117 31.9577 73.2266 32.6956C73.2266 41.7111 73.2266 50.7035 73.2266 59.719C71.4787 60.6643 69.7307 60.6643 68.0061 59.719C67.9828 52.7325 67.8896 45.7231 67.9828 38.7366C67.9828 36.869 67.3302 36.2464 65.5357 36.2695C61.2241 36.3156 56.8893 36.3387 52.5777 36.2695C50.4103 36.2234 49.6645 37.1918 49.6878 39.1978C49.6878 46.0459 49.6645 52.8939 49.6412 59.742C48.8255 60.3185 48.0331 60.4107 47.2174 59.742C46.5415 58.7505 46.6814 57.6207 46.6814 56.537C46.6814 51.2338 46.6814 45.9306 46.6814 40.6274C46.6814 37.4915 46.1919 37.0073 43.0457 37.0073C32.6979 36.9843 22.3269 36.9843 11.9791 37.0073C9.06591 37.0073 8.78625 37.3071 8.76294 40.1893C8.73963 45.6308 8.76294 51.0955 8.76294 56.537C8.76294 57.6207 8.87947 58.7505 8.22691 59.7651C6.40906 60.7104 4.59121 60.7796 2.77337 59.7651L2.75006 59.742Z" fill="#FFD782"/>
<path d="M14.2631 6.68673C14.0767 -0.207463 15.5682 -0.023003 21.3481 5.44349e-05C32.9776 0.0692269 44.5839 5.44349e-05 56.2134 5.44349e-05C60.8979 5.44349e-05 61.6437 0.737894 61.6903 5.32633C61.6903 5.76443 61.7136 6.20252 61.7369 6.64061C63.0653 9.77643 62.2496 12.1513 59.3364 13.6731C57.5885 14.0651 55.8172 13.8807 54.046 13.9037C51.9718 13.9729 49.9209 13.9498 47.8467 13.9037C45.6093 13.9498 43.3953 13.9729 41.1812 13.9037C39.0837 13.9498 37.0095 13.9729 34.912 13.9037C32.6746 13.9498 30.4606 13.9729 28.2465 13.9037C26.1723 13.9498 24.0981 13.9729 22.0472 13.9037C20.276 13.9037 18.5048 14.0882 16.7335 13.6962C13.7737 12.1975 12.958 9.82254 14.2864 6.66367L14.2631 6.68673Z" fill="#AFB9D2"/>
<path d="M73.2499 32.7185C69.7541 31.1506 65.9552 33.5947 62.4594 31.9346C62.1797 31.7962 61.7136 31.9346 61.3873 32.0499C59.5928 32.7877 57.8448 33.0874 56.0503 32.0037C55.724 31.8193 55.1181 31.8423 54.7685 32.0037C52.8108 32.903 50.8997 32.903 48.9654 32.0037C48.406 31.7271 47.8001 31.8885 47.2407 32.1421C45.7492 32.8338 44.2343 32.8799 42.7194 32.1882C42.6495 32.1651 42.5796 32.096 42.5097 32.096C39.2935 32.903 36.054 32.0268 32.8378 32.3035C32.5581 32.3265 32.2318 32.6263 31.9988 32.5571C28.6428 31.5195 25.1935 33.1797 21.8841 32.1882C20.882 31.8885 20.0196 31.7732 19.134 32.3265C18.598 32.6494 17.992 32.8799 17.4327 32.6955C15.0555 31.9346 12.5851 32.7416 10.3478 32.488C7.71421 32.1882 5.26711 32.488 2.75009 32.6955C2.75009 31.8193 2.70348 30.9662 2.68018 30.09C4.87091 30.0208 6.4557 29.2138 6.8286 26.8389C7.06165 26.885 7.2481 26.9772 7.38793 27.1386C9.90495 30.09 10.2545 30.1361 13.4008 27.7612C13.5173 27.6689 13.6572 27.6459 13.8203 27.6228C13.8902 27.6228 13.9835 27.6228 14.0301 27.6459C16.314 29.1523 18.4892 29.0216 20.5557 27.2539C23.0105 28.8987 25.3644 28.8987 27.6173 27.2539C27.8271 27.3231 28.0368 27.4153 28.1766 27.5536C30.8102 30.0669 31.3462 30.0669 33.8632 27.5998C34.0264 27.4384 34.2128 27.3231 34.4226 27.2539C34.9353 27.2539 35.1684 27.5998 35.4713 27.9226C37.3591 29.9747 38.6409 29.9977 40.4588 27.9687C40.7384 27.6459 40.9948 27.277 41.4842 27.2308C41.694 27.277 41.9037 27.3922 42.0669 27.5306C44.7004 30.0439 45.2364 30.0669 47.7535 27.5767C47.9166 27.4153 48.1031 27.3231 48.3128 27.2308C48.3827 27.2308 48.4759 27.2308 48.5226 27.2539C50.7599 28.9755 53.0361 28.9678 55.3511 27.2308C55.724 27.3231 55.9804 27.5767 56.2367 27.8534C58.241 29.8825 59.0334 29.9286 61.2009 28.107C61.4805 27.8765 61.7602 27.6459 62.1331 27.5998C62.203 27.5998 62.2962 27.5998 62.3429 27.6459C64.6734 29.2138 66.802 29.0063 68.7286 27.0233C68.8918 26.8619 69.1015 26.8158 69.3346 26.8619C70.1503 28.5451 71.8283 29.2138 73.3199 30.0669L73.2499 32.6724V32.7185Z" fill="#FBAF62"/>
<path d="M14.2631 6.68666C14.333 8.07011 14.2631 9.45355 14.4729 10.8139C14.636 11.9438 15.5682 12.6585 16.5005 13.235C16.2441 13.6039 15.8712 13.7653 15.4284 13.8345C13.2377 13.8345 11.0236 14.457 8.92611 13.3503C6.8519 13.3503 4.801 13.3272 2.72679 13.3042C2.68018 11.2059 1.84117 8.57737 3.00646 7.14781C4.14844 5.7413 6.87521 6.80194 8.92611 6.68666C10.6974 6.59443 12.4686 6.68666 14.2398 6.68666H14.2631Z" fill="#FFD782"/>
<path d="M59.4995 13.235C62.3428 11.7593 61.5504 9.06159 61.7369 6.68667C65.0696 6.68667 68.379 6.73278 71.6884 6.64055C72.9469 6.61749 73.3897 7.03253 73.3198 8.27763C73.2266 9.96083 73.2499 11.621 73.2266 13.3042C71.2922 14.5032 69.1481 13.7653 67.0972 13.9267C64.9064 13.9267 62.7157 14.0651 60.525 13.8345C60.1054 13.7653 59.7326 13.6039 59.4762 13.235H59.4995Z" fill="#FFD782"/>
<path d="M67.0506 13.3503C69.1248 13.3503 71.1757 13.3273 73.2499 13.3042C74.1356 16.6936 75.0445 20.0831 75.9301 23.4726C73.8792 24.6485 71.6652 24.0259 69.521 23.9568C69.2647 23.8876 69.0083 23.7723 68.7986 23.6109C67.54 20.7057 67.3303 17.5698 66.6544 14.5262C66.5612 14.0882 66.771 13.6731 67.0739 13.3273L67.0506 13.3503Z" fill="#F16566"/>
<path d="M68.0294 59.7189C69.7773 59.7189 71.5019 59.7189 73.2499 59.7189C73.2499 63.2236 73.2965 66.7283 73.3198 70.2561C69.7462 70.4252 67.9595 68.7343 67.9595 65.1835C67.9595 63.3619 68.0061 61.5404 68.0294 59.6958V59.7189Z" fill="#FBAE61"/>
<path d="M69.1481 23.5185C71.4088 23.5185 73.6694 23.4724 75.9068 23.4724C75.9068 24.7175 76.0699 25.9857 75.9301 27.2077C75.7669 28.7295 74.6483 29.5596 73.2965 30.136C71.1058 30.0669 69.521 29.2368 69.1481 26.8849C68.4955 25.7551 68.4722 24.6483 69.1481 23.5185Z" fill="#D3555B"/>
<path d="M2.7501 59.7421C4.49803 59.7421 6.22266 59.7421 7.97059 59.7421C8.76298 60.3877 8.71637 61.333 8.71637 62.1861C8.71637 63.8232 9.60199 64.3766 11.0936 64.3535C12.5851 64.3535 14.0767 64.3535 15.5683 64.3535C24.4944 64.3535 33.4204 64.3535 42.3465 64.3535C44.817 64.3535 46.3008 63.193 46.7979 60.8719C46.8912 60.4338 47.031 60.0187 47.4039 59.719C48.1497 59.719 48.8955 59.719 49.6645 59.719C49.6645 62.6704 49.6645 65.5987 49.7578 68.55C49.8044 69.8412 49.4548 70.3716 48.0331 70.3485C32.931 70.2793 17.8056 70.2793 2.70349 70.2563C2.70349 66.7515 2.7501 63.2468 2.77341 59.719L2.7501 59.7421Z" fill="#FBAE61"/>
<path d="M65.2794 61.4944C65.2095 62.6703 64.2772 62.3475 63.6014 62.3705C60.4085 62.3936 57.2156 62.3244 54.0227 62.4167C52.6011 62.4628 52.2748 61.9094 52.2748 60.6182C52.3447 55.4763 52.3447 50.3345 52.3447 45.1697C53.4401 44.9621 53.9761 45.7922 54.4655 46.4609C57.7516 50.911 60.9678 55.3841 64.3705 59.742C64.79 60.2723 64.7667 61.0101 65.2561 61.4944H65.2794Z" fill="#B6E0F7"/>
<path d="M65.2794 61.4944C62.1564 57.9896 59.4763 54.139 56.7262 50.3576C55.3978 48.5361 54.3257 46.484 52.368 45.1466C52.368 44.3396 52.3214 43.5557 52.3214 42.7486C52.3214 40.1355 53.6654 38.8827 56.3533 38.9903C56.8427 39.9587 58.9169 40.6043 56.9126 42.08C56.4232 42.4489 57.0525 42.8409 57.2622 43.1637C58.8004 45.6539 60.7348 47.8905 62.4594 50.2423C63.4615 51.6027 64.5336 52.8939 65.2794 54.4157C65.2794 56.7676 65.2794 59.1195 65.2794 61.4944Z" fill="#A1D2F0"/>
<path d="M65.2794 54.4156C62.1331 51.2337 59.7326 47.4522 57.0524 43.9014C56.563 43.2558 56.1901 42.564 55.7473 41.8723C56.1202 41.2728 56.8893 41.8493 57.3321 41.342C57.099 40.535 56.33 39.9124 56.3067 38.9671C58.7538 38.9671 61.1775 38.9901 63.6247 38.921C64.8832 38.8748 65.2794 39.3591 65.2794 40.5811C65.2327 45.1926 65.2561 49.8041 65.2561 54.4156H65.2794Z" fill="#BDE1F7"/>
<path d="M8.9494 13.3503C11.1867 13.3503 13.4241 13.3503 15.6614 13.3503C15.8479 16.9704 15.6148 20.5212 13.7038 23.7493C11.513 24.2335 9.29898 24.6255 7.17816 23.4726C7.29469 20.5212 8.25023 17.7313 8.76295 14.8491C8.85617 14.3649 8.90279 13.8576 8.9494 13.3503Z" fill="#F0F3F9"/>
<path d="M7.17816 23.4496C9.3922 23.4496 11.5829 23.4496 13.797 23.4496C13.8902 23.5418 14.0067 23.611 14.1 23.7032C14.6127 25.0867 14.7991 26.4701 13.9135 27.7844C12.958 29.0987 11.9092 30.3438 10.0448 30.044C8.27353 29.7443 7.38791 28.4761 6.87518 26.8621C6.87518 25.7323 6.87518 24.6255 6.87518 23.4957C6.99171 23.4957 7.08493 23.4726 7.20146 23.4265L7.17816 23.4496Z" fill="#C9CFE1"/>
<path d="M47.4039 59.719C47.1941 65.5295 47.9399 65.0222 41.6241 65.0222C31.4162 65.0222 21.2315 65.0222 11.0236 65.0222C9.03488 65.0222 8.0405 64.0615 8.0405 62.14C8.0405 61.333 7.99389 60.526 7.97058 59.719C7.99389 52.7326 8.08711 45.7231 7.99389 38.7367C7.97058 36.6615 8.90281 36.2695 10.674 36.2695C21.9307 36.2926 33.1641 36.3156 44.4207 36.2695C46.5416 36.2695 47.3573 37.1457 47.3573 39.1748C47.3573 46.0228 47.3806 52.8709 47.4039 59.719Z" fill="#8F96AB"/>
<path d="M17.0598 7.56291C16.8501 1.52185 16.7335 2.72084 21.721 2.69778C33.0242 2.62861 44.3042 2.69778 55.6075 2.69778C57.8915 2.69778 59.0257 3.81222 59.0101 6.04111C59.0101 6.54838 58.9635 7.0787 58.9402 7.58597C58.3343 8.69273 57.2389 8.66967 56.2134 8.69273C44.0712 8.73884 31.9289 8.73884 19.8099 8.69273C18.7844 8.69273 17.6891 8.69273 17.0831 7.58597L17.0598 7.56291Z" fill="#FFD782"/>
<path d="M17.0598 7.56274C17.7823 8.02389 18.598 7.97778 19.437 7.97778C31.8123 7.97778 44.211 7.97778 56.5863 7.97778C57.402 7.97778 58.2177 8.02389 58.9635 7.56274C59.0567 9.60717 58.0857 10.6294 56.0503 10.6294C44.0245 10.6294 32.0221 10.6294 19.9963 10.6294C17.961 10.6294 16.9899 9.60717 17.0831 7.56274H17.0598Z" fill="#FBAE61"/>
<path d="M34.842 13.3271C36.9395 13.3271 39.0371 13.3271 41.1346 13.3271C42.0435 16.6935 42.9058 20.0599 41.6007 23.5416C39.2235 24.487 36.823 24.4409 34.4225 23.5877C33.7933 22.9421 33.7233 22.1351 33.7466 21.3281C33.8166 18.6304 33.7466 15.9096 34.8187 13.3502L34.842 13.3271Z" fill="#F0F2F9"/>
<path d="M21.8841 13.3271C23.9816 13.3271 26.0791 13.3271 28.1767 13.3271C28.7826 13.9728 28.8525 14.7798 28.8059 15.5868C28.7127 18.2615 28.7127 20.9592 27.7572 23.5186C25.4266 24.5331 23.0727 24.3486 20.6955 23.68C20.579 23.5877 20.4158 23.4724 20.3925 23.3572C20.2061 19.9216 20.1828 16.5091 21.8375 13.3271H21.8841Z" fill="#F0F3FA"/>
<path d="M47.8 13.3271C49.8976 13.3271 51.9951 13.3271 54.0926 13.3271C55.7007 15.3331 55.2113 17.8003 55.5608 20.0599C55.7473 21.2128 56.2833 22.504 55.3045 23.6338C52.9506 24.3947 50.5967 24.487 48.2428 23.5647C47.3339 20.1983 46.4483 16.8088 47.7767 13.3271H47.8Z" fill="#F0F3FA"/>
<path d="M27.6406 23.4724C27.6406 20.083 28.4097 16.7397 28.2 13.3271C30.414 13.3271 32.6513 13.3271 34.8654 13.3271C35.0751 16.7166 34.0963 20.0599 34.5158 23.4724C34.4226 23.5647 34.3294 23.6569 34.2128 23.7491C32.1153 24.3025 30.0178 24.3025 27.9203 23.7491C27.8271 23.6569 27.7338 23.5647 27.6173 23.4724H27.6406Z" fill="#F16566"/>
<path d="M47.8 13.3271C47.5903 16.7166 48.3594 20.083 48.3594 23.4724C48.2661 23.5647 48.1729 23.6569 48.0564 23.7491C45.9589 24.3025 43.8614 24.3025 41.7638 23.7491C41.6706 23.6569 41.5774 23.5647 41.4609 23.4724C41.8804 20.083 40.9015 16.7166 41.1113 13.3271C43.3253 13.3271 45.5627 13.3271 47.7767 13.3271H47.8Z" fill="#F16566"/>
<path d="M21.8841 13.3272C21.4646 16.7167 21.0684 20.083 20.6489 23.4725C20.5556 23.5647 20.4391 23.657 20.3459 23.7492C18.1785 24.2103 16.0343 24.5793 13.9368 23.4494H13.7737C14.4029 20.083 15.0089 16.6936 15.6381 13.3272C15.9178 13.2811 16.2208 13.258 16.5005 13.2119C18.295 13.235 20.0895 13.2811 21.8841 13.3041V13.3272Z" fill="#F16465"/>
<path d="M55.3512 23.4726C54.9317 20.0832 54.5355 16.7168 54.116 13.3273C55.9105 13.3043 57.7051 13.2582 59.4996 13.2351C59.7793 13.2812 60.0822 13.3043 60.3619 13.3504C61.3174 14.0191 61.364 15.0797 61.5039 16.0942C61.8768 18.4692 62.5293 20.821 62.3895 23.2421C62.2963 23.4957 62.1098 23.6801 61.8768 23.7954C59.8026 24.2335 57.7051 24.3027 55.6308 23.7493C55.5376 23.6571 55.4444 23.5649 55.3512 23.4726Z" fill="#F16465"/>
<path d="M34.4925 23.4724C36.8231 23.4724 39.1537 23.4724 41.4842 23.4724H41.6474C42.3932 24.8328 42.5563 26.1701 41.5075 27.4614C39.8528 31.0583 36.1006 31.0353 34.4692 27.4614C33.4205 26.1701 33.5836 24.8328 34.3294 23.4724H34.4925Z" fill="#C9D0E1"/>
<path d="M48.3594 23.4724C50.69 23.4724 53.0206 23.4724 55.3512 23.4724H55.5143C56.2834 24.8328 56.4232 26.1701 55.3745 27.4844C53.6032 31.1967 49.9442 30.8969 48.3361 27.4152C47.2641 26.1471 47.4738 24.8097 48.1963 23.4724H48.3594Z" fill="#C9D0E1"/>
<path d="M20.6489 23.4724C22.9794 23.4724 25.31 23.4724 27.6406 23.4724H27.8037C28.5262 24.8097 28.7359 26.1471 27.6639 27.4152C26.0325 30.8969 22.3735 31.1736 20.6255 27.4844C19.6001 26.1701 19.7399 24.8328 20.4857 23.4724H20.6489Z" fill="#C9D0E1"/>
<path d="M69.1481 23.5187C69.1481 24.6485 69.1481 25.7552 69.1481 26.8851C68.6354 28.476 67.7497 29.7673 65.9785 30.067C64.114 30.3667 63.0653 29.1447 62.1097 27.8074C61.1775 26.3778 61.2707 24.9252 62.0398 23.4495H62.203C64.3937 22.4119 66.6078 22.435 68.8218 23.4495C68.9383 23.4726 69.0316 23.4956 69.1481 23.5187Z" fill="#C9CFE1"/>
<path d="M62.0631 23.4495C62.0631 24.9021 62.1098 26.3547 62.1331 27.8073C59.8025 31.0123 57.402 30.897 55.3977 27.4615C55.4443 26.1241 55.4909 24.7868 55.5375 23.4495C57.7283 23.4495 59.8957 23.4495 62.0864 23.4495H62.0631Z" fill="#D3555B"/>
<path d="M48.1963 23.4495C48.2429 24.7637 48.2895 26.078 48.3361 27.3923C47.7069 28.9141 46.7281 30.0439 44.9335 30.067C43.139 30.067 42.1834 28.9141 41.5076 27.4384C41.5542 26.1011 41.6008 24.7868 41.6474 23.4495C43.8381 23.4495 46.0056 23.4495 48.1963 23.4495Z" fill="#D3555B"/>
<path d="M27.6639 27.3923C27.7106 26.078 27.7572 24.7637 27.8038 23.4495C29.9945 23.4495 32.1619 23.4495 34.3527 23.4495C34.3993 24.7868 34.4459 26.1011 34.4925 27.4384C33.8167 28.9141 32.8611 30.09 31.0666 30.067C29.2953 30.067 28.2932 28.9141 27.6639 27.3923Z" fill="#D3555B"/>
<path d="M20.4857 23.4495C20.5323 24.7868 20.5789 26.1241 20.6256 27.4615C18.6213 30.897 16.2208 31.0123 13.8902 27.8073C13.8902 26.3547 13.9368 24.9021 13.9601 23.4495C16.1509 23.4495 18.3183 23.4495 20.509 23.4495H20.4857Z" fill="#D3555B"/>
<path d="M68.8218 23.4494C66.6077 23.4494 64.417 23.4494 62.203 23.4494C61.5737 20.083 60.9678 16.6935 60.3385 13.3271C62.5759 13.3271 64.8132 13.3271 67.0506 13.3271C67.5633 15.9788 68.0294 18.6534 68.6353 21.305C68.7985 22.0429 68.7985 22.7346 68.8218 23.4494Z" fill="#F0F3F9"/>
<path d="M20.6023 38.9903C28.0368 38.9903 35.448 38.9903 42.8825 38.9211C44.1643 38.9211 44.747 39.1978 44.7237 40.6274C44.6538 47.3141 44.6771 54.0007 44.7237 60.6874C44.7237 62.0939 44.1877 62.4398 42.8825 62.3937C40.3655 62.3014 37.8252 62.3476 35.3082 62.3245C34.7255 61.8633 34.1895 61.3791 33.7467 60.7796C29.5283 55.1767 25.2401 49.5968 21.0451 43.9707C20.3925 43.0945 19.2505 42.2414 20.8353 41.0424C21.4879 40.5352 20.1828 39.7743 20.6023 39.0364V38.9903Z" fill="#B7E0F7"/>
<path d="M30.3673 62.3244C24.4244 62.3244 18.4814 62.3244 12.5618 62.4166C11.1168 62.4166 10.6274 62.0016 10.6507 60.5489C10.7206 54.2312 10.6973 47.9134 10.7206 41.6187C13.191 40.6042 14.8224 40.8578 16.2441 42.7255C20.7887 48.7204 25.2867 54.7615 29.808 60.7565C30.1576 61.2176 30.6004 61.6788 30.3673 62.3474V62.3244Z" fill="#B6E0F7"/>
<path d="M30.3674 62.3245C25.6596 56.099 20.812 49.9887 16.3373 43.6249C14.7292 41.3422 12.7948 41.6419 10.6973 41.5958C10.2778 39.5206 11.0702 38.7136 13.2609 38.8981C15.6847 39.1056 18.1318 38.9672 20.5556 38.9903C21.0451 39.7281 21.5345 40.4429 22.1637 41.3883C20.2294 41.4805 20.1594 42.08 21.2548 43.4635C25.916 49.4123 30.4606 55.4764 35.0285 61.4944C35.1916 61.725 35.2149 62.0478 35.3082 62.3014C33.6535 62.3014 31.9988 62.3014 30.344 62.3014L30.3674 62.3245Z" fill="#A1D2F0"/>
</g>
<defs>
<clipPath id="clip0_142_1974">
<rect width="76" height="73" fill="white"/>
</clipPath>
</defs>
</svg>
