<svg width="74" height="69" viewBox="0 0 74 69" fill="none" xmlns="http://www.w3.org/2000/svg">
<g clip-path="url(#clip0_142_1279)">
<path d="M35.9036 50.2368H18.6914V68.9827H35.9036V50.2368Z" fill="#F48893"/>
<mask id="mask0_142_1279" style="mask-type:luminance" maskUnits="userSpaceOnUse" x="0" y="0" width="74" height="69">
<path d="M74 0H0V68.9827H74V0Z" fill="white"/>
</mask>
<g mask="url(#mask0_142_1279)">
<path d="M46.0847 29.1909V30.9894C46.0847 31.0759 46.0499 31.1623 45.9976 31.2315C45.928 31.3353 45.8062 31.3872 45.667 31.3872H44.0136C43.8744 31.3872 43.7526 31.318 43.683 31.2315C43.6308 31.1623 43.596 31.0759 43.596 30.9894V29.1909C43.596 29.0872 43.6308 29.0007 43.7004 28.9142C43.7874 28.8278 43.8918 28.7759 44.0136 28.7759H45.667C45.7888 28.7759 45.8932 28.8278 45.9628 28.8969C46.0325 28.9661 46.0847 29.0699 46.0847 29.1909Z" fill="#EDC38F"/>
<path d="M37.6144 38.3941L38.8333 33.4029C38.9195 33.05 39.2809 32.8168 39.6529 32.9065L40.1942 33.037C40.5662 33.1268 40.784 33.4818 40.6937 33.8515L39.4748 38.8427C39.3886 39.1957 39.0272 39.4288 38.6551 39.3391L38.1139 39.2086C37.7418 39.1189 37.5241 38.7639 37.6144 38.3941Z" fill="#EDC38F"/>
<path d="M36.2938 41.3323L37.7119 38.6541C37.8821 38.3327 38.2898 38.1941 38.6286 38.3712L39.0136 38.5725C39.3371 38.7416 39.4766 39.1467 39.2983 39.4834L37.8802 42.1617C37.71 42.4831 37.3023 42.6217 36.9635 42.4445L36.5939 42.2513C36.255 42.0741 36.1309 41.6771 36.3092 41.3404L36.2938 41.3323Z" fill="#EDC38F"/>
<path d="M36.3735 41.3655C36.8434 41.1925 37.3829 41.4346 37.5395 41.9016C37.7135 42.3685 37.4699 42.8873 37 43.0602L35.9558 43.4407C35.4859 43.6136 34.9638 43.3715 34.7897 42.9046C34.6157 42.4376 34.8594 41.9016 35.3293 41.7286L36.3735 41.3482V41.3655Z" fill="#EDC38F"/>
<path d="M51.793 38.4082C51.8801 38.7713 51.6538 39.1345 51.2883 39.221L50.7488 39.342C50.3833 39.4285 50.0179 39.2037 49.9309 38.8405L48.7126 33.8601C48.6256 33.4969 48.8518 33.1337 49.2173 33.0473L49.7568 32.9262C50.1223 32.8398 50.4878 33.0646 50.5748 33.4277L51.793 38.4082Z" fill="#EDC38F"/>
<path d="M50.801 38.3738C51.1317 38.2009 51.5494 38.3219 51.7234 38.6505L53.1331 41.331C53.3072 41.6595 53.1853 42.0746 52.8547 42.2475L52.4892 42.4377C52.1585 42.6107 51.7408 42.4896 51.5668 42.161L50.1571 39.4806C49.9831 39.152 50.1049 38.737 50.4356 38.564L50.801 38.3738Z" fill="#EDC38F"/>
<path d="M53.0461 41.3655C52.5762 41.1925 52.0367 41.4346 51.8801 41.9016C51.706 42.3685 51.9497 42.8873 52.4196 43.0602L53.4464 43.4407C53.9337 43.6136 54.4558 43.3715 54.6298 42.9046C54.8039 42.4376 54.5602 41.9016 54.0903 41.7286L53.0461 41.3482V41.3655Z" fill="#EDC38F"/>
<path d="M48.2775 28.8104C47.4944 29.018 42.2559 29.1044 41.4031 28.8104C40.5329 28.5165 40.4633 28.1533 40.4633 28.1533C41.0724 27.8074 41.4031 24.7638 41.4031 24.7638C41.4031 24.7119 41.4553 24.3142 41.4727 24.2623C41.5597 23.6743 41.699 23.121 41.9426 22.6368C42.4125 21.7375 43.2479 21.0977 44.8316 21.0977C46.4153 21.0977 47.2507 21.8067 47.738 22.7578C47.738 22.7578 48.2775 24.7638 48.2775 24.7811C48.2775 24.7811 48.6778 27.8766 49.3913 28.3608C49.3913 28.3608 49.1303 28.6202 48.2775 28.845" fill="#F19B2D"/>
<path d="M47.9468 26.0264C47.9468 28.1362 46.5546 29.8482 44.8316 29.8482C43.1087 29.8482 41.7338 28.1362 41.7338 26.0264C41.7338 25.5768 41.8034 25.1617 41.9078 24.764C42.3255 23.2768 43.4915 22.2046 44.8316 22.2046C46.1717 22.2046 47.3377 23.2768 47.7728 24.764C47.8946 25.1617 47.9468 25.5941 47.9468 26.0264Z" fill="#FAD099"/>
<path d="M43.6656 63.5354C43.6656 63.9159 43.3697 64.2098 42.9868 64.2098H41.9948C41.6119 64.2098 41.3161 63.9159 41.3161 63.5354L40.6373 44.2189C40.6373 43.8384 40.9332 43.5444 41.3161 43.5444H42.9868C43.3697 43.5444 44.3443 43.8557 44.3443 44.2189L43.6656 63.5354Z" fill="#FAD099"/>
<path d="M45.8236 63.5354C45.8236 63.9159 46.1195 64.2098 46.5024 64.2098H47.4944C47.8772 64.2098 48.1731 63.9159 48.1731 63.5354L48.8518 44.2189C48.8518 43.8384 48.556 43.5444 48.1731 43.5444H46.5024C46.1195 43.5444 45.1449 43.8557 45.1449 44.2189L45.8236 63.5354Z" fill="#FAD099"/>
<path d="M48.2775 24.7638H41.4031L41.4379 24.418C41.4379 24.418 41.4379 24.3142 41.4727 24.2623C41.5597 23.6743 41.699 23.121 41.9426 22.6368C42.4125 21.7375 43.2479 21.0977 44.8316 21.0977C46.4153 21.0977 47.2507 21.8067 47.738 22.7578C47.738 22.7578 47.7554 22.7751 47.7554 22.7924C48.0687 23.415 48.2079 24.1067 48.2775 24.7811" fill="#F19B2D"/>
<path d="M50.7488 33.3413L49.461 31.2315C49.461 31.2315 49.4262 31.1796 49.4087 31.1623L49.3217 31.0067C49.2173 30.8337 49.0433 30.73 48.8518 30.6954C48.556 30.557 48.2601 30.5225 48.0861 30.5225H41.4031C41.2465 30.5225 40.9332 30.5743 40.6548 30.6954C40.4459 30.7127 40.2371 30.8164 40.1326 31.0067L38.723 33.3413C38.5315 33.6525 38.6359 34.0676 38.9492 34.2751L40.1849 35.0187C40.3241 35.1052 40.4807 35.1225 40.6373 35.0879C40.6025 35.2262 40.5851 35.3646 40.5851 35.5029C40.5851 36.2638 41.055 36.921 41.7164 37.2322C41.96 38.0796 42.1341 38.7713 42.1341 39.0653C42.1515 40.1029 40.4285 42.1954 40.6896 45.0142C40.8636 45.3773 41.0202 45.7232 41.4031 45.7232H48.0861C48.4864 45.7232 48.6256 45.3773 48.7996 45.0142C49.0433 42.1954 47.3377 40.1029 47.3551 39.0653C47.3551 38.7713 47.5466 38.0623 47.7902 37.1804C48.4167 36.8518 48.8344 36.2292 48.8344 35.5029C48.8344 35.3646 48.817 35.2262 48.7822 35.0879C48.9389 35.1225 49.0955 35.0879 49.2521 35.0187L50.4878 34.2751C50.801 34.0849 50.9055 33.6698 50.714 33.3413" fill="#42BFB5"/>
<path d="M43.7526 67.0631C43.7526 65.1435 43.1957 63.5872 42.4995 63.5872C41.8034 63.5872 41.2465 65.1435 41.2465 67.0631C41.2465 68.9826 41.8034 68.9999 42.4995 68.9999C43.1957 68.9999 43.7526 68.9999 43.7526 67.0631Z" fill="#414141"/>
<path d="M43.944 66.3541C43.944 64.1405 43.3001 62.342 42.4995 62.342C41.699 62.342 41.055 64.1405 41.055 66.3541C41.055 68.5676 41.699 68.5849 42.4995 68.5849C43.3001 68.5849 43.944 68.5849 43.944 66.3541Z" fill="#4D4D4E"/>
<path d="M43.596 65.6969H41.4031L41.2813 54.5601H43.7178L43.596 65.6969Z" fill="#FAD099"/>
<path d="M43.596 65.6278C43.596 64.9188 43.1087 64.3308 42.4995 64.3308C41.8904 64.3308 41.4031 64.9188 41.4031 65.6278C41.4031 66.3368 41.8904 66.9248 42.4995 66.9248C43.1087 66.9248 43.596 66.3541 43.596 65.6278Z" fill="#FAD099"/>
<path d="M48.2427 67.0631C48.2427 65.1435 47.6858 63.5872 46.9897 63.5872C46.2935 63.5872 45.7366 65.1435 45.7366 67.0631C45.7366 68.9826 46.2935 68.9999 46.9897 68.9999C47.6858 68.9999 48.2427 68.9999 48.2427 67.0631Z" fill="#414141"/>
<path d="M48.4342 66.3541C48.4342 64.1405 47.7902 62.342 46.9897 62.342C46.1891 62.342 45.5452 64.1405 45.5452 66.3541C45.5452 68.5676 46.1891 68.5849 46.9897 68.5849C47.7902 68.5849 48.4342 68.5849 48.4342 66.3541Z" fill="#4D4D4E"/>
<path d="M48.0861 65.6969H45.8932L45.7714 54.5601H48.2079L48.0861 65.6969Z" fill="#FAD099"/>
<path d="M48.0861 65.6278C48.0861 64.9188 47.5988 64.3308 46.9897 64.3308C46.3805 64.3308 45.8932 64.9188 45.8932 65.6278C45.8932 66.3368 46.3805 66.9248 46.9897 66.9248C47.5988 66.9248 48.0861 66.3541 48.0861 65.6278Z" fill="#FAD099"/>
<path d="M47.4944 30.6262C47.4944 32.321 46.3457 33.7044 44.936 33.7044C43.5263 33.7044 42.3951 32.3382 42.3951 30.6262C42.3951 30.5916 42.3951 30.557 42.3951 30.5225H47.477C47.477 30.5225 47.477 30.5916 47.477 30.6262" fill="#EDC38F"/>
<path d="M48.556 42.3857H41.0028C41.0028 42.3857 39.4365 49.891 39.4365 52.0008H50.1223C50.1223 49.891 48.556 42.3857 48.556 42.3857Z" fill="#F47836"/>
<path d="M71.3024 38.1489C71.8246 38.806 72.7643 38.9098 73.4257 38.391C74.087 37.8722 74.1914 36.9383 73.6693 36.2812L69.4403 30.9722C68.9182 30.315 67.9784 30.2113 67.317 30.7301C66.6557 31.2489 66.5513 32.1827 67.0734 32.8398L71.3024 38.1489Z" fill="#FFDAAB"/>
<path d="M52.9243 38.1662C52.4022 38.8233 51.4624 38.9271 50.801 38.4083C50.1397 37.8895 50.0353 36.9557 50.5574 36.2985L54.7865 30.9895C55.3086 30.3324 56.2484 30.2286 56.9097 30.7474C57.571 31.2662 57.6755 32.2 57.1533 32.8572L52.9243 38.1662Z" fill="#FFDAAB"/>
<path d="M71.0066 32.1655L69.9972 30.9377C69.2662 29.4505 67.7347 28.4302 65.9596 28.4302H58.389C56.6138 28.4302 55.0997 29.4505 54.3514 30.9377L53.342 32.1655C52.8024 32.8227 52.9069 33.7911 53.5508 34.3272L53.9859 34.673C54.6472 35.2091 55.6218 35.1054 56.1613 34.4655L57.2578 33.1339V42.7663H67.0734V33.1339L68.1698 34.4655C68.7093 35.1227 69.6839 35.2091 70.3453 34.673L70.7803 34.3272C71.4417 33.7911 71.5461 32.8227 70.9892 32.1655" fill="#FFC712"/>
<path d="M68.6571 39.6534C68.1872 40.1895 68.2568 41.0023 68.7963 41.4692C69.3358 41.9362 70.1538 41.867 70.6237 41.3309L73.0254 38.5467C73.4953 38.0106 73.4257 37.1978 72.8862 36.7309C72.3467 36.264 71.5287 36.3331 71.0588 36.8692L68.6571 39.6534Z" fill="#FFDAAB"/>
<path d="M62.5659 28.4646L60.8603 31.733L58.5108 28.4646H62.5659Z" fill="white"/>
<path d="M61.8697 28.4475L63.8537 31.7332L66.2206 28.4648L61.8697 28.4475Z" fill="white"/>
<path d="M55.5696 39.6708C56.0395 40.2069 55.9699 41.0197 55.4304 41.4866C54.8909 41.9535 54.0729 41.8843 53.603 41.3482L51.2013 38.564C50.7314 38.0279 50.801 37.2151 51.3405 36.7482C51.8801 36.2813 52.698 36.3505 53.1679 36.8866L55.5696 39.6708Z" fill="#FFDAAB"/>
<path d="M67.1256 41.2271H57.2055V42.7834V47.6947V67.8759H60.9647L61.6609 47.6947H62.6181L63.3316 67.8759H67.0908V47.6947H67.1256V41.2271Z" fill="#957DB9"/>
<path d="M54.6124 40.7429C54.769 40.0511 55.4478 39.6015 56.1439 39.7572L57.0489 39.9474C57.7451 40.103 58.1976 40.7775 58.0409 41.4692C57.8843 42.1609 57.2056 42.5932 56.492 42.4549L55.587 42.2647C54.8909 42.109 54.4384 41.4346 54.595 40.7256" fill="#FAD099"/>
<path d="M69.6143 40.7255C69.7709 41.4173 69.3184 42.109 68.6223 42.2473L67.7173 42.4376C67.0212 42.5932 66.325 42.1436 66.1858 41.4519C66.0292 40.7601 66.4817 40.0684 67.1778 39.93L68.0828 39.7398C68.7789 39.5842 69.4751 40.0338 69.6143 40.7255Z" fill="#FAD099"/>
<path d="M63.9581 28.4128V25.9226C63.9581 25.7669 63.9059 25.6286 63.8015 25.5075C63.6797 25.3692 63.5056 25.2827 63.3142 25.2827H60.7559C60.5818 25.2827 60.4078 25.3519 60.3034 25.4729C60.199 25.594 60.1294 25.7323 60.1294 25.9226V28.4128L62.183 29.1391L63.9755 28.4128H63.9581Z" fill="#EDC38F"/>
<path d="M58.8415 22.6369C58.8415 24.9888 60.2338 26.8911 61.9567 26.8911C63.6797 26.8911 65.0546 24.9888 65.0546 22.6369C65.0546 22.1354 65.0023 21.6685 64.8805 21.2189C64.4628 19.5588 63.3142 18.3828 61.9567 18.3828C60.5992 18.3828 59.4506 19.5588 59.0329 21.2189C58.9111 21.6685 58.8589 22.1354 58.8589 22.6369" fill="#FAD099"/>
<path d="M63.6101 19.9737C63.6101 19.9737 62.0089 20.6308 59.9205 20.8902C59.5202 20.9421 59.468 23.1556 59.1025 24.6255C59.1025 24.6255 58.0235 23.2594 58.2498 21.0631C58.4934 18.8669 59.6247 17.3105 61.9219 17.518C61.9219 17.518 62.6877 17.0165 63.8885 17.3624C65.0894 17.7255 67.1256 22.3428 64.6021 24.8158C64.6021 24.8158 65.4026 22.1353 63.5927 19.9564" fill="#7E4D2E"/>
<path d="M59.4506 23.5534C59.4506 24.0203 59.2418 24.4008 58.9807 24.4008C58.7197 24.4008 58.5108 24.0203 58.5108 23.5534C58.5108 23.0865 58.7197 22.7061 58.9807 22.7061C59.2418 22.7061 59.4506 23.0865 59.4506 23.5534Z" fill="#FAD099"/>
<path d="M65.3678 23.5534C65.3678 24.0203 65.159 24.4008 64.8979 24.4008C64.6369 24.4008 64.428 24.0203 64.428 23.5534C64.428 23.0865 64.6369 22.7061 64.8979 22.7061C65.159 22.7061 65.3678 23.0865 65.3678 23.5534Z" fill="#FAD099"/>
<path d="M59.5898 21.2188C59.6247 21.1151 59.468 21.3572 58.7719 22.6715C58.7719 22.6715 58.7893 22.7579 58.8763 22.7752C59.0155 22.7925 59.0503 22.9136 59.4506 23.5534C59.4506 23.5534 59.2592 22.5158 59.5898 21.2188Z" fill="#7E4D2E"/>
<path d="M57.1882 66.5618H60.5992C61.0691 66.5618 61.452 66.9422 61.452 67.4091V68.1355C61.452 68.6024 61.0691 68.9828 60.5992 68.9828H57.1882C56.7183 68.9828 56.3354 68.6024 56.3354 68.1355V67.4091C56.3354 66.9422 56.7183 66.5618 57.1882 66.5618Z" fill="#1D2A38"/>
<path d="M63.6797 66.5618H67.0908C67.5607 66.5618 67.9436 66.9422 67.9436 67.4091V68.1355C67.9436 68.6024 67.5607 68.9828 67.0908 68.9828H63.6797C63.2098 68.9828 62.8269 68.6024 62.8269 68.1355V67.4091C62.8269 66.9422 63.2098 66.5618 63.6797 66.5618Z" fill="#1D2A38"/>
<path d="M21.0757 38.1489C21.5978 38.806 22.5376 38.9098 23.199 38.391C23.8603 37.8722 23.9647 36.9383 23.4426 36.2812L19.2135 30.9722C18.6914 30.315 17.7516 30.2113 17.0903 30.7301C16.429 31.2489 16.3246 32.1827 16.8467 32.8398L21.0757 38.1489Z" fill="#FFDAAB"/>
<path d="M2.69755 38.1662C2.17545 38.8233 1.23565 38.9271 0.574317 38.4083C-0.0870193 37.8895 -0.191441 36.9557 0.330666 36.2985L4.55973 30.9895C5.08184 30.3324 6.02164 30.2286 6.68297 30.7474C7.34431 31.2662 7.44873 32.2 6.92662 32.8572L2.69755 38.1662Z" fill="#FFDAAB"/>
<path d="M20.7799 32.1655L19.7705 30.9377C19.0395 29.4505 17.508 28.4302 15.7328 28.4302H8.16227C6.38711 28.4302 4.873 29.4505 4.12464 30.9377L3.11524 32.1655C2.57573 32.8227 2.66274 33.7911 3.32408 34.3272L3.75917 34.673C4.42051 35.2091 5.39511 35.1054 5.93462 34.4655L7.03104 33.1339V42.7663H16.8467V33.1339L17.9431 34.4655C18.4826 35.1227 19.4572 35.2091 20.1185 34.673L20.5536 34.3272C21.215 33.7911 21.3194 32.8227 20.7625 32.1655" fill="#F48893"/>
<path d="M18.4304 39.6534C17.9605 40.1895 18.0301 41.0023 18.5696 41.4692C19.1091 41.9362 19.9271 41.867 20.397 41.3309L22.7987 38.5467C23.2686 38.0106 23.199 37.1978 22.6595 36.7309C22.1199 36.264 21.302 36.3331 20.8321 36.8692L18.4304 39.6534Z" fill="#FFDAAB"/>
<path d="M12.3391 28.4646L10.6336 31.733L8.2841 28.4646H12.3391Z" fill="white"/>
<path d="M11.643 28.4475L13.627 31.7332L15.9765 28.4648L11.643 28.4475Z" fill="white"/>
<path d="M5.3429 39.6708C5.81279 40.2069 5.74318 41.0197 5.20367 41.4866C4.66416 41.9535 3.84619 41.8843 3.37629 41.3482L0.974599 38.564C0.504702 38.0279 0.574316 37.2151 1.11383 36.7482C1.65334 36.2813 2.47131 36.3505 2.9412 36.8866L5.3429 39.6708Z" fill="#FFDAAB"/>
<path d="M16.8989 41.2271H6.96143V42.7834V47.6947V67.8759H10.738L11.4341 47.6947H12.3913L13.0875 67.8759H16.8467V47.6947H16.8989V41.2271Z" fill="#957DB9"/>
<path d="M4.3857 40.7429C4.54233 40.0512 5.22107 39.6188 5.91721 39.7572L6.8222 39.9474C7.51834 40.103 7.97083 40.7775 7.8142 41.4692C7.65757 42.1609 6.97883 42.5933 6.28269 42.4549L5.3603 42.2647C4.66415 42.1091 4.22907 41.4346 4.36829 40.7429" fill="#FAD099"/>
<path d="M19.3876 40.7255C19.5442 41.4173 19.0917 42.109 18.3956 42.2473L17.4732 42.4376C16.777 42.5932 16.0809 42.1436 15.9417 41.4519C15.785 40.7601 16.2375 40.0684 16.9337 39.93L17.8387 39.7398C18.5348 39.5842 19.231 40.0338 19.3702 40.7255" fill="#FAD099"/>
<path d="M13.7314 28.4128V25.9226C13.7314 25.7669 13.6792 25.6286 13.5748 25.5075C13.453 25.3692 13.2789 25.2827 13.0875 25.2827H10.5292C10.3551 25.2827 10.1811 25.3519 10.0767 25.4729C9.95484 25.594 9.90263 25.7496 9.90263 25.9226V28.4128L11.9563 29.1391L13.7488 28.4128H13.7314Z" fill="#EDC38F"/>
<path d="M10.3725 66.5618H6.96143C6.49046 66.5618 6.10866 66.9411 6.10866 67.4091V68.1527C6.10866 68.6207 6.49046 69.0001 6.96143 69.0001H10.3725C10.8435 69.0001 11.2253 68.6207 11.2253 68.1527V67.4091C11.2253 66.9411 10.8435 66.5618 10.3725 66.5618Z" fill="#1D2A38"/>
<path d="M13.4356 66.5618H16.8467C17.3166 66.5618 17.6994 66.9422 17.6994 67.4091V68.1355C17.6994 68.6024 17.3166 68.9828 16.8467 68.9828H13.4356C12.9657 68.9828 12.5828 68.6024 12.5828 68.1355V67.4091C12.5828 66.9422 12.9657 66.5618 13.4356 66.5618Z" fill="#1D2A38"/>
<path d="M15.0019 23.1385C15.0019 25.4903 13.6096 27.3926 11.904 27.3926C10.1985 27.3926 8.80621 25.4903 8.80621 23.1385C8.80621 22.6369 8.87582 22.17 8.98024 21.7377C9.39793 20.0776 10.5466 18.9016 11.904 18.9016C13.2615 18.9016 14.4102 20.0776 14.8278 21.7377C14.9497 22.1873 15.0019 22.6542 15.0019 23.1385Z" fill="#FAD099"/>
<path d="M10.2333 19.645C10.2333 19.645 11.3297 21.2706 13.6792 21.6857C15.437 22.0142 14.3753 23.6398 14.7408 25.1097C14.7408 25.1097 15.8372 23.7435 15.5936 21.5473C15.3499 19.3684 14.2187 17.7947 11.9214 18.0022C11.9214 18.0022 11.1557 17.4834 9.95484 17.8466C8.75399 18.2097 6.71778 22.827 9.24129 25.2999C9.24129 25.2999 7.86641 21.4435 10.2507 19.6105" fill="#F19B2D"/>
<path d="M14.3928 24.0549C14.3928 24.5218 14.6016 24.9023 14.8626 24.9023C15.1237 24.9023 15.3325 24.5218 15.3325 24.0549C15.3325 23.588 15.1237 23.2075 14.8626 23.2075C14.6016 23.2075 14.3928 23.588 14.3928 24.0549Z" fill="#FAD099"/>
<path d="M8.45814 24.0549C8.45814 24.5218 8.66698 24.9023 8.92803 24.9023C9.18909 24.9023 9.39793 24.5218 9.39793 24.0549C9.39793 23.588 9.18909 23.2075 8.92803 23.2075C8.66698 23.2075 8.45814 23.588 8.45814 24.0549Z" fill="#FAD099"/>
<path d="M14.3231 21.7203C14.2883 21.6166 14.445 21.8587 15.1411 23.1729C15.1411 23.1729 15.1237 23.2594 15.0367 23.2767C14.8975 23.294 14.8627 23.415 14.4624 24.0549C14.4624 24.0549 14.6538 23.0173 14.3231 21.7203Z" fill="#F19B2D"/>
<path d="M36.4779 20.6135C37 21.2706 37.9398 21.3744 38.6011 20.8556C39.2625 20.3368 39.3669 19.4029 38.8448 18.7458L34.6157 13.4368C34.0936 12.7796 33.1538 12.6759 32.4925 13.1947C31.8311 13.7135 31.7267 14.6473 32.2488 15.3044L36.4779 20.6135Z" fill="#FFDAAB"/>
<path d="M18.0997 20.6308C17.5776 21.2879 16.6204 21.3917 15.9765 20.8729C15.3151 20.3541 15.2107 19.4203 15.7328 18.7631L19.9619 13.4541C20.484 12.797 21.4238 12.6932 22.0851 13.212C22.7465 13.7308 22.8509 14.6646 22.3288 15.3218L18.0997 20.6308Z" fill="#FFDAAB"/>
<path d="M36.182 14.6301L35.1726 13.4023C34.4417 11.9151 32.9102 10.8948 31.135 10.8948H23.5644C21.7893 10.8948 20.2752 11.9151 19.5268 13.4023L18.5174 14.6301C17.9779 15.2873 18.0649 16.2557 18.7262 16.7918L19.1613 17.1376C19.8227 17.6737 20.7973 17.57 21.3368 16.9301L22.4332 15.5985V25.2309H32.2488V15.5985L33.3453 16.9301C33.8848 17.5873 34.8594 17.6737 35.5207 17.1376L35.9558 16.7918C36.6171 16.2557 36.7215 15.2873 36.1646 14.6301" fill="#7EBCE7"/>
<path d="M33.8325 22.118C33.3627 22.6541 33.4323 23.4669 33.9718 23.9338C34.5113 24.4008 35.3293 24.3316 35.7991 23.7955L38.2008 21.0113C38.6707 20.4752 38.6011 19.6624 38.0616 19.1955C37.5221 18.7286 36.7041 18.7977 36.2342 19.3338L33.8325 22.118Z" fill="#FFDAAB"/>
<path d="M20.7451 22.1354C21.215 22.6715 21.1453 23.4843 20.6058 23.9512C20.0663 24.4181 19.2484 24.3489 18.7785 23.8128L16.3768 21.0286C15.9069 20.4925 15.9765 19.6797 16.516 19.2128C17.0555 18.7459 17.8735 18.8151 18.3434 19.3512L20.7451 22.1354Z" fill="#FFDAAB"/>
<path d="M32.301 23.6917H22.381V25.248V30.1593V50.3405H26.1402L26.8537 30.1593H27.7935L28.5071 50.3405H32.2662V30.1593H32.301V23.6917Z" fill="#F47836"/>
<path d="M19.7879 23.2075C19.9445 22.5157 20.6232 22.0661 21.3368 22.2218L22.2418 22.412C22.9379 22.5676 23.3904 23.2421 23.2338 23.9338C23.0771 24.6255 22.3984 25.0578 21.7023 24.9195L20.7799 24.7293C20.0837 24.5736 19.6486 23.8992 19.7879 23.2075Z" fill="#FAD099"/>
<path d="M34.8071 23.173C34.9638 23.8648 34.5113 24.5565 33.8151 24.6948L32.9102 24.8851C32.214 25.0407 31.5179 24.5911 31.3786 23.8994C31.222 23.2076 31.6745 22.5159 32.3706 22.3776L33.2756 22.1873C33.9718 22.0317 34.6679 22.4813 34.8071 23.173Z" fill="#FAD099"/>
<path d="M25.7747 49.0264H22.3636C21.8926 49.0264 21.5108 49.4057 21.5108 49.8737V50.6173C21.5108 51.0853 21.8926 51.4647 22.3636 51.4647H25.7747C26.2457 51.4647 26.6275 51.0853 26.6275 50.6173V49.8737C26.6275 49.4057 26.2457 49.0264 25.7747 49.0264Z" fill="#1D2A38"/>
<path d="M32.2662 49.0264H28.8551C28.3841 49.0264 28.0023 49.4057 28.0023 49.8737V50.6173C28.0023 51.0853 28.3841 51.4647 28.8551 51.4647H32.2662C32.7372 51.4647 33.119 51.0853 33.119 50.6173V49.8737C33.119 49.4057 32.7372 49.0264 32.2662 49.0264Z" fill="#1D2A38"/>
<path d="M28.2634 12.7105C28.2634 12.9008 28.1242 13.0391 27.9501 13.0391H26.6797C26.5056 13.0391 26.3664 12.8835 26.3664 12.7105V11.9323C26.3664 11.7421 26.5056 11.6038 26.6797 11.6038H27.9501C28.1242 11.6038 28.2634 11.7594 28.2634 11.9323V12.7105Z" fill="#1D2A38"/>
<path d="M26.9059 12.9526L26.0183 19.5759L27.2714 21.0286L28.5767 19.5759L27.5673 12.9526H26.9059Z" fill="#1D2A38"/>
<path d="M27.7413 10.9294L26.0357 14.1806L23.6863 10.9294H27.7413Z" fill="white"/>
<path d="M27.0626 10.9121L29.0466 14.1805L31.3961 10.9294L27.0626 10.9121Z" fill="white"/>
<path d="M29.1336 10.8774V8.38716C29.1336 8.23152 29.0814 8.07589 28.9769 7.97213C28.8551 7.83378 28.6811 7.74731 28.4896 7.74731H25.9313C25.7573 7.74731 25.5833 7.81649 25.4788 7.93754C25.357 8.05859 25.3048 8.21423 25.3048 8.38716V10.8774L27.3584 11.6037L29.151 10.8774H29.1336Z" fill="#EDC38F"/>
<path d="M24.0169 5.3782C24.0169 7.73008 25.4092 9.63233 27.1322 9.63233C28.8551 9.63233 30.23 7.73008 30.23 5.3782C30.23 4.8767 30.1778 4.40978 30.056 3.97745C29.6383 2.3173 28.4723 1.14136 27.1322 1.14136C25.7921 1.14136 24.6261 2.3173 24.2084 3.97745C24.0866 4.42707 24.0343 4.89399 24.0343 5.3782" fill="#FAD099"/>
<path d="M28.7855 1.90217C28.7855 1.90217 26.349 2.38638 25.096 3.64879C23.8429 4.91119 24.6435 5.9142 24.278 7.38412C24.278 7.38412 23.199 6.01796 23.4252 3.82172C23.6689 1.62548 24.8001 0.0690868 27.0974 0.276606C27.0974 0.276606 27.8631 -0.242191 29.064 0.120967C30.2648 0.484124 32.301 5.10142 29.7775 7.57435C29.7775 7.57435 31.1524 3.71796 28.7681 1.88488" fill="#9C603E"/>
<path d="M24.6261 6.29488C24.6261 6.7618 24.4172 7.14225 24.1562 7.14225C23.8951 7.14225 23.6863 6.7618 23.6863 6.29488C23.6863 5.82796 23.8951 5.44751 24.1562 5.44751C24.4172 5.44751 24.6261 5.82796 24.6261 6.29488Z" fill="#FAD099"/>
<path d="M30.5607 6.29488C30.5607 6.7618 30.3518 7.14225 30.0908 7.14225C29.8297 7.14225 29.6209 6.7618 29.6209 6.29488C29.6209 5.82796 29.8297 5.44751 30.0908 5.44751C30.3518 5.44751 30.5607 5.82796 30.5607 6.29488Z" fill="#FAD099"/>
<path d="M24.6957 3.97739C24.7305 3.87363 24.5738 4.11574 23.8777 5.43003C23.8777 5.43003 23.8951 5.51649 23.9821 5.53378C24.1213 5.55108 24.1562 5.67213 24.5564 6.31198C24.5564 6.31198 24.365 5.27439 24.6957 3.97739Z" fill="#9C603E"/>
<path d="M25.1134 3.63159C25.1134 3.63159 24.9393 4.08122 24.8349 4.8767C24.8349 4.8767 24.4346 4.42708 24.4694 4.06392C24.5042 3.71806 25.1134 3.63159 25.1134 3.63159Z" fill="#9C603E"/>
<path d="M28.7855 1.90234C28.6637 1.91964 26.9581 3.07828 26.262 3.25122L26.6101 2.31738L28.7855 1.91964V1.90234Z" fill="#9C603E"/>
</g>
</g>
<defs>
<clipPath id="clip0_142_1279">
<rect width="74" height="69" fill="white"/>
</clipPath>
</defs>
</svg>
