<svg width="78" height="78" viewBox="0 0 78 78" fill="none" xmlns="http://www.w3.org/2000/svg">
<g clip-path="url(#clip0_142_1898)">
<path d="M10.8415 35.9045V38.2604V45.7116V76.3199H16.5282L17.6105 45.7116H19.0414L20.1237 76.3199H25.8104V45.7116H25.8655V35.9045H10.8415Z" fill="#957DB9"/>
<path d="M4.95295 31.1927C3.99904 32.3981 2.25633 32.5807 1.06395 31.6493C-0.146772 30.6996 -0.348559 28.9647 0.605345 27.7776L7.02585 19.3585C7.97976 18.1532 11.0616 16.6008 12.254 17.5505C13.4647 18.5001 13.6665 20.2351 12.7126 21.4404L4.95295 31.211V31.1927Z" fill="#7EBCE7"/>
<path d="M31.7173 22.171L30.1947 20.3265C29.0757 18.0802 26.7827 16.5278 24.0861 16.5278H12.6209C9.9426 16.5278 7.63122 18.0802 6.53056 20.3265L5.00798 22.171C4.18249 23.1755 4.32924 24.6365 5.33818 25.4583L5.99857 25.9879C6.98917 26.7915 8.47505 26.6636 9.2822 25.6592L10.7314 34.4435L9.74081 47.7936H27.0028L26.3057 34.3705L27.4614 25.6774C28.2686 26.6819 29.7545 26.8097 30.745 26.0062L31.4054 25.4766C32.396 24.6547 32.5428 23.1937 31.7356 22.1893" fill="#7EBCE7"/>
<path d="M9.72251 32.8546C10.6948 33.6946 10.7681 35.1557 9.9243 36.1053C9.08046 37.055 7.61292 37.1463 6.65901 36.3062L1.70605 31.9597C0.752144 31.1196 0.660423 29.6586 1.50426 28.7089C2.3481 27.7593 3.81564 27.668 4.76955 28.508L9.72251 32.8546Z" fill="#7EBCE7"/>
<path d="M32.6162 32.051C33.5701 33.2563 35.3128 33.439 36.5052 32.5076C37.7159 31.5579 37.9177 29.8229 36.9638 28.6359L29.4426 19.1758C28.4887 17.9704 26.5075 17.4774 25.2968 18.427C24.0861 19.3767 23.8843 21.1116 24.8382 22.317L32.5978 32.0875L32.6162 32.051Z" fill="#7EBCE7"/>
<path d="M32.7446 38.0228C32.7997 39.4656 34.0287 40.5614 35.4596 40.5066C36.8904 40.4518 38.0094 39.2282 37.9544 37.8037L37.6242 30.4073C37.5692 28.9828 36.3401 27.8688 34.9092 27.9236C33.46 27.9966 32.341 29.202 32.4144 30.6447L32.7446 38.0411V38.0228Z" fill="#7EBCE7"/>
<path d="M7.9064 35.74C8.14487 34.6808 9.17215 34.0234 10.2361 34.2425L11.6119 34.5347C12.6759 34.7539 13.3363 35.7948 13.1162 36.8541C12.896 37.9133 11.8504 38.5708 10.7865 38.3516L9.41063 38.0594C8.365 37.822 7.68626 36.7993 7.9064 35.74Z" fill="#FAD099"/>
<path d="M16.3265 74.311H11.1717C10.4524 74.311 9.86926 74.8916 9.86926 75.6077V76.7035C9.86926 77.4196 10.4524 78.0001 11.1717 78.0001H16.3265C17.0458 78.0001 17.6289 77.4196 17.6289 76.7035V75.6077C17.6289 74.8916 17.0458 74.311 16.3265 74.311Z" fill="#1D2A38"/>
<path d="M20.9859 74.311H26.1407C26.8561 74.311 27.4431 74.8954 27.4431 75.6077V76.7217C27.4431 77.434 26.8561 78.0184 26.1407 78.0184H20.9859C20.2705 78.0184 19.6835 77.434 19.6835 76.7217V75.626C19.6835 74.9137 20.2705 74.3293 20.9859 74.3293V74.311Z" fill="#1D2A38"/>
<path d="M14.4186 16.6007L18.913 41.4745L22.0499 16.5459L14.4186 16.6007Z" fill="#ADD1EF"/>
<path d="M19.7935 19.5047C19.7935 19.7421 19.6284 19.9247 19.4266 19.9247H17.9407C17.739 19.9247 17.5739 19.7421 17.5739 19.5047V18.5367C17.5739 18.2993 17.739 18.1167 17.9407 18.1167H19.4266C19.6284 18.1167 19.7935 18.2993 19.7935 18.5367V19.5047Z" fill="#C96428"/>
<path d="M18.4177 18.1166L16.6933 21.4404L14.5104 16.546L15.4459 16.4912L18.4177 18.1166Z" fill="#7EBCE7"/>
<path d="M18.4177 18.1166L19.8302 21.4404L22.0498 16.546L21.261 16.4912L18.4177 18.1166Z" fill="#7EBCE7"/>
<path d="M18.2159 19.7969L17.1703 32.3434L18.7479 35.6306L20.1604 32.3434L18.9864 19.7969H18.2159Z" fill="#C96428"/>
<path d="M11.0616 22.6275H11.08L18.913 41.4746L14.4187 16.6008L12.7677 17.7149L11.08 22.6093L11.0616 22.6275Z" fill="#6EA4CA"/>
<path d="M25.6453 22.4265H25.627L18.913 41.4745L22.0498 16.5459L23.7559 17.5869L25.627 22.4265H25.6453Z" fill="#6EA4CA"/>
<path d="M21.2611 16.4912V12.7108C21.2611 12.4734 21.1693 12.2543 21.0226 12.0716C20.8391 11.8708 20.5823 11.7429 20.2888 11.7429H16.4182C16.143 11.7429 15.9045 11.8525 15.7211 12.0351C15.556 12.2178 15.4459 12.4369 15.4459 12.7108V16.4912L18.4177 18.1166L21.2611 16.4912Z" fill="#EDC38F"/>
<path d="M13.5198 8.16353C13.5198 11.7248 15.6294 14.6103 18.2343 14.6103C20.8392 14.6103 22.9304 11.7248 22.9304 8.16353C22.9304 7.41476 22.8387 6.70251 22.6552 6.02679C22.0132 3.50654 20.2705 1.7168 18.2343 1.7168C16.198 1.7168 14.437 3.50654 13.7949 6.02679C13.6115 6.70251 13.5198 7.41476 13.5198 8.16353Z" fill="#FAD099"/>
<path d="M20.7474 2.88558C20.7474 2.88558 17.0602 3.61609 15.1707 5.51541C13.2813 7.43299 14.4737 8.94879 13.9417 11.1951C13.9417 11.1951 12.2907 9.11316 12.6576 5.78935C13.0245 2.46554 14.7305 0.109646 18.2159 0.420112C18.2159 0.420112 19.3716 -0.346921 21.1877 0.20096C23.0221 0.748841 26.0856 7.76172 22.27 11.5056C22.27 11.5056 24.3429 5.66151 20.7291 2.88558" fill="#3F2F2F"/>
<path d="M14.437 9.55134C14.437 10.2636 14.1251 10.8297 13.7215 10.8297C13.318 10.8297 13.0061 10.2636 13.0061 9.55134C13.0061 8.83909 13.318 8.27295 13.7215 8.27295C14.1251 8.27295 14.437 8.83909 14.437 9.55134Z" fill="#FAD099"/>
<path d="M23.4074 9.55134C23.4074 10.2636 23.0955 10.8297 22.6919 10.8297C22.2884 10.8297 21.9765 10.2636 21.9765 9.55134C21.9765 8.83909 22.2884 8.27295 22.6919 8.27295C23.0955 8.27295 23.4074 8.83909 23.4074 9.55134Z" fill="#FAD099"/>
<path d="M14.5471 6.02673C14.5837 5.86237 14.3636 6.24589 13.318 8.21826C13.318 8.21826 13.3547 8.3461 13.4831 8.36436C13.6849 8.40089 13.7399 8.58351 14.3453 9.55144C14.3453 9.55144 14.0518 7.98084 14.5471 6.02673Z" fill="#3F2F2F"/>
<path d="M15.1707 5.51538C15.1707 5.51538 14.8956 6.1911 14.7488 7.39644C14.7488 7.39644 14.1435 6.70246 14.1985 6.17284C14.2535 5.64322 15.1707 5.51538 15.1707 5.51538Z" fill="#3F2F2F"/>
<path d="M20.7474 2.8855C20.564 2.92202 17.9774 4.67524 16.9318 4.91266L17.4455 3.48817L20.7474 2.8855Z" fill="#3F2F2F"/>
<path d="M43.9163 54.5507C43.9163 54.989 43.5677 55.8473 43.1275 55.8473H24.7465C24.3062 55.8473 23.9393 54.989 23.9393 54.5507L24.6914 43.8487C24.6914 43.4104 25.0583 43.0452 25.4986 43.0452H42.3754C42.8156 43.0452 43.1825 43.3922 43.1825 43.8487L43.9346 54.5507H43.9163Z" fill="#5D2D13"/>
<path d="M25.4986 43.0452H42.3753C42.8156 43.0452 43.1825 43.4104 43.1825 43.8487V55.062C43.1825 55.5003 42.834 55.8656 42.3753 55.8656H25.4986C25.0583 55.8656 24.7098 55.5186 24.7098 55.0803V43.867C24.7098 43.4287 25.0767 43.0634 25.5169 43.0634L25.4986 43.0452Z" fill="#7E4D2E"/>
<path d="M36.5235 44.9628H31.3321C30.6167 44.9628 30.0297 44.3784 30.0297 43.6662V42.0408C30.0297 41.3285 30.6167 40.7441 31.3321 40.7441H36.5235C37.239 40.7441 37.826 41.3285 37.826 42.0408V43.6662C37.826 44.3784 37.239 44.9628 36.5235 44.9628ZM31.3321 41.7486C31.167 41.7486 31.0386 41.8764 31.0386 42.0408V43.6662C31.0386 43.8305 31.167 43.9584 31.3321 43.9584H36.5235C36.6886 43.9584 36.8171 43.8305 36.8171 43.6662V42.0408C36.8171 41.8764 36.6886 41.7486 36.5235 41.7486H31.3321Z" fill="#6D3D1F"/>
<path d="M25.4986 43.0635H42.3754C42.8156 43.0635 43.1825 43.4287 43.1825 43.867V49.0902C43.1825 49.5285 42.834 49.8755 42.3937 49.8755H25.517C25.0767 49.8755 24.7281 49.5285 24.7281 49.0902V43.867C24.7281 43.4287 25.0767 43.0635 25.5353 43.0635H25.4986Z" fill="#8E5D3E"/>
<path d="M35.4229 50.058C35.4229 50.3867 35.1477 50.6607 34.8175 50.6607H33.0381C32.7079 50.6607 32.4327 50.3867 32.4327 50.058C32.4327 49.7293 32.7079 49.4553 33.0381 49.4553H34.8175C35.1477 49.4553 35.4229 49.7293 35.4229 50.058Z" fill="#9CAAB8"/>
<path d="M34.9276 49.6746H33.405C33.2632 49.6746 33.1482 49.789 33.1482 49.9302V50.0215C33.1482 50.1628 33.2632 50.2772 33.405 50.2772H34.9276C35.0694 50.2772 35.1844 50.1628 35.1844 50.0215V49.9302C35.1844 49.789 35.0694 49.6746 34.9276 49.6746Z" fill="white"/>
<path d="M32.3227 42.0956C31.5889 41.3103 31.6439 40.0684 32.4327 39.3379L33.4784 38.3882C34.2672 37.6577 35.5146 37.6943 36.2483 38.4978C36.9821 39.2831 36.9271 40.525 36.1383 41.2555L35.111 42.2052C34.3222 42.9357 33.0748 42.8809 32.341 42.0956" fill="#FAD099"/>
<path d="M65.9111 35.9045H50.8871V38.2604V45.7116V76.3199H56.5738L57.6561 45.7116H59.087L60.1693 76.3199H65.856V45.7116H65.9111V35.9045Z" fill="#F47836"/>
<path d="M44.9986 31.1927C44.0447 32.3981 42.302 32.5807 41.1096 31.6493C39.8989 30.6996 39.6971 28.9647 40.651 27.7776L47.0715 19.3585C48.0254 18.1532 51.1073 16.6008 52.318 17.5505C53.5287 18.5001 53.7305 20.2351 52.7766 21.4404L45.0169 31.211L44.9986 31.1927Z" fill="#B292C4"/>
<path d="M71.7629 22.171L70.2403 20.3265C69.1213 18.0802 66.8283 16.5278 64.1317 16.5278H52.6665C49.9699 16.5278 47.6768 18.0802 46.5578 20.3265L45.0353 22.171C44.2098 23.1755 44.3565 24.6365 45.3655 25.4583L46.0259 25.9879C47.0164 26.7915 48.5023 26.6636 49.3095 25.6592L50.7587 34.4435L49.7681 47.7936H67.0301L66.333 34.3705L67.4887 25.6774C68.3142 26.6819 69.7817 26.8097 70.7723 26.0062L71.4327 25.4766C72.4233 24.6547 72.5701 23.1937 71.7629 22.1893" fill="#B292C4"/>
<path d="M49.7681 32.8546C50.722 33.6946 50.8137 35.1557 49.9699 36.1053C49.1261 37.055 47.6585 37.1463 46.7046 36.3062L41.7516 31.9597C40.7977 31.1196 40.706 29.6586 41.5499 28.7089C42.3937 27.7593 43.8612 27.668 44.8151 28.508L49.7681 32.8546Z" fill="#B292C4"/>
<path d="M72.6618 32.051C73.6157 33.2563 75.3584 33.439 76.5508 32.5076C77.7615 31.5579 77.9633 29.8229 77.0094 28.6359L69.4882 19.1758C68.5343 17.9704 66.5531 17.4774 65.3424 18.427C64.15 19.3767 63.9299 21.1116 64.8838 22.317L72.6434 32.0875L72.6618 32.051Z" fill="#B292C4"/>
<path d="M72.7902 38.0228C72.8452 39.4656 74.0743 40.5614 75.5051 40.5066C76.936 40.4518 78.055 39.2282 78 37.8037L77.6698 30.4073C77.6147 28.9828 76.3857 27.8688 74.9548 27.9236C73.5056 27.9966 72.405 29.202 72.46 30.6447L72.7902 38.0411V38.0228Z" fill="#B292C4"/>
<path d="M47.952 35.74C48.1905 34.6808 49.2178 34.0234 50.2818 34.2425L51.6576 34.5347C52.7216 34.7539 53.382 35.7948 53.1618 36.8541C52.9417 37.9133 51.8961 38.5708 50.8321 38.3516L49.4563 38.0594C48.3923 37.822 47.7319 36.7993 47.952 35.74Z" fill="#FAD099"/>
<path d="M51.2173 74.311H56.3721C57.0875 74.311 57.6745 74.8954 57.6745 75.6077V76.7217C57.6745 77.434 57.0875 78.0184 56.3721 78.0184H51.2173C50.5019 78.0184 49.9149 77.434 49.9149 76.7217V75.6077C49.9149 74.8954 50.5019 74.311 51.2173 74.311Z" fill="#F47836"/>
<path d="M61.0315 74.311H66.1863C66.9017 74.311 67.4887 74.8954 67.4887 75.6077V76.7217C67.4887 77.434 66.9017 78.0184 66.1863 78.0184H61.0315C60.3161 78.0184 59.7291 77.434 59.7291 76.7217V75.6077C59.7291 74.8954 60.3161 74.311 61.0315 74.311Z" fill="#F47836"/>
<path d="M54.4642 16.6007L58.9769 41.4745L62.1138 16.5459L54.4642 16.6007Z" fill="white"/>
<path d="M59.5273 19.5047C59.5273 19.7421 59.3622 19.9247 59.1604 19.9247H57.6745C57.4727 19.9247 57.3076 19.7421 57.3076 19.5047V18.5367C57.3076 18.2993 57.4727 18.1167 57.6745 18.1167H59.1604C59.3622 18.1167 59.5273 18.2993 59.5273 18.5367V19.5047Z" fill="#F47836"/>
<path d="M58.4633 18.1166L56.7389 21.4404L54.556 16.546L55.4915 16.4912L58.4633 18.1166Z" fill="#E6ECF1"/>
<path d="M58.4633 18.1166L59.8758 21.4404L62.0955 16.546L61.3067 16.4912L58.4633 18.1166Z" fill="#E6ECF1"/>
<path d="M58.0047 19.7969L56.6839 32.1607L58.8669 35.6306L60.6096 31.9416L58.7752 19.7969H58.0047Z" fill="#F47836"/>
<path d="M51.1256 22.6275L58.9586 41.4746L54.4643 16.6008L52.8133 17.7149L51.1256 22.6093V22.6275Z" fill="#957DB9"/>
<path d="M65.691 22.4265H65.6726L58.9586 41.4745L62.0955 16.5459L63.8015 17.5869L65.6726 22.4265H65.691Z" fill="#957DB9"/>
<path d="M61.3067 16.4912V12.7108C61.3067 12.4734 61.2149 12.2543 61.0682 12.0716C60.8847 11.8708 60.6279 11.7429 60.3344 11.7429H56.4638C56.1886 11.7429 55.9501 11.8525 55.7667 12.0351C55.6016 12.2178 55.4915 12.4369 55.4915 12.7108V16.4912L58.4633 18.1166L61.3067 16.4912Z" fill="#EDC38F"/>
<path d="M53.5654 8.16353C53.5654 11.7248 55.675 14.6103 58.2799 14.6103C60.8847 14.6103 62.976 11.7248 62.976 8.16353C62.976 7.41476 62.8843 6.70251 62.7008 6.02679C62.0588 3.50654 60.3161 1.7168 58.2799 1.7168C56.2436 1.7168 54.4826 3.50654 53.8405 6.02679C53.6571 6.70251 53.5654 7.41476 53.5654 8.16353Z" fill="#FAD099"/>
<path d="M60.7931 2.88558C60.7931 2.88558 57.1059 3.61609 55.2164 5.51541C53.3269 7.43299 54.5193 8.94879 53.9873 11.1951C53.9873 11.1951 52.3363 9.11316 52.7032 5.78935C53.0701 2.46554 54.7761 0.109646 58.2615 0.420112C58.2615 0.420112 59.4172 -0.346921 61.2517 0.20096C63.0861 0.748841 66.1496 7.76172 62.334 11.5056C62.334 11.5056 64.4069 5.66151 60.7931 2.88558Z" fill="#9C603E"/>
<path d="M54.5009 9.55134C54.5009 10.2636 54.1891 10.8297 53.7855 10.8297C53.3819 10.8297 53.0701 10.2636 53.0701 9.55134C53.0701 8.83909 53.3819 8.27295 53.7855 8.27295C54.1891 8.27295 54.5009 8.83909 54.5009 9.55134Z" fill="#FAD099"/>
<path d="M63.4529 9.55134C63.4529 10.2636 63.1411 10.8297 62.7375 10.8297C62.3339 10.8297 62.0221 10.2636 62.0221 9.55134C62.0221 8.83909 62.3339 8.27295 62.7375 8.27295C63.1411 8.27295 63.4529 8.83909 63.4529 9.55134Z" fill="#FAD099"/>
<path d="M54.5927 6.02673C54.6293 5.86237 54.4092 6.24589 53.3636 8.21826C53.3636 8.21826 53.4003 8.3461 53.5287 8.36436C53.7305 8.40089 53.7855 8.58351 54.3909 9.55144C54.3909 9.55144 54.0974 7.98084 54.5927 6.02673Z" fill="#9C603E"/>
<path d="M55.2164 5.51538C55.2164 5.51538 54.9412 6.1911 54.7945 7.39644C54.7945 7.39644 54.1891 6.70246 54.2441 6.17284C54.2992 5.64322 55.2164 5.51538 55.2164 5.51538Z" fill="#9C603E"/>
<path d="M60.793 2.8855C60.6096 2.92202 58.023 4.67524 56.9774 4.91266L57.4911 3.48817L60.7747 2.8855H60.793Z" fill="#9C603E"/>
<path d="M67.1035 75.6258C67.1035 75.8266 66.9384 75.991 66.7366 75.991H63.4896C63.2878 75.991 63.1227 75.8266 63.1227 75.6258C63.1227 75.4249 63.2878 75.2605 63.4896 75.2605H66.7366C66.9384 75.2605 67.1035 75.4249 67.1035 75.6258Z" fill="white"/>
<path d="M56.7206 75.6258C56.7206 75.8266 56.5555 75.991 56.3537 75.991H53.1068C52.905 75.991 52.7399 75.8266 52.7399 75.6258C52.7399 75.4249 52.905 75.2605 53.1068 75.2605H56.3537C56.5555 75.2605 56.7206 75.4249 56.7206 75.6258Z" fill="white"/>
<path d="M72.2949 50.6973L67.0668 49.3093C67.0668 49.3093 66.9934 49.2545 67.0117 49.1997L70.0752 37.8038C70.0752 37.8038 70.1303 37.7308 70.1853 37.749L75.4134 39.137C75.4134 39.137 75.4868 39.1918 75.4685 39.2466L72.405 50.6425C72.405 50.6425 72.3499 50.7155 72.2949 50.6973Z" fill="#B3D59B"/>
<path d="M72.1482 46.0403C72.6618 45.8029 73.0837 45.3463 73.2305 44.7619C73.3956 44.1775 73.2671 43.5748 72.937 43.1C72.6801 42.7347 72.2949 42.4425 71.818 42.3329C70.754 42.059 69.6533 42.6799 69.3782 43.7392C69.103 44.7984 69.7267 45.8759 70.7907 46.1681C71.2676 46.296 71.7262 46.2412 72.1482 46.0585" fill="#6F9E4D"/>
<path d="M71.4144 44.5063L71.5978 44.3967C71.7446 44.3054 71.873 44.2871 71.983 44.3237C72.0748 44.3419 72.0931 44.3784 72.1115 44.3784C72.1115 44.3784 72.1115 44.3967 72.1115 44.4515C72.1115 44.4515 72.1115 44.488 72.0564 44.488C72.0197 44.488 71.9464 44.488 71.7996 44.4515L71.6529 44.415C71.6529 44.415 71.5611 44.415 71.5428 44.4698L71.4694 44.7437C71.4694 44.7437 71.4694 44.835 71.5244 44.8533L71.6345 44.8898C71.983 44.9811 72.2399 44.9629 72.3683 44.835C72.405 44.8168 72.4233 44.7802 72.4417 44.7437L72.7168 44.8168C72.7168 44.8168 72.8085 44.8168 72.8269 44.7437L72.8819 44.5611C72.8819 44.5611 72.8819 44.4698 72.8269 44.4515L72.5701 44.3784C72.5701 44.1776 72.4967 43.9584 72.0931 43.8488C71.8546 43.794 71.6162 43.8306 71.3593 43.9767C71.3593 43.9767 71.3226 43.9949 71.2676 44.0315C71.2126 44.068 71.1942 44.0862 71.1759 44.0862C71.0108 44.1776 70.8824 44.2141 70.754 44.1776C70.6439 44.141 70.6072 44.1228 70.6072 44.1045C70.6072 44.1045 70.6072 44.0862 70.6072 44.0497C70.6072 43.9949 70.7356 43.9949 70.9191 44.0497L71.0842 44.0862C71.0842 44.0862 71.1759 44.0862 71.1942 44.0315L71.2676 43.7575C71.2676 43.7575 71.2676 43.6662 71.2126 43.6479L71.0475 43.6114C70.809 43.5566 70.6256 43.5384 70.4972 43.6114C70.3871 43.6662 70.3137 43.7393 70.2587 43.8306L69.9835 43.7575C69.9835 43.7575 69.8918 43.7575 69.8735 43.8123L69.8184 43.9949C69.8184 43.9949 69.8368 44.0862 69.8735 44.1045L70.1486 44.1776C70.1486 44.3602 70.2587 44.5793 70.6256 44.6889C70.8824 44.762 71.1392 44.7072 71.4144 44.5428" fill="#B3D59B"/>
<path d="M69.3965 42.2416C69.5433 41.6571 69.9652 41.1823 70.5155 40.9266C70.5522 40.9266 70.5706 40.8901 70.5706 40.8536L70.699 40.3788C70.699 40.3788 70.7907 40.4153 70.8457 40.4335C71.3961 40.5796 71.9831 40.2509 72.1298 39.703C72.1665 39.5935 72.1665 39.4839 72.1665 39.3743L72.8636 39.5569C72.8086 39.6482 72.7535 39.7578 72.7169 39.8674C72.5701 40.4335 72.9003 40.9997 73.4506 41.1458C73.5057 41.1458 73.5607 41.1641 73.6157 41.1641L73.4873 41.6389C73.4873 41.6389 73.4873 41.7119 73.4873 41.7302C73.8359 42.2233 73.9459 42.8442 73.7992 43.4286C73.7992 43.4834 73.8175 43.5565 73.8725 43.5747C73.9276 43.5747 74.001 43.5565 74.001 43.5017L75.0282 39.6665C75.0649 39.5387 74.9915 39.4291 74.8631 39.3926L74.6063 39.3195L74.3312 39.2465L70.9741 38.3516L70.809 38.3151L70.4422 38.2238C70.3138 38.1872 70.2037 38.2603 70.167 38.3881L69.1397 42.2233C69.1397 42.2233 69.1581 42.3511 69.2131 42.3511C69.2681 42.3511 69.3415 42.3329 69.3415 42.2781" fill="#6F9E4D"/>
<path d="M72.2399 50.186L73.2672 46.3508C73.2672 46.3508 73.2488 46.223 73.1938 46.2047C73.1388 46.2047 73.0654 46.223 73.047 46.2778C72.9003 46.8622 72.4784 47.337 71.9464 47.5927C71.9097 47.5927 71.8913 47.6292 71.8913 47.6657L71.7629 48.1406C71.7629 48.1406 71.6712 48.104 71.6162 48.0858C71.0658 47.9397 70.4788 48.2684 70.3321 48.8163C70.2954 48.9258 70.2954 49.0354 70.2954 49.1633L69.5983 48.9806C69.6533 48.8893 69.7084 48.7797 69.7451 48.6702C69.8918 48.104 69.5616 47.5379 69.0113 47.3918C68.9562 47.3918 68.9012 47.3735 68.8462 47.3553L68.9746 46.8804C68.9746 46.8804 68.9746 46.8074 68.9746 46.7891C68.626 46.296 68.516 45.6751 68.6627 45.0907C68.6627 45.0359 68.6444 44.9628 68.5894 44.9446C68.5343 44.9446 68.461 44.9628 68.4426 45.0176L67.4153 48.8528C67.3786 48.9806 67.452 49.0902 67.5804 49.1267L67.9473 49.2181L68.1124 49.2546L71.4694 50.1494L71.7446 50.2225L72.0014 50.2956C72.1298 50.3321 72.2399 50.259 72.2766 50.1312" fill="#6F9E4D"/>
<path d="M66.3514 47.8118L63.6364 43.1366C63.6364 43.1366 63.6364 43.0452 63.6731 43.0087L73.9276 37.1099C73.9276 37.1099 74.0193 37.1099 74.056 37.1464L76.7709 41.8216C76.7709 41.8216 76.7709 41.913 76.7343 41.9495L66.4798 47.8483C66.4798 47.8483 66.3881 47.8483 66.3514 47.8118Z" fill="#B3D59B"/>
<path d="M69.5616 44.415C70.0936 44.6159 70.7173 44.5794 71.2493 44.2689C71.7813 43.9584 72.1115 43.4471 72.2215 42.8992C72.2949 42.4609 72.2215 41.9861 71.9831 41.566C71.4327 40.6164 70.2037 40.2876 69.2681 40.8355C68.3142 41.3834 67.984 42.5887 68.5343 43.5384C68.7728 43.9584 69.158 44.2506 69.58 44.415" fill="#6F9E4D"/>
<path d="M70.112 42.8079L70.3321 42.8627C70.4972 42.8992 70.6073 42.9722 70.6623 43.0818C70.7173 43.1731 70.7173 43.2096 70.7173 43.2096C70.7173 43.2096 70.7173 43.2462 70.6806 43.2644C70.6806 43.2644 70.6623 43.2644 70.6256 43.2644C70.5889 43.2462 70.5522 43.1914 70.4789 43.0635L70.4055 42.9357C70.4055 42.9357 70.3321 42.8809 70.2771 42.8992L70.0202 43.0453C70.0202 43.0453 69.9652 43.1183 69.9836 43.1731L70.0386 43.2644C70.222 43.5749 70.4055 43.7393 70.6073 43.7393C70.644 43.7393 70.6806 43.7393 70.7173 43.7393L70.8641 43.9767C70.8641 43.9767 70.9375 44.0315 70.9925 44.0132L71.1576 43.9219C71.1576 43.9219 71.2126 43.8488 71.1943 43.7941L71.0659 43.5566C71.2126 43.4288 71.3043 43.1914 71.1026 42.8444C70.9741 42.6252 70.7724 42.4974 70.4972 42.4243C70.4972 42.4243 70.4422 42.4243 70.3871 42.4061C70.3138 42.4061 70.2954 42.3878 70.2954 42.3878C70.112 42.3513 70.0019 42.26 69.9285 42.1504C69.8735 42.0408 69.8735 42.0043 69.8735 41.986C69.8735 41.986 69.8735 41.9678 69.9102 41.9313C69.9469 41.913 70.0386 41.986 70.1303 42.1321L70.222 42.2782C70.222 42.2782 70.2954 42.333 70.3504 42.3148L70.6073 42.1687C70.6073 42.1687 70.6623 42.0956 70.6439 42.0408L70.5522 41.8947C70.4238 41.6756 70.3138 41.5477 70.1853 41.493C70.0753 41.4564 69.9652 41.4382 69.8552 41.4747L69.7084 41.2373C69.7084 41.2373 69.635 41.1825 69.58 41.2007L69.4149 41.2921C69.4149 41.2921 69.3599 41.3651 69.3782 41.4199L69.525 41.6573C69.3965 41.7852 69.3048 42.0043 69.525 42.3513C69.6534 42.5705 69.8735 42.7348 70.1853 42.8079" fill="#B3D59B"/>
<path d="M70.3137 39.7945C70.8457 39.484 71.4694 39.4475 72.0381 39.6484C72.0748 39.6484 72.0931 39.6484 72.1298 39.6484L72.5517 39.411C72.5517 39.411 72.5884 39.5023 72.6251 39.5571C72.9186 40.0502 73.5607 40.2328 74.056 39.9406C74.1477 39.8858 74.2394 39.8127 74.3128 39.7214L74.6797 40.3424C74.5696 40.3606 74.4596 40.3971 74.3678 40.4519C73.8725 40.7441 73.6891 41.3833 73.9826 41.8764C74.0009 41.9312 74.0376 41.9677 74.0743 42.0043L73.6524 42.2417C73.6524 42.2417 73.5974 42.2965 73.5974 42.3147C73.4873 42.9174 73.1388 43.4288 72.6068 43.721C72.5517 43.7575 72.5334 43.8305 72.5701 43.8671C72.6068 43.9219 72.6618 43.9401 72.7168 43.9036L76.1656 41.913C76.2756 41.8582 76.3123 41.7121 76.239 41.6025L76.1105 41.3651L75.9638 41.1277L74.2211 38.1326L74.1294 37.9865L73.9459 37.6577C73.8909 37.5482 73.7441 37.5116 73.6341 37.5664L70.1853 39.5571C70.1853 39.5571 70.112 39.6666 70.1486 39.7032C70.167 39.758 70.2404 39.7762 70.2954 39.7397" fill="#6F9E4D"/>
<path d="M66.6632 47.41L70.1119 45.4194C70.1119 45.4194 70.1853 45.3098 70.1486 45.2733C70.1119 45.2185 70.0569 45.2002 70.0019 45.2368C69.4699 45.529 68.8462 45.5837 68.2775 45.3829C68.2408 45.3829 68.2041 45.3829 68.1858 45.3829L67.7639 45.6203C67.7639 45.6203 67.7272 45.529 67.6905 45.4742C67.397 44.9811 66.7549 44.7984 66.2596 45.0907C66.1679 45.1454 66.0762 45.2185 66.0028 45.3098L65.6359 44.6889C65.746 44.6706 65.856 44.6341 65.9478 44.5793C66.4431 44.2871 66.6265 43.6479 66.333 43.1548C66.3147 43.1 66.278 43.0635 66.2413 43.027L66.6632 42.7896C66.6632 42.7896 66.7182 42.753 66.7182 42.7165C66.8283 42.1138 67.1768 41.6025 67.7088 41.3103C67.7639 41.2737 67.7822 41.219 67.7455 41.1642C67.7088 41.1094 67.6538 41.0911 67.5988 41.1276L64.15 43.1183C64.04 43.1731 64.0033 43.3192 64.0583 43.4287L64.2417 43.7575L64.3335 43.9036L66.0762 46.8987L66.2229 47.1361L66.3513 47.3552C66.4064 47.4648 66.5531 47.5013 66.6632 47.4465" fill="#6F9E4D"/>
<path d="M61.3067 40.0319L62.7008 34.827C62.7008 34.827 62.7559 34.754 62.8109 34.7722L74.2577 37.8221C74.2577 37.8221 74.3311 37.8769 74.3128 37.9317L72.9186 43.1365C72.9186 43.1365 72.8636 43.2096 72.8085 43.1913L61.3617 40.1415C61.3617 40.1415 61.2883 40.0867 61.3067 40.0319Z" fill="#B3D59B"/>
<path d="M65.9845 39.8858C66.2229 40.3971 66.6815 40.8172 67.2686 40.9633C67.8556 41.1276 68.4609 40.9998 68.9379 40.6711C69.3048 40.4154 69.5799 40.0319 69.7084 39.5571C69.9835 38.4978 69.3598 37.4203 68.2958 37.1281C67.2319 36.8542 66.1496 37.4751 65.8561 38.5343C65.7276 39.0092 65.7827 39.484 65.9661 39.8858" fill="#6F9E4D"/>
<path d="M67.5254 39.137L67.6354 39.3196C67.7088 39.4657 67.7455 39.5936 67.7088 39.7031C67.6905 39.7945 67.6538 39.831 67.6538 39.831C67.6538 39.831 67.6354 39.8492 67.5804 39.831C67.5804 39.831 67.5621 39.831 67.5437 39.7762C67.5437 39.7397 67.5437 39.6666 67.5804 39.5205L67.6171 39.3744C67.6171 39.3744 67.6171 39.2831 67.5621 39.2648L67.2869 39.1918C67.2869 39.1918 67.1952 39.1918 67.1768 39.2466L67.1401 39.3562C67.0484 39.7031 67.0668 39.9406 67.1952 40.0867C67.2135 40.1049 67.2502 40.1414 67.2869 40.1597L67.2135 40.4337C67.2135 40.4337 67.2135 40.525 67.2686 40.5432L67.452 40.598C67.452 40.598 67.5437 40.598 67.5621 40.5432L67.6354 40.2875C67.8372 40.2875 68.0757 40.1962 68.1674 39.8127C68.2225 39.5753 68.1858 39.3379 68.039 39.0822C68.039 39.0822 68.0207 39.0457 67.984 38.9909C67.9473 38.9361 67.929 38.8996 67.929 38.8996C67.8372 38.7352 67.8005 38.6074 67.8372 38.4795C67.8739 38.37 67.8923 38.3334 67.9106 38.3334C67.9106 38.3334 67.9106 38.3152 67.9656 38.3334C68.0207 38.3334 68.0207 38.4613 67.9656 38.6439L67.929 38.8083C67.929 38.8083 67.929 38.8996 67.984 38.9178L68.2592 38.9909C68.2592 38.9909 68.3509 38.9909 68.3692 38.9361L68.4059 38.7717C68.4609 38.5343 68.4793 38.3517 68.4059 38.2239C68.3692 38.1143 68.2958 38.0412 68.1858 37.9864L68.2592 37.7125C68.2592 37.7125 68.2592 37.6212 68.2041 37.6029L68.0207 37.5664C68.0207 37.5664 67.929 37.5664 67.9106 37.6212L67.8372 37.8951C67.6538 37.8951 67.4337 38.0047 67.3236 38.37C67.2502 38.6256 67.3052 38.8813 67.4703 39.1553" fill="#B3D59B"/>
<path d="M69.8184 37.1464C70.4054 37.2925 70.8824 37.7125 71.1392 38.2604C71.1392 38.2969 71.1759 38.3152 71.2126 38.3152L71.6712 38.443C71.6712 38.443 71.6345 38.5343 71.6162 38.5891C71.4694 39.137 71.7996 39.7214 72.3499 39.8675C72.46 39.904 72.5701 39.904 72.6801 39.904L72.4967 40.598C72.4967 40.598 72.2949 40.4884 72.1848 40.4519C71.6345 40.3058 71.0475 40.6345 70.9007 41.1824C70.9007 41.2372 70.8824 41.292 70.8824 41.3468L70.4054 41.2189C70.4054 41.2189 70.3321 41.2189 70.3137 41.2372C69.8184 41.5842 69.1947 41.6938 68.6077 41.5294C68.5527 41.5294 68.4793 41.5477 68.4609 41.6025C68.4609 41.6572 68.4793 41.7303 68.5343 41.7486L72.3866 42.7713C72.515 42.8078 72.6251 42.7347 72.6618 42.6069L72.7352 42.3512L72.8085 42.0773L73.7074 38.7352L73.7441 38.5708L73.8358 38.2056C73.8725 38.0778 73.7991 37.9682 73.6707 37.9316L69.8184 36.9089C69.8184 36.9089 69.69 36.9272 69.69 36.982C69.69 37.0368 69.69 37.1098 69.7634 37.1281" fill="#6F9E4D"/>
<path d="M61.8203 39.9588L65.6726 40.9815C65.6726 40.9815 65.7827 40.9633 65.801 40.9085C65.801 40.8537 65.7827 40.7806 65.7277 40.7806C65.1406 40.6163 64.6637 40.2145 64.4069 39.6849C64.4069 39.6484 64.3702 39.6301 64.3335 39.6301L63.8565 39.5023C63.8565 39.5023 63.8932 39.4109 63.9116 39.3562C64.0583 38.8083 63.7281 38.2239 63.1778 38.0778C63.0677 38.0412 62.9577 38.0412 62.8476 38.0412L63.031 37.3473C63.031 37.3473 63.2328 37.4568 63.3429 37.4934C63.8932 37.6395 64.4802 37.3107 64.627 36.7629C64.627 36.7081 64.6453 36.6533 64.6637 36.5985L65.1406 36.7263C65.1406 36.7263 65.1957 36.7263 65.2324 36.7263C65.7277 36.3793 66.3514 36.2698 66.9384 36.4159C66.9934 36.4159 67.0668 36.3976 67.0851 36.3428C67.0851 36.288 67.0668 36.2332 67.0118 36.215L63.1595 35.1923C63.031 35.1557 62.921 35.2288 62.8843 35.3566L62.7926 35.7219L62.7559 35.8862L61.857 39.2283L61.7836 39.5023L61.7102 39.7579C61.6736 39.8858 61.7469 39.9954 61.8753 40.0319" fill="#6F9E4D"/>
<path d="M72.3683 42.0956C71.6345 41.3103 71.6896 40.0684 72.4784 39.3379L73.524 38.3882C74.3128 37.6577 75.5602 37.6943 76.294 38.4978C77.0278 39.2831 76.9727 40.525 76.1839 41.2555L75.1383 42.2052C74.3495 42.9357 73.1021 42.8809 72.3683 42.0956Z" fill="#FAD099"/>
<path d="M49.5663 34.8999H34.8542V37.2741H49.5663V34.8999Z" fill="#E44E42"/>
<path d="M48.5207 39.63L54.7211 36.0688L48.5207 32.5076V39.63Z" fill="#E44E42"/>
</g>
<defs>
<clipPath id="clip0_142_1898">
<rect width="78" height="78" fill="white"/>
</clipPath>
</defs>
</svg>
