<svg width="68" height="73" viewBox="0 0 68 73" fill="none" xmlns="http://www.w3.org/2000/svg">
<g clip-path="url(#clip0_142_1855)">
<path d="M46.81 25.8506V27.056C46.81 27.5476 46.3942 27.9599 45.8824 27.9599H22.0856C21.5739 27.9599 21.174 27.5476 21.174 27.056V25.8506C21.174 21.1722 24.9962 17.366 29.73 17.366H38.254C38.7178 17.366 39.1656 17.3977 39.6134 17.477C43.6755 18.1114 46.81 21.6321 46.81 25.8506Z" fill="#F47836"/>
<path d="M43.4515 26.0409C43.4515 26.3581 43.1957 26.6118 42.8758 26.6118H38.5578C38.238 26.6118 37.9821 26.3581 37.9821 26.0409C37.9821 25.7237 38.238 25.47 38.5578 25.47H42.8758C43.1957 25.47 43.4515 25.7237 43.4515 26.0409Z" fill="#F47836"/>
<path d="M38.9896 18.3651V18.3968C38.9896 19.6814 37.9501 20.7123 36.6547 20.7123H31.0894C29.794 20.7123 28.7385 19.6814 28.7385 18.3968V18.3651C28.7385 18.0003 28.8184 17.6673 28.9624 17.366H37.4544C37.9181 17.366 38.3659 17.3977 38.8137 17.477C38.9417 17.7466 38.9896 18.0479 38.9896 18.3651Z" fill="#F47836"/>
<path d="M37.1185 15.1455H30.5616V19.0152H37.1185V15.1455Z" fill="#EDC38F"/>
<path d="M37.1185 19.1421C37.1185 19.5861 35.6472 19.9667 33.8401 19.9667C32.0329 19.9667 30.5616 19.602 30.5616 19.1421C30.5616 18.6821 32.0329 18.3174 33.8401 18.3174C35.6472 18.3174 37.1185 18.6821 37.1185 19.1421Z" fill="#EDC38F"/>
<path d="M39.7573 9.95967C39.7573 14.3051 37.1665 17.8258 33.984 17.8258C30.8015 17.8258 28.2267 14.2892 28.2267 9.95967C28.2267 9.03984 28.3387 8.16758 28.5466 7.3429C29.3302 4.26621 31.4732 2.07764 33.968 2.07764C36.4628 2.07764 38.6218 4.26621 39.4055 7.3429C39.6293 8.16758 39.7413 9.03984 39.7413 9.95967" fill="#FAD099"/>
<path d="M30.9135 3.52074C30.9135 3.52074 32.9285 6.51813 37.2945 7.32695C40.5409 7.9296 38.6058 10.9429 39.2615 13.6865C39.2615 13.6865 41.2766 11.149 40.8288 7.08906C40.381 3.0291 38.286 0.142723 34.016 0.539203C34.016 0.539203 32.6087 -0.396491 30.3537 0.269597C28.1148 0.935684 24.3566 9.49966 29.0264 14.083C29.0264 14.083 26.4836 6.93047 30.9135 3.55246" fill="#6D3D1F"/>
<path d="M38.6378 11.6565C38.6378 12.5129 39.0216 13.2107 39.5174 13.2107C40.0132 13.2107 40.397 12.5129 40.397 11.6565C40.397 10.8001 40.0132 10.1023 39.5174 10.1023C39.0216 10.1023 38.6378 10.8001 38.6378 11.6565Z" fill="#FAD099"/>
<path d="M27.635 11.6565C27.635 12.5129 28.0188 13.2107 28.5146 13.2107C29.0104 13.2107 29.3942 12.5129 29.3942 11.6565C29.3942 10.8001 29.0104 10.1023 28.5146 10.1023C28.0188 10.1023 27.635 10.8001 27.635 11.6565Z" fill="#FAD099"/>
<path d="M38.4939 7.35868C38.4459 7.16837 38.7178 7.61243 40.0132 10.0389L39.8212 10.2292C39.5654 10.2609 39.5014 10.4988 38.7498 11.6724C38.7498 11.6724 39.1016 9.75343 38.4939 7.35868Z" fill="#6D3D1F"/>
<path d="M54.0546 28.0709C54.0546 28.0709 53.5748 28.5467 51.9915 28.9591C51.6077 29.0542 50.6802 29.1335 49.4967 29.1969C49.0009 29.2128 48.4572 29.2445 47.8815 29.2604C47.1778 29.2762 46.4581 29.2921 45.7225 29.308C45.0028 29.308 44.2832 29.308 43.5955 29.308C43.0517 29.308 42.54 29.2921 42.0602 29.2762C40.7168 29.2128 39.6613 29.1176 39.2136 28.9749C37.5983 28.4357 37.4384 27.7537 37.4384 27.7537C38.5898 27.1035 39.2136 21.4576 39.2136 21.4576L39.3415 20.5378C39.4854 19.4435 39.7573 18.3968 40.2211 17.4928C41.0847 15.8118 42.6519 14.6223 45.6105 14.6223H45.7385C48.5532 14.654 50.1364 15.9703 51 17.699L52.1675 21.4576C52.1675 21.4576 52.7432 27.1987 54.0865 28.0868" fill="#3F2F2F"/>
<path d="M56.1016 36.4604V38.649C56.1016 39.8543 55.1101 40.8375 53.8947 40.8375H37.5663C36.3509 40.8375 35.3594 39.8543 35.3594 38.649V36.4604C35.3594 34.0498 37.3424 32.0833 39.7733 32.0833H51.6877C54.1185 32.0833 56.1016 34.0339 56.1016 36.4604Z" fill="#957DB9"/>
<path d="M48.0894 29.7996V33.2093L47.9294 33.6851C47.7855 33.8754 47.5616 33.9864 47.3057 33.9864H44.1712C43.9153 33.9864 43.6914 33.8595 43.5475 33.6851L43.3876 33.2093V29.7996L43.5795 29.2921C43.7234 29.1335 43.9473 29.0225 44.1712 29.0225H47.3057C47.5296 29.0225 47.7215 29.1176 47.8655 29.2604L48.0894 29.7996Z" fill="#EDC38F"/>
<path d="M50.5202 32.2894V32.0833H40.9567V32.2894C40.9567 35.2234 42.7639 37.6498 45.1308 37.9987L45.7225 39.5054L46.3142 37.9987C48.6811 37.6498 50.5042 35.2234 50.5042 32.2894" fill="#EDC38F"/>
<path d="M51.5118 23.8046C51.5118 25.9615 50.7281 27.9122 49.4807 29.2126C49.0649 29.6567 48.6011 30.0215 48.0894 30.3069C47.3697 30.7034 46.5701 30.9254 45.7385 30.9254H45.7065C44.8749 30.9254 44.0913 30.7034 43.3876 30.3069C42.8918 30.0373 42.444 29.7043 42.0442 29.2761C40.7648 27.9756 39.9652 26.0091 39.9652 23.8205C39.9652 22.9958 40.0772 22.2029 40.3011 21.4733C41.0847 18.7138 43.2117 16.7314 45.7225 16.7156H45.7545C48.2813 16.7156 50.4243 18.698 51.2079 21.4733C51.4158 22.2187 51.5438 22.9958 51.5438 23.8205" fill="#FAD099"/>
<path d="M52.1355 21.4418H39.3255L39.4055 20.8074L39.4534 20.5219C39.6134 19.4276 39.8692 18.3809 40.333 17.477C41.1966 15.8117 42.7319 14.6382 45.6265 14.6064H45.7225C48.6171 14.6064 50.2324 15.9228 51.112 17.6831L51.1439 17.7624C51.7037 18.9043 51.9915 20.2048 52.1195 21.4576" fill="#3F2F2F"/>
<path d="M21.0461 14.4795C16.8881 14.4795 13.5296 18.3967 13.5296 23.2338V32.6383H28.5626V23.2338C28.5626 18.3967 25.2041 14.4795 21.0461 14.4795Z" fill="#3F2F2F"/>
<path d="M31.5532 36.5871V38.7757C31.5532 39.981 30.5616 40.9643 29.3462 40.9643H13.0179C11.8024 40.9643 10.8109 39.981 10.8109 38.7757V36.5871C10.8109 34.5571 12.2182 32.8443 14.1054 32.3527C14.4572 32.2575 14.825 32.21 15.2088 32.21H27.1232C27.683 32.21 28.1947 32.321 28.6905 32.4954C30.3537 33.1139 31.5372 34.7157 31.5372 36.5871" fill="#F48893"/>
<path d="M23.1891 30.0056V33.4153L23.0292 33.8911C22.8852 34.0814 22.6613 34.1925 22.4055 34.1925H19.2709C19.0151 34.1925 18.7912 34.0656 18.6472 33.8911L18.4873 33.4153V30.0056C18.4873 29.5774 18.8391 29.2285 19.2709 29.2285H22.4055C22.8373 29.2285 23.1891 29.5774 23.1891 30.0056Z" fill="#EDC38F"/>
<path d="M16.0565 32.4161C16.0565 35.6038 18.1994 38.173 20.8542 38.173C23.509 38.173 25.636 35.588 25.636 32.4161V32.21H16.0725V32.4161H16.0565Z" fill="#EDC38F"/>
<path d="M15.2088 23.8205C15.2088 27.7694 17.8156 30.9888 21.0461 30.9888C24.2766 30.9888 26.8673 27.7853 26.8673 23.8205C26.8673 22.9958 26.7554 22.187 26.5315 21.4416C25.7479 18.6504 23.5729 16.6521 21.0461 16.6521C18.5193 16.6521 16.3283 18.6504 15.5447 21.4416C15.3208 22.187 15.2088 22.9799 15.2088 23.8205Z" fill="#FAD099"/>
<path d="M15.3848 22.4091C16.2484 22.3456 16.8241 21.9174 17.2079 21.4575C17.6717 20.8866 17.8156 20.2839 17.8156 20.2839C18.5833 20.9342 19.223 21.2831 19.7187 21.4575C20.5343 21.7588 20.9981 21.6478 20.9981 21.6478L20.8222 21.4575C20.1345 20.6487 20.2145 19.0152 20.2145 19.0152C20.4224 20.1253 21.0141 20.9183 21.8137 21.4575C24.0207 23.0276 27.667 22.7421 27.667 22.7421C27.667 22.7421 27.4591 22.2029 27.1872 21.4575C26.5475 19.7764 25.508 16.9852 25.396 16.668C25.2521 16.2081 21.9417 14.5905 18.4553 15.9544C15.9285 16.9218 15.4487 19.9033 15.3848 21.4575C15.3528 22.0443 15.3848 22.4091 15.3848 22.4091Z" fill="#3F2F2F"/>
<path d="M64.5136 30.3387C64.3537 30.7669 64.2258 31.1793 64.0818 31.6075C62.9304 35.1282 62.2267 38.649 61.7629 40.5203C61.2352 42.6138 60.8993 45.6905 60.1957 47.0543C59.476 48.4182 52.6792 44.4217 51.9755 45.7856C52.3913 45.4843 52.7432 45.1988 53.079 44.9451C54.9501 43.5177 55.7338 42.7248 56.2775 41.6622C56.9332 40.3776 58.8843 35.0331 59.1721 33.8278C59.46 32.6225 61.0113 29.6885 61.587 29.0383C62.1148 28.4198 63.5861 27.5951 64.3537 27.9123C64.8655 28.1026 65.0734 28.7845 64.5136 30.3387Z" fill="#EFBD88"/>
<path d="M67.4722 30.1643C67.2643 30.5766 67.0724 31.0048 66.8805 31.433C65.2653 34.9696 64.1138 38.5697 63.4101 40.4569C62.6105 42.582 61.9068 45.7539 60.9953 47.1019C60.0837 48.45 51.8796 53.3346 50.872 54.2386C49.8645 55.1425 47.1138 56.4113 47.1138 62.6757C47.1138 64.3567 47.9454 68.2423 47.9454 68.2423H36.3189C37.0705 66.5929 37.3264 64.7215 37.1025 61.74C37.0226 60.6774 36.4308 55.9514 36.3189 55.0632C35.983 52.5258 38.206 50.1469 40.1251 49.0209C42.0442 47.9107 47.1298 43.7556 48.2493 42.0745C49.3847 40.3935 52.9031 35.3502 53.3669 34.4621C54.1985 32.8921 56.7573 32.6224 56.1975 35.7626C55.6378 38.9027 53.4948 43.5019 52.5832 44.834C53.047 44.5644 53.4468 44.3107 53.8306 44.0887C55.9576 42.8041 56.8532 42.0745 57.5569 41.0278C58.4045 39.7591 61.0592 34.4145 61.507 33.1934C61.9548 31.9722 63.9059 29.0858 64.5936 28.4673C65.2333 27.8964 66.8485 27.1986 67.6162 27.6109C68.1279 27.8647 68.2559 28.6101 67.5042 30.1643" fill="#FAD099"/>
<path d="M52.6792 44.6279C52.1675 45.1513 51.9436 45.8332 51.7037 46.4993L51.048 48.561L50.8561 49.0844L50.5522 49.5919C50.3283 49.8932 50.0724 50.1787 49.8006 50.4165C49.5287 50.6703 49.2568 50.9082 48.985 51.1461C48.7131 51.3839 48.4252 51.606 48.1853 51.8756C48.5212 51.2254 49.0809 50.7337 49.5287 50.1786C49.7526 49.909 49.9925 49.6394 50.1684 49.3381L50.4083 48.9099L50.5842 48.4024C50.8241 47.7205 51.032 47.0385 51.3358 46.3724C51.6397 45.7222 51.9915 45.0085 52.6312 44.6121" fill="#EDC38F"/>
<path d="M67.4723 30.1643C67.2644 30.5767 67.0724 31.0049 66.8805 31.4331C66.6087 31.1317 66.3048 30.6877 66.3048 30.3705C66.3048 29.641 66.9605 28.515 67.4403 27.833C67.952 28.0868 68.3838 28.3088 67.4883 30.1485" fill="#FFEBCA"/>
<path d="M54.0226 33.6532C53.4628 34.4461 52.8711 35.3818 53.095 35.9211C53.3189 36.4444 54.3424 36.6823 54.6143 36.5713C54.9022 36.4603 55.8777 34.7792 55.9737 34.3351C56.0536 33.8911 54.5183 32.9712 54.0226 33.669" fill="#FFEBCA"/>
<path d="M48.6171 59.7734H35.2634V62.4695H48.6171V59.7734Z" fill="#ADD1EF"/>
<path d="M49.3528 61.5813H34.5438V72.9999H49.3528V61.5813Z" fill="#7EBCE7"/>
<path d="M36.2229 61.5813L35.9191 68.8765L35.6152 61.5813H36.2229Z" fill="#ADD1EF"/>
<path d="M37.7582 65.2924C37.1825 65.2924 36.7187 64.8325 36.7187 64.2616C36.7187 63.6906 37.1825 63.2307 37.7582 63.2307C38.334 63.2307 38.7977 63.6906 38.7977 64.2616C38.7977 64.8325 38.334 65.2924 37.7582 65.2924Z" fill="#F47836"/>
<path d="M38.5259 64.1029L38.0461 63.9284L37.9022 63.4685L38.3659 63.6271L38.5259 64.1029Z" fill="#F89D6B"/>
<path d="M3.48636 30.3387C3.63029 30.7669 3.77423 31.1793 3.91816 31.6075C5.06962 35.1282 5.77329 38.649 6.23707 40.5203C6.76482 42.6138 7.10066 45.6905 7.80433 47.0543C8.508 48.4182 15.3208 44.4217 16.0245 45.7856C15.6087 45.4843 15.2568 45.1988 14.921 44.9451C13.0499 43.5177 12.2662 42.7248 11.7225 41.6622C11.0668 40.3776 9.11571 35.0331 8.82785 33.8278C8.53998 32.6225 6.98871 29.6885 6.41299 29.0383C5.88523 28.4198 4.41393 27.5951 3.64629 27.9123C3.13453 28.1026 2.92663 28.7845 3.48636 30.3387Z" fill="#EFBD88"/>
<path d="M0.527758 30.1643C0.73566 30.5766 0.92757 31.0048 1.11948 31.433C2.73472 34.9696 3.88618 38.5697 4.58985 40.4569C5.38947 42.582 6.09314 45.7539 7.00471 47.1019C7.90029 48.45 16.1204 53.3346 17.1279 54.2386C18.1355 55.1425 20.8862 56.4113 20.8862 62.6757C20.8862 64.3567 20.0546 68.2423 20.0546 68.2423H31.6811C30.9295 66.5929 30.6736 64.7215 30.8975 61.74C30.9774 60.6774 31.5691 55.9514 31.6811 55.0632C32.0329 52.5258 29.794 50.1469 27.8909 49.0209C25.9718 47.9107 20.8862 43.7556 19.7507 42.0745C18.6312 40.3935 15.0969 35.3502 14.6331 34.4621C13.8015 32.8921 11.2427 32.6224 11.8025 35.7626C12.3782 38.9027 14.5052 43.5019 15.4168 44.834C14.953 44.5644 14.5532 44.3107 14.1693 44.0887C12.0423 42.8041 11.1468 42.0745 10.4431 41.0278C9.59549 39.7591 6.94074 34.4145 6.49295 33.1934C6.04516 31.9722 4.09408 29.0858 3.4064 28.4673C2.7667 27.8964 1.15146 27.1986 0.383826 27.6109C-0.127933 27.8647 -0.255873 28.6101 0.495773 30.1643" fill="#FAD099"/>
<path d="M15.3048 44.6279C15.8166 45.1513 16.0405 45.8332 16.2804 46.4993L16.936 48.561L17.128 49.0844L17.4318 49.5919C17.6557 49.8932 17.9116 50.1787 18.1835 50.4165C18.4553 50.6703 18.7272 50.9082 18.9991 51.1461C19.2709 51.3839 19.5588 51.606 19.7987 51.8756C19.4469 51.2254 18.9031 50.7337 18.4553 50.1786C18.2314 49.909 17.9915 49.6394 17.8156 49.3381L17.5757 48.9099L17.3998 48.4024C17.1599 47.7205 16.952 47.0385 16.6482 46.3724C16.3443 45.7222 15.9925 45.0085 15.3528 44.6121" fill="#EDC38F"/>
<path d="M0.52774 30.1643C0.735642 30.5767 0.927552 31.0049 1.11946 31.4331C1.39133 31.1317 1.69519 30.6877 1.69519 30.3705C1.69519 29.641 1.0395 28.515 0.559725 27.833C0.0479661 28.0868 -0.383831 28.3088 0.511748 30.1485" fill="#FFEBCA"/>
<path d="M13.9774 33.6532C14.5371 34.4461 15.1289 35.3818 14.905 35.9211C14.6811 36.4444 13.6576 36.6823 13.3857 36.5713C13.0978 36.4603 12.1223 34.7792 12.0263 34.3351C11.9464 33.8911 13.4816 32.9712 13.9774 33.669" fill="#FFEBCA"/>
<path d="M32.7206 59.7734H19.3669V62.4695H32.7206V59.7734Z" fill="#ADD1EF"/>
<path d="M33.4562 61.5813H18.6472V72.9999H33.4562V61.5813Z" fill="#7EBCE7"/>
<path d="M31.777 61.5813L32.0809 68.8765L32.3848 61.5813H31.777Z" fill="#ADD1EF"/>
<path d="M30.2418 65.2924C30.8175 65.2924 31.2813 64.8325 31.2813 64.2616C31.2813 63.6906 30.8175 63.2307 30.2418 63.2307C29.6661 63.2307 29.2023 63.6906 29.2023 64.2616C29.2023 64.8325 29.6661 65.2924 30.2418 65.2924Z" fill="#F47836"/>
<path d="M29.4741 64.1029L29.634 63.6271L30.0978 63.4685L29.9539 63.9284L29.4741 64.1029Z" fill="#F89D6B"/>
</g>
<defs>
<clipPath id="clip0_142_1855">
<rect width="68" height="73" fill="white"/>
</clipPath>
</defs>
</svg>
