<svg width="84" height="71" viewBox="0 0 84 71" fill="none" xmlns="http://www.w3.org/2000/svg">
<g clip-path="url(#clip0_142_1810)">
<path d="M39.4911 17.0383V24.6023H46.5635V21.4831L45.2794 22.7503L39.4911 17.0383Z" fill="#EDC38F"/>
<path d="M43.1853 18.5201C41.8025 18.5201 40.5183 17.9548 39.5306 17.019L45.3189 22.7505L46.603 21.4834V17.2725C45.6548 18.0718 44.4694 18.5201 43.2248 18.5201" fill="#EDC38F"/>
<path d="M38.9972 18.52L43.1261 20.7619L47.1166 18.52L50.6529 20.9179L43.0273 30.5483L35.8363 20.6255L38.9972 18.52Z" fill="#FFE4B8"/>
<path d="M49.0329 13.393C49.0329 13.393 48.9341 13.393 48.9144 13.354L48.8156 13.276V13.393C48.1834 16.4147 45.8721 18.5201 43.1853 18.5201C40.4986 18.5201 38.1872 16.4147 37.5748 13.393V13.276L37.4563 13.354C37.4167 13.354 37.397 13.393 37.3377 13.393C36.8636 13.393 36.0141 12.1258 35.9153 10.7807C35.7968 9.24059 35.8363 8.38281 36.0141 8.18787C36.0339 8.16837 36.0536 8.16837 36.0536 8.16837C36.2117 8.16837 36.4487 8.36332 36.6858 8.69473L36.9624 9.04564L36.8438 8.63625C36.6858 8.12938 36.6265 7.681 36.6265 7.27161C36.6265 3.43114 39.5898 0.29248 43.2051 0.29248C46.8203 0.29248 49.7836 3.43114 49.7836 7.27161C49.7836 7.681 49.7046 8.10989 49.5663 8.63625L49.4478 9.04564L49.7244 8.69473C49.9614 8.38282 50.1985 8.18787 50.3565 8.18787C50.3565 8.18787 50.3763 8.18787 50.396 8.20736C50.5738 8.38282 50.5936 9.26008 50.4948 10.8002C50.396 12.1453 49.5466 13.4125 49.0724 13.4125" fill="#FAD099"/>
<path d="M43.0273 4.48374C44.2719 4.56172 45.2399 4.05485 46.1882 4.01586C47.1364 3.97687 47.7883 4.95161 48.2625 6.00433C49.0527 7.79785 48.46 9.90329 49.4083 9.04552C50.3565 8.20724 49.4083 4.01586 49.4083 4.01586C49.4083 4.01586 48.3612 0.448317 45.0621 0.0974108C41.7629 -0.27299 38.2662 0.526296 37.1007 3.76243C35.9351 7.01806 36.5673 8.65562 36.9426 9.06501C37.318 9.4744 37.4958 8.53865 38.0094 6.4917C38.5231 4.42525 39.175 3.68445 40.0245 3.82091C40.874 3.97687 41.2493 4.38626 43.0273 4.50323" fill="#3F2F2F"/>
<path d="M44.3707 21.8536L43.1261 20.489V32.0884H43.1458L44.9831 29.4176L43.8965 22.7894L44.3707 21.8536Z" fill="#C96428"/>
<path d="M43.1063 20.489L43.0668 20.5085L43.047 20.489L41.8815 21.8147L42.3754 22.7894L41.2888 29.4176L43.1261 32.0884V20.489H43.1063Z" fill="#F47836"/>
<path d="M43.0273 53.4157V30.5484L49.2305 19.9822L59.5033 24.0761L62.4468 53.4157H43.0273Z" fill="#B292C4"/>
<path d="M43.0273 53.4157V30.5484L36.8241 19.9822L26.5513 24.0761L23.6275 53.4157H43.0273Z" fill="#957DB9"/>
<path d="M51.5814 20.8984L49.2305 19.9822L43.0273 30.5484L47.7093 26.9808L47.6698 25.2653H49.4675L51.5814 20.8984Z" fill="#957DB9"/>
<path d="M34.4732 20.8984L36.8241 19.9822L43.0273 30.5484L38.3452 26.9808L38.3848 25.2653H36.587L34.4732 20.8984Z" fill="#B292C4"/>
<path d="M61.0442 36.1238V43.6878H68.1167V40.5686L66.8326 41.8357L61.0442 36.1238Z" fill="#EDC38F"/>
<path d="M64.7385 37.6248C63.3556 37.6248 62.0715 37.0595 61.0837 36.1042L66.8721 41.8357L68.1562 40.5686V36.3577C67.2079 37.157 66.0226 37.6248 64.778 37.6248" fill="#EDC38F"/>
<path d="M60.5503 37.625L64.6792 39.8474L68.6896 37.625L72.206 40.0229L64.5804 49.6533L57.3895 39.7109L60.5503 37.625Z" fill="#FFE4B8"/>
<path d="M70.5861 32.4782C70.5861 32.4782 70.507 32.4782 70.4675 32.4392L70.3688 32.3612V32.4782C69.7366 35.4999 67.4252 37.6053 64.7385 37.6053C62.0517 37.6053 59.7404 35.4999 59.1279 32.4782V32.3612L59.0094 32.4392C58.9699 32.4587 58.9501 32.4782 58.8909 32.4782C58.4167 32.4782 57.5673 31.2111 57.4685 29.8659C57.3499 28.3258 57.3895 27.4681 57.5673 27.2731C57.5673 27.2731 57.587 27.2731 57.6068 27.2731C57.7648 27.2731 58.0216 27.4681 58.2389 27.78L58.5155 28.1504L58.3772 27.7215C58.2192 27.2146 58.1599 26.7857 58.1599 26.3763C58.1599 22.5359 61.1232 19.3972 64.7385 19.3972C68.3537 19.3972 71.317 22.5359 71.317 26.3763C71.317 26.7857 71.238 27.2146 71.0997 27.7215L70.9812 28.1504L71.2578 27.78C71.4948 27.4681 71.7319 27.2731 71.8899 27.2731C71.8899 27.2731 71.9097 27.2731 71.9294 27.2731C72.1072 27.4486 72.127 28.3063 72.0282 29.8659C71.9294 31.2111 71.08 32.4782 70.6058 32.4782" fill="#FAD099"/>
<path d="M64.5804 23.5693C65.825 23.6473 66.793 23.1599 67.7413 23.1014C68.6896 23.0624 69.3415 24.0372 69.8156 25.1094C70.6058 26.8834 70.0132 29.0083 70.9614 28.1506C71.9097 27.2928 70.9614 23.1014 70.9614 23.1014C70.9614 23.1014 69.9144 19.5534 66.6152 19.183C63.3161 18.832 59.8194 19.6118 58.6538 22.8675C57.4882 26.1036 58.1204 27.7607 58.4958 28.17C58.8711 28.5794 59.0489 27.6437 59.5626 25.5967C60.0762 23.5108 60.7281 22.77 61.5776 22.926C62.4271 23.0819 62.8024 23.5108 64.5804 23.6083" fill="#3F2F2F"/>
<path d="M65.9238 40.9391L64.699 39.5745V51.1739L66.5362 48.5031L65.4694 41.8748L65.9238 40.9391Z" fill="#FFC712"/>
<path d="M64.6594 39.5745H64.6397H64.6002L63.3754 40.7636L63.9285 41.8748L62.8419 48.5031L64.6792 51.1739H64.699V39.5745H64.6594Z" fill="#F47836"/>
<path d="M64.5804 57.8411V49.6533L70.7836 39.0676L81.0564 43.1615L84 57.8411H64.5804Z" fill="#B292C4"/>
<path d="M64.5804 57.8411V49.6533L58.3772 39.0676L48.1044 43.1615L45.1806 57.8411H64.5804Z" fill="#957DB9"/>
<path d="M73.1345 39.9644L70.7836 39.0676L64.5804 49.6533L69.2822 46.0663L69.2427 44.3507H71.0207L73.1345 39.9644Z" fill="#957DB9"/>
<path d="M56.0263 39.9644L58.3772 39.0676L64.5804 49.6533L59.8984 46.0663L59.9379 44.3507H58.1402L56.0263 39.9644Z" fill="#B292C4"/>
<path d="M15.8833 36.1238V43.6878H22.9558V40.5686L21.6717 41.8357L15.8833 36.1238Z" fill="#EDC38F"/>
<path d="M19.5579 37.6248C18.175 37.6248 16.8909 37.0595 15.9031 36.1042L21.6914 41.8357L22.9755 40.5686V36.3577C22.0273 37.157 20.842 37.6248 19.5974 37.6248" fill="#EDC38F"/>
<path d="M15.3697 37.625L19.4986 39.8474L23.5089 37.625L27.0254 40.0229L19.4196 49.6533L12.2286 39.7109L15.3697 37.625Z" fill="#FFE4B8"/>
<path d="M25.4252 32.4782C25.4252 32.4782 25.3264 32.4782 25.3067 32.4392L25.2079 32.3612V32.4782C24.5757 35.4999 22.2643 37.6053 19.5776 37.6053C16.8909 37.6053 14.5795 35.4999 13.9671 32.4782V32.3612L13.8288 32.4392C13.809 32.4587 13.7695 32.4782 13.73 32.4782C13.2559 32.4782 12.4064 31.2111 12.3076 29.8659C12.1891 28.3258 12.2286 27.4681 12.4064 27.2731C12.4064 27.2731 12.4262 27.2731 12.4459 27.2731C12.604 27.2731 12.8608 27.4681 13.0781 27.78L13.3547 28.1504L13.2361 27.7215C13.0781 27.2146 13.0188 26.7857 13.0188 26.3763C13.0188 22.5359 15.9821 19.3972 19.5974 19.3972C23.2126 19.3972 26.1759 22.5359 26.1759 26.3763C26.1759 26.7857 26.0969 27.2146 25.9586 27.7215L25.8203 28.1504L26.0969 27.78C26.334 27.4681 26.571 27.2731 26.7291 27.2731C26.7291 27.2731 26.7291 27.2731 26.7686 27.2731C26.9464 27.4486 26.9661 28.3063 26.8674 29.8659C26.7686 31.2111 25.9191 32.4782 25.445 32.4782" fill="#EDC38F"/>
<path d="M19.4196 23.5693C20.6642 23.6473 21.6322 23.1599 22.5804 23.1014C23.5484 23.0624 24.1806 24.0372 24.6547 25.1094C25.445 26.8834 24.8523 29.0083 25.8006 28.1506C26.7488 27.2928 25.8006 23.1014 25.8006 23.1014C25.8006 23.1014 24.7535 19.5534 21.4741 19.183C18.175 18.832 14.6783 19.6118 13.4929 22.8675C12.3274 26.1036 12.9595 27.7607 13.3349 28.17C13.7103 28.5794 13.888 27.6437 14.4017 25.5967C14.9153 23.5108 15.5673 22.77 16.4167 22.926C17.2662 23.0819 17.6416 23.5108 19.4196 23.6083" fill="#3F2F2F"/>
<path d="M20.921 40.5882L19.5183 39.5745V51.1739L21.3753 48.5031L20.2888 41.8748L20.921 40.5882Z" fill="#FFC712"/>
<path d="M19.4788 39.5745H19.4591H19.4393L18.1355 40.6662L18.7479 41.8748L17.6613 48.5031L19.5183 51.1739V39.5745H19.4788Z" fill="#F47836"/>
<path d="M19.4196 57.8411V49.6533L25.6228 39.0676L35.8956 43.1615L38.8194 57.8411H19.4196Z" fill="#7EBCE7"/>
<path d="M19.4196 57.8411V49.6533L13.2164 39.0676L2.94356 43.1615L0 57.8411H19.4196Z" fill="#6EA4CA"/>
<path d="M27.9737 39.9644L25.6228 39.0676L19.4196 49.6533L24.1016 46.0663L24.0621 44.3507H25.8598L27.9737 39.9644Z" fill="#6EA4CA"/>
<path d="M10.8655 39.9644L13.2164 39.0676L19.4196 49.6533L14.7178 46.0663L14.7573 44.3507H12.9793L10.8655 39.9644Z" fill="#7EBCE7"/>
<path d="M38.523 49.2634V56.8274H45.5757V53.7082L44.2916 54.9754L38.523 49.2634Z" fill="#EDC38F"/>
<path d="M42.1976 50.7645C40.8147 50.7645 39.5306 50.1992 38.5428 49.2634L44.3311 54.9754L45.6152 53.7082V49.4974C44.667 50.2966 43.4817 50.7645 42.2371 50.7645" fill="#EDC38F"/>
<path d="M38.0094 50.7644L42.1383 52.9868L46.1486 50.7644L49.6651 53.1623L42.0395 62.7927L34.8485 52.8503L38.0094 50.7644Z" fill="#FFE4B8"/>
<path d="M48.0451 45.6179C48.0451 45.6179 47.9464 45.6179 47.9266 45.5789L47.8278 45.5009V45.6179C47.1957 48.6396 44.8843 50.745 42.1975 50.745C39.5108 50.745 37.1994 48.6201 36.587 45.6179V45.5009L36.4487 45.5789C36.4092 45.5984 36.3895 45.6179 36.3499 45.6179C35.8758 45.6179 35.0263 44.3507 34.9276 43.0056C34.809 41.4655 34.8485 40.6077 35.0263 40.4323C35.0461 40.4323 35.0658 40.4323 35.0658 40.4323C35.2239 40.4323 35.4807 40.6077 35.698 40.9392L35.9746 41.3096L35.8561 40.8807C35.698 40.3738 35.6388 39.9449 35.6388 39.5355C35.6388 35.6951 38.6021 32.5564 42.2173 32.5564C45.8325 32.5564 48.7959 35.6951 48.7959 39.5355C48.7959 39.9449 48.7168 40.3738 48.5785 40.8807L48.46 41.3096L48.7366 40.9392C48.9737 40.6272 49.2107 40.4323 49.3688 40.4323C49.3688 40.4323 49.3885 40.4323 49.4083 40.4323C49.5861 40.6077 49.6058 41.4655 49.507 43.0056C49.4083 44.3507 48.5588 45.6179 48.0847 45.6179" fill="#FAD099"/>
<path d="M42.0395 36.7087C43.2841 36.7866 44.2324 36.2798 45.2004 36.2408C46.1486 36.1823 46.8006 37.1765 47.2747 38.2293C48.0649 40.0228 47.4722 42.1282 48.4205 41.2704C49.3688 40.4127 48.4205 36.2213 48.4205 36.2213C48.4205 36.2213 47.3735 32.6537 44.0743 32.3028C40.7752 31.9324 37.2785 32.7122 36.1129 35.9679C34.9473 39.2235 35.5795 40.8611 35.9548 41.2704C36.3302 41.6798 36.508 40.7441 37.0216 38.6971C37.5353 36.6307 38.1872 35.8704 39.0367 36.0263C39.8862 36.1823 40.2615 36.6112 42.0395 36.7087Z" fill="#3F2F2F"/>
<path d="M43.6002 53.6496L42.1581 52.7139V64.3133L43.9953 61.6425L42.9285 55.0337L43.6002 53.6496Z" fill="#C96428"/>
<path d="M42.1185 52.7139L42.0988 52.7334L42.0593 52.7139L40.6961 53.6691L41.3876 55.0337L40.301 61.6425L42.1383 64.3133H42.158V52.7139H42.1185Z" fill="#F47836"/>
<path d="M42.0395 71V62.7927L48.2427 52.207L58.5155 56.3204L61.4591 71H42.0395Z" fill="#7EBCE7"/>
<path d="M42.0395 71V62.7927L35.8363 52.207L25.5635 56.3204L22.6397 71H42.0395Z" fill="#6EA4CA"/>
<path d="M50.5936 53.1233L48.2427 52.207L42.0395 62.7927L46.7413 59.2057L46.7018 57.5096H48.4798L50.5936 53.1233Z" fill="#6EA4CA"/>
<path d="M33.4854 53.1233L35.8363 52.207L42.0395 62.7927L37.3575 59.2057L37.397 57.5096H35.5992L33.4854 53.1233Z" fill="#7EBCE7"/>
</g>
<defs>
<clipPath id="clip0_142_1810">
<rect width="84" height="71" fill="white"/>
</clipPath>
</defs>
</svg>
