<svg width="105" height="82" viewBox="0 0 105 82" fill="none" xmlns="http://www.w3.org/2000/svg">
<g clip-path="url(#clip0_3_163)">
<path d="M2.24028 73.2537C2.70609 72.9541 3.241 72.8024 3.8509 72.8024C4.87136 72.8024 5.6668 73.2537 6.2392 74.1583L6.79977 73.7365C6.46422 73.2182 6.04775 72.828 5.54837 72.562C5.05097 72.2959 4.48252 72.1619 3.85288 72.1619C3.09888 72.1619 2.42976 72.3432 1.84749 72.7117C1.26522 73.0763 0.811243 73.5828 0.489513 74.2332C0.163836 74.8855 0.00198364 75.6206 0.00198364 76.4404C0.00198364 77.2603 0.173705 77.9974 0.515173 78.6438C0.858615 79.2902 1.33825 79.7967 1.95605 80.1613C2.57188 80.5278 3.2785 80.7091 4.06999 80.7091C5.03716 80.7091 5.94313 80.4589 6.7899 79.9563V76.3734H3.79563V76.9883H6.04774V79.5779C5.47732 79.9051 4.82991 80.0706 4.10552 80.0706C3.45811 80.0706 2.88374 79.9149 2.37844 79.6075C1.8771 79.2981 1.48431 78.8665 1.20206 78.3068C0.919802 77.7471 0.779662 77.1105 0.779662 76.3951C0.779662 75.6797 0.90796 75.0609 1.16258 74.5189C1.41917 73.975 1.77841 73.5513 2.24225 73.2517" fill="#5A4B3B"/>
<path d="M12.7488 78.9473C12.585 79.3158 12.3501 79.6035 12.0501 79.8085C11.7501 80.0135 11.4046 80.1179 11.0158 80.1179C10.627 80.1179 10.2855 80.0154 9.98746 79.8144C9.69139 79.6134 9.46045 79.3276 9.29662 78.9591C9.1328 78.5906 9.0499 78.1649 9.0499 77.686C9.0499 77.2071 9.13083 76.7952 9.29662 76.4267C9.46045 76.0581 9.69139 75.7724 9.98746 75.5713C10.2855 75.3703 10.627 75.2678 11.0158 75.2678C11.4046 75.2678 11.7481 75.3664 12.0501 75.5654C12.3501 75.7625 12.585 76.0443 12.7488 76.4109C12.9126 76.7755 12.9955 77.1933 12.9955 77.6643C12.9955 78.1353 12.9126 78.5787 12.7488 78.9492M12.4448 75.0511C12.0343 74.8008 11.5626 74.6746 11.0277 74.6746C10.4928 74.6746 10.021 74.7988 9.61046 75.0511C9.19991 75.3033 8.88015 75.6561 8.65119 76.1113C8.42223 76.5686 8.30972 77.0928 8.30972 77.686C8.30972 78.2792 8.42223 78.8074 8.64527 79.2685C8.87028 79.7277 9.18807 80.0844 9.59862 80.3367C10.0111 80.587 10.4829 80.7131 11.0158 80.7131C11.5487 80.7131 12.0323 80.585 12.4429 80.3308C12.8534 80.0746 13.1732 79.7198 13.3982 79.2646C13.6232 78.8074 13.7337 78.2792 13.7337 77.6761C13.7337 77.0731 13.6212 76.5607 13.3982 76.1074C13.1732 75.6561 12.8534 75.3033 12.4429 75.0511" fill="#5A4B3B"/>
<path d="M19.2268 78.9473C19.063 79.3158 18.8281 79.6035 18.5281 79.8085C18.2281 80.0135 17.8827 80.1179 17.4938 80.1179C17.105 80.1179 16.7635 80.0154 16.4655 79.8144C16.1694 79.6134 15.9385 79.3276 15.7747 78.9591C15.6108 78.5906 15.5279 78.1649 15.5279 77.686C15.5279 77.2071 15.6089 76.7952 15.7747 76.4267C15.9385 76.0581 16.1694 75.7724 16.4655 75.5713C16.7635 75.3703 17.105 75.2678 17.4938 75.2678C17.8827 75.2678 18.2261 75.3664 18.5281 75.5654C18.8281 75.7625 19.063 76.0443 19.2268 76.4109C19.3887 76.7755 19.4716 77.1933 19.4716 77.6643C19.4716 78.1353 19.3887 78.5787 19.2268 78.9492M18.9229 75.0511C18.5123 74.8008 18.0406 74.6746 17.5057 74.6746C16.9708 74.6746 16.499 74.7988 16.0885 75.0511C15.6779 75.3033 15.3582 75.6561 15.1292 76.1113C14.9003 76.5686 14.7878 77.0928 14.7878 77.686C14.7878 78.2792 14.9003 78.8074 15.1233 79.2685C15.3483 79.7277 15.6661 80.0844 16.0766 80.3367C16.4892 80.587 16.9609 80.7131 17.4938 80.7131C18.0268 80.7131 18.5103 80.585 18.9209 80.3308C19.3314 80.0746 19.6512 79.7198 19.8742 79.2646C20.0993 78.8074 20.2118 78.2792 20.2118 77.6761C20.2118 77.0731 20.0993 76.5607 19.8742 76.1074C19.6492 75.6561 19.3314 75.3033 18.9209 75.0511" fill="#5A4B3B"/>
<path d="M25.6259 78.965C25.4621 79.3296 25.2311 79.6134 24.9351 79.8144C24.637 80.0154 24.2975 80.1159 23.9166 80.1159C23.3304 80.1159 22.8665 79.8952 22.5231 79.4538C22.1796 79.0123 22.0099 78.423 22.0099 77.684C22.0099 76.945 22.1855 76.3498 22.5349 75.9162C22.8862 75.4826 23.3501 75.2659 23.9304 75.2659C24.3173 75.2659 24.6587 75.3683 24.9528 75.5753C25.2469 75.7802 25.4739 76.066 25.6338 76.4306C25.7937 76.7972 25.8746 77.2189 25.8746 77.6978C25.8746 78.1767 25.7937 78.6004 25.6279 78.965M25.8726 75.8847C25.6812 75.5122 25.4028 75.2166 25.0318 74.9998C24.6627 74.783 24.2521 74.6746 23.8041 74.6746C23.3086 74.6746 22.8685 74.7988 22.4836 75.051C22.0987 75.3033 21.8007 75.6541 21.5875 76.1074C21.3743 76.5587 21.2677 77.0829 21.2677 77.6741C21.2677 78.2654 21.3743 78.7955 21.5875 79.2567C21.8007 79.7159 22.1007 80.0745 22.4895 80.3307C22.8784 80.585 23.3284 80.7131 23.8396 80.7131C24.2975 80.7131 24.7061 80.6047 25.0732 80.3879C25.4384 80.1711 25.7127 79.8735 25.8963 79.4932L25.9634 80.5771H26.5694V72.3038H25.8726V75.8867V75.8847Z" fill="#5A4B3B"/>
<path d="M32.2184 72.6093C31.9243 72.9068 31.7782 73.3168 31.7782 73.843V74.8126H30.7834V75.4058H31.7782V80.5751H32.475V75.4058H33.9159V74.8126H32.475V73.8883C32.475 73.5375 32.5697 73.2655 32.7573 73.0724C32.9428 72.8773 33.2033 72.7807 33.5389 72.7807C33.7363 72.7807 33.9455 72.8201 34.1685 72.895V72.2683C33.9613 72.1993 33.7165 72.1639 33.4362 72.1639C32.9191 72.1639 32.5125 72.3117 32.2204 72.6093" fill="#5A4B3B"/>
<path d="M39.1445 78.9473C38.9806 79.3158 38.7497 79.6035 38.4457 79.8085C38.1457 80.0135 37.8003 80.1179 37.4115 80.1179C37.0226 80.1179 36.6812 80.0154 36.3831 79.8144C36.0851 79.6134 35.8561 79.3276 35.6923 78.9591C35.5285 78.5906 35.4456 78.1649 35.4456 77.686C35.4456 77.2071 35.5265 76.7952 35.6923 76.4267C35.8561 76.0581 36.087 75.7724 36.3831 75.5713C36.6812 75.3703 37.0226 75.2678 37.4115 75.2678C37.8003 75.2678 38.1437 75.3664 38.4457 75.5654C38.7477 75.7625 38.9806 76.0443 39.1445 76.4109C39.3083 76.7755 39.3912 77.1933 39.3912 77.6643C39.3912 78.1353 39.3083 78.5787 39.1445 78.9492M38.8405 75.0511C38.43 74.8008 37.9582 74.6746 37.4233 74.6746C36.8884 74.6746 36.4186 74.7988 36.0061 75.0511C35.5936 75.3033 35.2758 75.6561 35.0469 76.1113C34.8179 76.5686 34.7054 77.0928 34.7054 77.686C34.7054 78.2792 34.8179 78.8074 35.0409 79.2685C35.2659 79.7277 35.5837 80.0844 35.9962 80.3367C36.4068 80.587 36.8785 80.7131 37.4115 80.7131C37.9444 80.7131 38.428 80.585 38.8385 80.3308C39.2491 80.0746 39.5688 79.7198 39.7938 79.2646C40.0189 78.8074 40.1294 78.2792 40.1294 77.6761C40.1294 77.0731 40.0169 76.5607 39.7938 76.1074C39.5688 75.6561 39.2491 75.3033 38.8385 75.0511" fill="#5A4B3B"/>
<path d="M45.6244 78.9473C45.4606 79.3158 45.2257 79.6035 44.9257 79.8085C44.6257 80.0135 44.2803 80.1179 43.8914 80.1179C43.5026 80.1179 43.1611 80.0154 42.8631 79.8144C42.567 79.6134 42.3361 79.3276 42.1723 78.9591C42.0084 78.5906 41.9255 78.1649 41.9255 77.686C41.9255 77.2071 42.0065 76.7952 42.1723 76.4267C42.3361 76.0581 42.567 75.7724 42.8631 75.5713C43.1611 75.3703 43.5026 75.2678 43.8914 75.2678C44.2803 75.2678 44.6237 75.3664 44.9257 75.5654C45.2257 75.7625 45.4606 76.0443 45.6244 76.4109C45.7883 76.7755 45.8712 77.1933 45.8712 77.6643C45.8712 78.1353 45.7883 78.5787 45.6244 78.9492M45.3205 75.0511C44.9099 74.8008 44.4362 74.6746 43.9033 74.6746C43.3704 74.6746 42.8986 74.7988 42.4861 75.0511C42.0736 75.3033 41.7558 75.6561 41.5268 76.1113C41.2979 76.5686 41.1854 77.0928 41.1854 77.686C41.1854 78.2792 41.2979 78.8074 41.5209 79.2685C41.7459 79.7277 42.0637 80.0844 42.4743 80.3367C42.8868 80.587 43.3585 80.7131 43.8914 80.7131C44.4244 80.7131 44.908 80.585 45.3185 80.3308C45.7291 80.0746 46.0488 79.7198 46.2738 79.2646C46.4988 78.8074 46.6094 78.2792 46.6094 77.6761C46.6094 77.0731 46.4969 76.5607 46.2738 76.1074C46.0488 75.6561 45.7291 75.3033 45.3185 75.0511" fill="#5A4B3B"/>
<path d="M52.0235 78.965C51.8597 79.3296 51.6288 79.6134 51.3327 79.8144C51.0347 80.0154 50.6952 80.1159 50.3162 80.1159C49.728 80.1159 49.2642 79.8952 48.9207 79.4538C48.5773 79.0123 48.4075 78.423 48.4075 77.684C48.4075 76.945 48.5832 76.3498 48.9326 75.9162C49.2839 75.4826 49.7477 75.2659 50.328 75.2659C50.7189 75.2659 51.0564 75.3683 51.3505 75.5753C51.6446 75.7802 51.8716 76.066 52.0314 76.4306C52.1913 76.7972 52.2722 77.2189 52.2722 77.6978C52.2722 78.1767 52.1913 78.6004 52.0255 78.965M52.2683 75.8847C52.0768 75.5122 51.7985 75.2166 51.4275 74.9998C51.0584 74.783 50.6478 74.6746 50.1997 74.6746C49.7043 74.6746 49.2642 74.7988 48.8793 75.051C48.4944 75.3033 48.1944 75.6541 47.9812 76.1074C47.768 76.5587 47.6614 77.0829 47.6614 77.6741C47.6614 78.2654 47.768 78.7955 47.9812 79.2567C48.1944 79.7159 48.4964 80.0745 48.8832 80.3307C49.2721 80.585 49.7201 80.7131 50.2313 80.7131C50.6893 80.7131 51.0998 80.6047 51.465 80.3879C51.8301 80.1711 52.1045 79.8735 52.288 79.4932L52.3551 80.5771H52.9611V72.3038H52.2643V75.8867L52.2683 75.8847Z" fill="#5A4B3B"/>
<path d="M54.8461 79.4577L54.2638 82H54.8816L55.7619 79.4577H54.8461Z" fill="#5A4B3B"/>
<path d="M62.2321 73.2537C62.6979 72.9541 63.2328 72.8024 63.8427 72.8024C64.8632 72.8024 65.6586 73.2537 66.231 74.1583L66.7916 73.7365C66.456 73.2182 66.0396 72.828 65.5402 72.562C65.0408 72.2959 64.4743 72.1619 63.8447 72.1619C63.0907 72.1619 62.4216 72.3432 61.8393 72.7117C61.257 73.0763 60.8031 73.5828 60.4774 74.2332C60.1537 74.8855 59.9918 75.6206 59.9918 76.4404C59.9918 77.2603 60.1635 77.9974 60.505 78.6438C60.8485 79.2902 61.3281 79.7967 61.9459 80.1613C62.5617 80.5278 63.2683 80.7091 64.0598 80.7091C65.027 80.7091 65.933 80.4589 66.7797 79.9563V76.3734H63.7855V76.9883H66.0376V79.5779C65.4672 79.9051 64.8197 80.0706 64.0954 80.0706C63.448 80.0706 62.8736 79.9149 62.3683 79.6075C61.8669 79.2981 61.4741 78.8665 61.1919 78.3068C60.9096 77.7471 60.7695 77.1105 60.7695 76.3951C60.7695 75.6797 60.8978 75.0609 61.1524 74.5189C61.407 73.975 61.7682 73.5513 62.2321 73.2517" fill="#5A4B3B"/>
<path d="M72.7406 78.9473C72.5768 79.3158 72.3419 79.6035 72.0419 79.8085C71.7419 80.0135 71.3964 80.1179 71.0076 80.1179C70.6188 80.1179 70.2773 80.0154 69.9792 79.8144C69.6832 79.6134 69.4522 79.3276 69.2884 78.9591C69.1246 78.5906 69.0417 78.1649 69.0417 77.686C69.0417 77.2071 69.1226 76.7952 69.2884 76.4267C69.4522 76.0581 69.6832 75.7724 69.9792 75.5713C70.2773 75.3703 70.6188 75.2678 71.0076 75.2678C71.3964 75.2678 71.7399 75.3664 72.0419 75.5654C72.3419 75.7625 72.5768 76.0443 72.7406 76.4109C72.9024 76.7755 72.9853 77.1933 72.9853 77.6643C72.9853 78.1353 72.9024 78.5787 72.7406 78.9492M72.4366 75.0511C72.0261 74.8008 71.5543 74.6746 71.0194 74.6746C70.4845 74.6746 70.0148 74.7988 69.6022 75.0511C69.1897 75.3033 68.8719 75.6561 68.643 76.1113C68.414 76.5686 68.3015 77.0928 68.3015 77.686C68.3015 78.2792 68.414 78.8074 68.6371 79.2685C68.8621 79.7277 69.1799 80.0844 69.5904 80.3367C70.0029 80.587 70.4747 80.7131 71.0076 80.7131C71.5405 80.7131 72.0241 80.585 72.4347 80.3308C72.8452 80.0746 73.165 79.7198 73.388 79.2646C73.613 78.8074 73.7255 78.2792 73.7255 77.6761C73.7255 77.0731 73.613 76.5607 73.388 76.1074C73.163 75.6561 72.8452 75.3033 72.4347 75.0511" fill="#5A4B3B"/>
<path d="M79.2166 78.9473C79.0548 79.3158 78.8219 79.6035 78.5199 79.8085C78.2199 80.0135 77.8744 80.1179 77.4856 80.1179C77.0968 80.1179 76.7553 80.0154 76.4573 79.8144C76.1612 79.6134 75.9302 79.3276 75.7664 78.9591C75.6026 78.5906 75.5197 78.1649 75.5197 77.686C75.5197 77.2071 75.6006 76.7952 75.7664 76.4267C75.9302 76.0581 76.1612 75.7724 76.4573 75.5713C76.7553 75.3703 77.0968 75.2678 77.4856 75.2678C77.8744 75.2678 78.2179 75.3664 78.5199 75.5654C78.8199 75.7625 79.0548 76.0443 79.2166 76.4109C79.3805 76.7755 79.4634 77.1933 79.4634 77.6643C79.4634 78.1353 79.3805 78.5787 79.2166 78.9492M78.9166 75.0511C78.5061 74.8008 78.0343 74.6746 77.4994 74.6746C76.9645 74.6746 76.4928 74.7988 76.0822 75.0511C75.6717 75.3013 75.3519 75.6561 75.123 76.1113C74.894 76.5686 74.7815 77.0928 74.7815 77.686C74.7815 78.2792 74.894 78.8074 75.117 79.2685C75.3421 79.7277 75.6598 80.0844 76.0704 80.3367C76.4829 80.587 76.9547 80.7131 77.4876 80.7131C78.0205 80.7131 78.5041 80.585 78.9146 80.3308C79.3252 80.0746 79.645 79.7198 79.868 79.2646C80.091 78.8074 80.2055 78.2792 80.2055 77.6761C80.2055 77.0731 80.091 76.5607 79.868 76.1074C79.643 75.6561 79.3252 75.3033 78.9146 75.0511" fill="#5A4B3B"/>
<path d="M85.6177 78.965C85.4539 79.3296 85.2229 79.6134 84.9268 79.8144C84.6288 80.0154 84.2913 80.1159 83.9084 80.1159C83.3221 80.1159 82.8583 79.8952 82.5149 79.4538C82.1714 79.0123 82.0017 78.423 82.0017 77.684C82.0017 76.945 82.1754 76.3498 82.5267 75.9162C82.878 75.4826 83.3419 75.2659 83.9222 75.2659C84.309 75.2659 84.6505 75.3683 84.9446 75.5753C85.2387 75.7802 85.4657 76.066 85.6256 76.4306C85.7855 76.7972 85.8664 77.2189 85.8664 77.6978C85.8664 78.1767 85.7855 78.6004 85.6197 78.965M85.8644 75.8847C85.6729 75.5122 85.3946 75.2166 85.0236 74.9998C84.6545 74.783 84.2439 74.6746 83.7959 74.6746C83.2985 74.6746 82.8603 74.7988 82.4754 75.051C82.0905 75.3033 81.7924 75.6541 81.5793 76.1074C81.3661 76.5587 81.2595 77.0829 81.2595 77.6741C81.2595 78.2654 81.3661 78.7955 81.5793 79.2567C81.7924 79.7159 82.0925 80.0745 82.4813 80.3307C82.8701 80.585 83.3202 80.7131 83.8314 80.7131C84.2873 80.7131 84.6979 80.6047 85.065 80.3879C85.4302 80.1711 85.7045 79.8735 85.8861 79.4932L85.9552 80.5771H86.5612V72.3038H85.8644V75.8867V75.8847Z" fill="#5A4B3B"/>
<path d="M91.5193 72.2998V76.4385V80.5751H92.2181V72.2998H91.5193Z" fill="#5A4B3B"/>
<path d="M94.3992 72.6585C94.2531 72.6585 94.1347 72.7019 94.0459 72.7886C93.9551 72.8773 93.9097 72.9936 93.9097 73.1374C93.9097 73.2813 93.9551 73.3897 94.0459 73.4863C94.1367 73.5809 94.2551 73.6282 94.3992 73.6282C94.5433 73.6282 94.6676 73.5809 94.7702 73.4863C94.8749 73.3897 94.9242 73.2734 94.9242 73.1374C94.9242 73.0014 94.8749 72.8773 94.7762 72.7886C94.6775 72.7019 94.5512 72.6585 94.3992 72.6585Z" fill="#5A4B3B"/>
<path d="M94.0676 74.8106V77.6919V80.5751H94.7643V74.8106H94.0676Z" fill="#5A4B3B"/>
<path d="M97.3085 72.6093C97.0145 72.9068 96.8684 73.3168 96.8684 73.843V74.8126H95.8736V75.4058H96.8684V80.5751H97.5651V75.4058H99.006V74.8126H97.5651V73.8883C97.5651 73.5375 97.6599 73.2655 97.8454 73.0724C98.0329 72.8773 98.2935 72.7807 98.629 72.7807C98.8264 72.7807 99.0356 72.8201 99.2567 72.895V72.2683C99.0514 72.1993 98.8067 72.1639 98.5264 72.1639C98.0073 72.1639 97.6007 72.3117 97.3105 72.6093" fill="#5A4B3B"/>
<path d="M100.082 77.1499C100.159 76.5488 100.362 76.0837 100.694 75.7586C101.025 75.4314 101.457 75.2678 101.992 75.2678C102.527 75.2678 102.944 75.4334 103.248 75.7645C103.554 76.0956 103.714 76.5587 103.727 77.1499H100.082ZM104.434 77.4475C104.434 76.5942 104.217 75.9182 103.779 75.4196C103.341 74.923 102.746 74.6727 102 74.6727C101.467 74.6727 101 74.7968 100.595 75.0432C100.192 75.2915 99.8804 75.6403 99.6594 76.0936C99.4383 76.5469 99.3278 77.0691 99.3278 77.6623C99.3278 78.2555 99.4403 78.7955 99.6692 79.2547C99.8982 79.7139 100.222 80.0706 100.64 80.3288C101.059 80.583 101.544 80.7111 102.091 80.7111C102.571 80.7111 103.013 80.6126 103.416 80.4135C103.82 80.2145 104.148 79.9366 104.4 79.5799L103.919 79.17C103.684 79.4814 103.41 79.7159 103.102 79.8775C102.794 80.0371 102.456 80.1179 102.091 80.1179C101.475 80.1179 100.98 79.907 100.611 79.4853C100.242 79.0616 100.054 78.4822 100.046 77.7431H104.422C104.432 77.6742 104.434 77.5776 104.434 77.4475Z" fill="#5A4B3B"/>
<path d="M62.692 24.8594C62.3959 24.68 61.9735 24.4061 61.7505 24.2583C60.6589 24.7352 59.5793 25.6851 58.6615 26.6449C56.5455 28.8443 56.735 30.1115 54.5007 30.9668C53.9421 31.1777 53.2532 31.4102 52.3729 31.6112C51.8558 30.0149 50.555 28.4324 49.1793 28.4324C48.2279 28.4324 47.1246 28.927 45.8554 29.4887C44.3632 30.143 43.0013 30.8939 42.5631 31.1796L43.1474 31.962C43.5915 31.7196 44.8725 31.0831 46.1535 30.5352C47.2647 30.0602 48.2694 29.668 48.9444 29.668C50.0359 29.668 50.7445 30.9057 51.1373 31.897C49.7083 32.236 47.3614 32.3187 46.6509 32.3187C46.3232 32.3187 46.2048 32.3719 46.0903 32.4705C45.9837 32.5651 45.8988 32.7326 45.8455 32.9652L45.7626 33.3238H46.5265C50.482 33.3238 54.2184 32.7011 56.6186 31.2427C56.9581 31.3373 57.2541 31.4004 57.6371 31.4004C59.0108 31.4004 60.43 30.6515 61.3182 29.9637C61.636 29.7213 61.709 29.4986 61.709 29.2581L61.6873 28.929L61.6458 28.5171C60.3767 29.5202 59.3187 30.2711 58.0062 30.2711C57.7752 30.2711 57.6035 30.2514 57.4673 30.208C58.7483 28.1584 59.8892 26.3414 62.6939 24.8613" fill="#5A4B3B"/>
<path d="M54.2934 27.2578C53.3934 27.2578 53.4782 25.7245 53.4131 24.5105C50.2392 24.818 48.2516 25.758 46.0706 26.9287L46.3272 27.9022C48.3049 26.7178 50.2076 26.0438 52.2308 25.8428C52.2525 27.0036 52.7499 28.5565 54.0724 28.5565C55.4895 28.5565 57.2127 26.3374 59.2358 23.74L59.7648 23.0541C59.4904 22.8413 59.1845 22.6521 58.9911 22.4727C56.9166 25.1353 55.1185 27.2578 54.2954 27.2578" fill="#5A4B3B"/>
<path d="M47.391 10.9575C47.0949 10.9575 46.7554 10.9161 46.3548 10.8215C46.0488 10.7466 45.7192 10.6836 45.2554 10.6836C44.4204 10.6836 43.5204 10.9989 42.9065 11.5921C41.7854 12.6583 41.7203 13.8112 41.6453 14.836C41.5505 16.1998 41.2959 16.5368 40.5577 17.53C39.9537 18.344 39.1267 19.4121 38.4931 20.5434C38.6944 20.638 39.3596 20.9947 39.5945 21.1228C40.3248 20.025 41.3413 18.6711 42.0065 17.6463C42.6105 16.7181 42.8532 16.316 42.8947 15.0685C42.9065 14.8596 42.9065 14.6586 42.9263 14.4576C42.9815 13.8132 43.1513 13.1569 43.7651 12.5558C44.2191 12.1006 44.8744 11.868 45.5317 11.868C46.189 11.868 46.5364 12.0473 47.087 12.0473C47.4779 12.0473 47.7641 11.9527 48.0167 11.8582L48.218 11.7833L47.7325 12.946L48.8753 13.4111C48.145 13.8624 46.5482 15.8174 46.5482 18.1331C46.5482 18.9667 46.6765 19.7373 46.8561 20.4231L47.0338 20.5709L47.2252 20.3916L47.2351 20.1472C47.2686 19.4417 47.32 18.3203 47.6042 17.3172C48.0799 15.6282 49.3609 14.0418 50.6419 13.2811L48.822 12.4908L49.6036 10.5771L48.747 10.7565C48.2279 10.8609 47.847 10.9575 47.391 10.9575Z" fill="#5A4B3B"/>
<path d="M50.0379 16.4737L49.5306 17.4453H54.9369L54.5342 16.4737H50.0379Z" fill="#5A4B3B"/>
<path d="M43.7849 7.51259C44.0711 7.34311 44.3119 7.10267 44.3119 6.84844L44.1441 6.50947C43.9428 6.32027 43.6684 6.22568 43.4355 6.22568C42.9065 6.22568 42.6302 6.72231 42.6302 7.17559C42.6302 7.52442 42.7999 7.72741 43.1276 7.72741C43.3289 7.72741 43.5638 7.64069 43.7849 7.51456" fill="#5A4B3B"/>
<path d="M75.2315 26.8991L75.7507 27.2578L75.9421 27.3406L76.1217 27.1514L76.0388 26.9917C74.4914 25.5866 72.8314 23.8759 71.276 22.2264C70.0602 20.9257 68.8127 19.556 67.7114 18.1705L67.4883 18.0326L67.2988 18.2119C67.2988 18.3597 67.4034 18.5391 67.6719 18.9825C68.4732 20.3443 69.47 21.7199 70.6957 23.0088C72.0182 24.412 73.5736 25.7226 75.2355 26.8971" fill="#5A4B3B"/>
<path d="M67.3185 61.6991H68.5758C68.9035 61.6991 69.1265 61.5828 69.2844 61.3916C69.4127 61.2339 69.4937 61.0329 69.4937 60.757V46.9281C69.4937 46.6542 69.4108 46.4531 69.2844 46.2955C69.1246 46.1043 68.9035 45.988 68.5758 45.988H67.3185C66.9909 45.988 66.7678 46.1043 66.6099 46.2955C66.4816 46.4531 66.3987 46.6542 66.3987 46.9281V60.757C66.3987 61.031 66.4816 61.232 66.6099 61.3916C66.7678 61.5828 66.9909 61.6991 67.3185 61.6991Z" fill="#5A4B3B"/>
<path d="M46.4831 12.9756C46.3035 12.8495 46.0824 12.7962 45.8811 12.7962C45.435 12.7962 45.2574 13.0603 45.1705 13.3343L45.1192 13.6929C45.1192 14.0733 45.287 14.3354 45.5633 14.3354C45.9443 14.3354 46.7061 13.8092 46.7061 13.354C46.7061 13.218 46.645 13.08 46.4851 12.9756" fill="#5A4B3B"/>
<path d="M32.0704 26.3296L32.1454 26.7828C32.175 26.974 32.25 27.1317 32.4079 27.2046C32.5993 27.3011 32.8737 27.311 33.3514 27.311C34.5573 27.311 35.4357 27.1632 35.943 27.0371C37.2437 28.9684 39.032 29.7075 40.7571 29.7075C42.2295 29.7075 43.7197 29.1694 45.1468 28.387L44.8803 27.4253C43.4868 28.2097 42.0361 28.726 40.7551 28.726C39.328 28.726 38.0569 28.1131 36.9989 26.5168C36.5568 25.8428 36.2074 24.9973 35.7811 24.2464C35.2758 23.3576 34.7231 22.8827 33.7639 22.8827C32.8836 22.8827 32.0269 23.2453 31.117 23.6355L31.1565 23.8365C31.2315 24.1637 31.3578 24.3962 31.6657 24.3962C31.8039 24.3962 31.9421 24.3332 32.0151 24.3135C32.5224 24.1558 32.8915 24.0178 33.4106 24.0178C34.204 24.0178 34.585 24.4829 35.1238 25.624L35.3252 26.0477C34.7745 26.2369 33.4836 26.3315 32.5224 26.3315H32.0664L32.0704 26.3296Z" fill="#5A4B3B"/>
<path d="M73.6545 54.6003C73.7926 53.3016 74.7874 52.33 76.2994 52.33C77.8113 52.33 78.8081 53.3016 78.9462 54.6003H73.6545ZM81.7392 56.6184C81.9208 56.4509 82.0056 56.2065 82.0056 55.7532C82.0056 54.3697 81.5734 52.9311 80.6635 51.8353C79.7298 50.7238 78.2929 49.9749 76.2915 49.9749C72.6202 49.9749 70.5556 52.8384 70.5556 55.8596C70.5556 59.0819 72.7682 61.9139 76.3112 61.9139C78.0797 61.9139 79.8127 61.2477 80.8095 60.0771C81.2438 59.5667 81.5931 58.8592 81.5931 58.4276C81.5931 58.2798 81.5596 58.1536 81.4747 58.059C81.3918 57.9526 81.2635 57.8876 81.0424 57.8876H79.341C79.0015 57.8876 78.7686 58.0137 78.5989 58.2699C78.1015 58.9991 77.383 59.3794 76.325 59.3794C74.7381 59.3794 73.7097 58.1753 73.6347 56.8529H81.0227C81.3484 56.8529 81.5832 56.78 81.7392 56.6223" fill="#5A4B3B"/>
<path d="M73.3466 1.26918C72.6814 2.55807 70.0562 6.68881 68.639 8.40141L69.4542 9.28038C70.2161 8.43492 71.051 6.99822 71.9629 5.58123H72.1307L72.1189 5.81379C72.1189 7.00808 72.7327 7.89492 74.2466 7.89492C75.1783 7.89492 76.6369 7.42982 78.0146 6.96472C79.1574 6.5745 80.2036 6.1705 80.7227 6.02269V4.75548C80.1286 4.93482 78.9245 5.39992 77.6771 5.83152C76.3645 6.28677 75.0736 6.69866 74.3236 6.69866C73.4985 6.69866 73.2637 6.24539 73.2637 5.59897C73.2637 4.2687 74.0986 2.35705 74.6295 1.26721H73.3485L73.3466 1.26918Z" fill="#5A4B3B"/>
<path d="M62.9999 5.55956C61.9321 4.53475 61.1169 3.372 60.5978 2.8123C59.4431 1.55297 57.9529 0 55.4975 0C53.0421 0 51.5617 1.54509 51.0544 2.87339C50.9044 3.25572 50.7899 3.71885 50.6834 3.88834C50.4504 4.2687 49.4024 6.05422 48.9701 6.76173H50.9261L49.9728 8.55908C51.084 8.3147 51.8775 8.13339 52.9355 8.13339C53.8789 8.13339 54.556 8.35806 54.852 8.94929C55.4027 10.049 55.4027 13.3737 56.3344 15.8785C57.2009 18.2356 59.3187 20.5394 61.6992 22.3033L61.8057 22.3348L61.9952 22.1673L61.9202 22.0076C59.9306 20.0211 58.3121 17.8257 57.4456 15.4154C56.589 13.0702 56.7252 9.77504 55.9751 8.30485C55.4797 7.33325 54.4217 7.07902 53.4467 7.07902C52.6651 7.07902 51.9328 7.23669 51.5933 7.31157L52.4519 5.86306H51.0031C51.309 5.32306 51.6288 4.8284 51.7847 4.53278C51.9209 4.27855 51.9762 3.96323 52.144 3.52966C52.6947 2.1442 53.9105 1.26721 55.4975 1.26721C57.4871 1.26721 58.6516 2.54624 59.8043 3.82527C60.3313 4.41651 61.2018 5.65218 62.2064 6.57253C62.8933 7.20712 64.2039 7.91266 66.2251 9.9938C67.3896 11.1979 68.7437 12.7627 70.1747 14.8557C75.2848 22.3249 78.6383 28.9073 80.5115 34.0392L80.4799 34.0589C75.1151 30.4248 70.4707 26.9917 66.7264 22.7565C64.0697 19.7452 61.7623 16.2609 59.751 11.8089C59.6148 11.5152 59.4964 11.2393 59.3701 10.9536L59.1806 10.8077L58.999 10.9871C58.999 11.1033 59.0523 11.3576 59.1668 11.8621C60.2366 16.4698 63.1992 20.6005 66.3613 24.0336C69.5154 27.447 73.0821 30.3815 76.0132 32.5158L78.2988 39.047C78.3541 39.2046 78.4133 39.3741 78.4133 39.5318L78.3107 39.8057C78.2456 39.8688 78.1607 39.9003 77.9712 39.9003H77.2823C76.9882 39.9003 76.8718 39.857 76.7652 39.7742C76.6586 39.6894 76.5836 39.5633 76.5343 39.4155C76.331 38.8026 75.125 35.3675 74.8921 34.6718L74.6907 34.5043L74.5111 34.6837C74.5111 34.7684 74.5427 34.865 74.596 35.1586C74.9039 36.7215 75.2631 38.4774 75.4092 39.1416C75.4743 39.451 75.5493 39.7348 75.5493 39.9456C75.5493 40.1348 75.5059 40.2393 75.348 40.3989L74.6355 41.1163C74.4697 41.2858 74.3749 41.3291 74.2368 41.3291C74.067 41.3291 73.9288 41.2148 73.8637 40.9192C73.0604 37.1668 71.8445 32.5178 71.5267 31.2309C71.4537 30.9451 71.3984 30.7855 71.2307 30.7855C71.0826 30.7855 71.0293 30.8919 71.0293 31.018L71.0609 31.3117C71.2504 32.6439 72.0221 37.494 72.859 41.9204C73.0071 42.683 73.2913 43.1048 73.9506 43.1048C74.2447 43.1048 74.5309 42.9885 74.7973 42.7323C75.2296 42.2987 75.3579 42.1844 75.875 41.676C76.2461 41.3193 76.4987 41.1695 77.1343 41.1695H78.7015C79.0706 41.1695 79.2719 41.0749 79.4515 40.9054C79.6213 40.7458 79.7279 40.525 79.7279 40.2078C79.7279 39.8905 79.645 39.6165 79.5266 39.2894C79.1239 38.2133 77.833 34.5674 77.4521 33.5446L77.4817 33.5229C78.8061 34.526 80.7325 35.805 81.5793 35.805C81.8398 35.805 82.0037 35.6907 82.0037 35.2769C82.0037 33.3317 78.7647 25.3363 71.3688 14.3275C67.4331 8.46448 63.971 6.48779 62.9979 5.55956" fill="#5A4B3B"/>
<path d="M77.1461 10.5338C78.4153 9.9938 80.691 9.08527 82.0036 8.61032V7.32143C79.3686 8.29499 74.744 10.2047 71.5898 11.9173L72.2886 12.8908C73.6209 12.341 74.817 11.9823 75.8967 11.9823C77.4106 11.9823 78.6482 11.9823 80.7207 11.4975V10.5239C79.5561 10.7348 78.3185 10.989 77.5152 10.989C77.0395 10.989 76.9013 10.926 76.9013 10.7683C76.9013 10.6737 76.9665 10.6087 77.1441 10.5358" fill="#5A4B3B"/>
<path d="M46.8206 4.89146C46.1041 4.89146 45.6265 4.88161 45.0008 4.59585C44.154 4.20563 43.7218 4.03615 42.9697 4.03615C42.0499 4.03615 41.2131 4.3633 40.5242 4.99592C39.7327 5.7251 39.4879 6.69867 39.2017 7.76485C38.9787 8.58864 38.7162 9.49717 38.124 10.3328C37.6267 11.0403 37.2674 11.3891 36.1345 12.7194C34.6442 14.4832 33.8587 15.9101 32.5579 19.081C32.7711 19.0574 33.077 19.0377 33.4146 19.0377C33.5843 19.0377 33.7225 19.0377 33.9435 19.0495L34.1014 18.7105C34.8317 17.1457 35.8147 15.0331 37.1924 13.4072L37.6681 12.8475C39.0873 11.1881 39.9636 10.2047 40.5143 7.94617C40.7058 7.14209 40.8637 6.42473 41.4045 5.90838C41.8901 5.44328 42.5059 5.24226 43.1276 5.24226C43.6566 5.24226 44.0494 5.37036 44.6198 5.6108C45.1389 5.83152 45.3284 5.87488 45.8791 5.87488C46.0686 5.87488 46.2048 5.86503 46.3331 5.8532L45.5929 6.84647L46.5976 7.55398C45.3383 7.92252 44.6712 9.13848 44.4481 9.69818L44.385 9.96227L44.5547 10.1298C44.6929 10.1298 44.7975 10.0253 44.9791 9.81249C45.5929 9.07345 46.0805 8.56696 48.3444 7.85748L46.7437 6.65334L47.9496 4.88949H46.8187L46.8206 4.89146Z" fill="#5A4B3B"/>
<path d="M26.972 8.76009C24.3804 8.76009 23.279 10.0056 23.279 10.8412C22.5073 11.1585 22.0079 12.0138 22.0079 12.8061C22.0079 14.3807 23.1606 15.5001 24.6844 15.5001C25.1916 15.5001 25.7108 15.2991 26.072 15.0252C26.3365 15.1198 26.674 15.171 27.0233 15.171C27.7556 15.171 28.5688 14.9188 29.1412 14.0851L29.384 14.095C30.3137 14.095 31.119 13.4821 31.5414 12.676C31.646 12.4789 31.6874 12.3193 31.6874 12.2011L31.5197 11.9902C31.3736 11.9902 31.3499 12.1281 31.0854 12.3686C30.4953 12.9086 29.5834 13.1096 28.6537 13.1096C28.1997 13.7737 27.6372 14.1245 26.9918 14.1245C26.5161 14.1245 26.145 13.9964 25.7641 13.7442C25.4561 14.0832 25.0752 14.2211 24.7061 14.2211C23.8692 14.2211 23.279 13.6378 23.279 12.7943C23.279 12.2011 23.658 11.6749 24.189 11.4719C24.2837 10.4274 25.4048 9.71986 26.8023 9.71986C26.9819 9.71986 27.1615 9.72774 27.353 9.75139C27.5642 9.41242 28.0734 9.05374 28.7938 8.95717C28.9419 8.93746 29.0564 8.92564 29.1432 8.88425L29.2676 8.66155L29.1531 8.45068C29.08 8.40732 28.9517 8.38762 28.8037 8.35608C28.1346 8.22798 27.3431 7.81806 26.9404 6.81297C25.3417 6.81297 24.1712 5.53393 24.1712 4.09921V4.00264C23.6402 3.7898 23.281 3.28331 23.281 2.68222C23.281 1.88997 23.9047 1.25735 24.6982 1.25735C25.1739 1.25735 25.5884 1.48793 25.8529 1.83676C26.0739 1.7737 26.3286 1.75202 26.5713 1.75202C27.7576 1.75202 29.0267 2.50288 29.2695 3.96126C30.7933 4.09921 31.1525 5.3881 31.2512 5.92612C31.3006 6.20006 31.346 6.43458 31.5256 6.43458C31.7151 6.43458 31.7585 6.22371 31.8217 5.93991C31.9361 5.39992 32.1375 4.96635 32.5421 4.62738C32.5421 3.24586 33.5783 2.05158 35.0488 2.05158C35.2719 1.56479 35.7574 1.22779 36.3397 1.22779C37.1351 1.22779 37.7687 1.83873 37.7687 2.65266C37.7687 3.12762 37.5477 3.54148 37.1983 3.79374C37.2733 4.06768 37.3226 4.31205 37.3226 4.54263C37.3226 5.43145 36.7956 6.05422 35.8206 6.3794C35.6923 6.92136 35.4614 7.40617 35.0804 7.76485C34.4448 8.37776 33.7994 8.37776 33.7994 8.63199C33.7994 8.76995 33.8942 8.85469 34.1586 8.85469C35.335 8.85469 36.4858 8.19842 36.6239 7.11055C37.745 6.73019 38.4221 5.59897 38.4221 4.7003C38.4221 4.46972 38.4023 4.26673 38.3056 4.07753C38.6135 3.78389 38.9727 3.2774 38.9727 2.52456C38.9727 1.87223 38.6865 1.20414 38.1813 0.717361C37.7352 0.28379 37.1115 -0.0019722 36.3811 -0.0019722C35.3232 -0.0019722 34.6363 0.567582 34.2435 1.13122C33.0908 1.13122 31.6006 2.40829 31.6006 4.23716H31.4407C31.3341 3.60455 30.6788 3.18083 30.1301 3.14733C29.684 1.81705 28.6794 0.675974 27.0273 0.675974C26.8378 0.675974 26.6069 0.687799 26.4055 0.717361C25.918 0.273936 25.3792 -0.0019722 24.6271 -0.0019722C23.1882 -0.0019722 22.0138 1.15093 22.0138 2.60733C22.0138 3.51586 22.4263 4.13863 23.2099 4.69044L23.2001 4.85993C23.2001 6.02072 24.4712 7.83777 26.3522 7.83777C26.3522 8.13142 26.7213 8.53542 27.1358 8.60834V8.75615H26.9779L26.972 8.76009Z" fill="#5A4B3B"/>
<path d="M53.423 59.4898C52.9276 59.4898 52.4085 59.3952 51.9861 59.1843C51.69 59.0365 51.4354 58.8257 51.2538 58.5399C51.0959 58.2955 51.0446 58.1182 50.7998 57.9802C50.6518 57.8935 50.4722 57.8836 50.2294 57.8836H48.9148C48.6306 57.8836 48.4944 57.9684 48.3977 58.0847C48.301 58.2009 48.2714 58.3704 48.2714 58.5399C48.2714 58.9636 48.4174 59.4898 48.7668 59.9648C49.5701 61.0408 51.2518 61.908 53.4013 61.908C55.5507 61.908 58.4503 61.031 58.4503 58.199C58.4503 57.4698 58.2371 56.845 57.8463 56.3385C57.3469 55.6941 56.6403 55.2526 55.4343 54.9452L53.0322 54.3323C52.0374 54.08 51.5716 53.8987 51.5716 53.2878C51.5716 52.6768 52.1025 52.2196 53.3282 52.2196C54.0487 52.2196 54.704 52.3773 55.1284 52.8227C55.4777 53.1912 55.4126 53.3824 55.6889 53.5302C55.8587 53.6149 56.0481 53.6149 56.3442 53.6149H57.5403C57.7318 53.6149 57.868 53.5854 57.9726 53.4671C58.0595 53.3725 58.1108 53.2247 58.1108 52.9823C58.1108 52.4325 57.7515 51.725 57.116 51.185C56.2692 50.4578 54.9349 49.971 53.3282 49.971C50.4307 49.971 48.526 51.3446 48.526 53.542C48.526 54.3224 48.8102 54.957 49.276 55.4517C49.8149 56.035 50.5886 56.4351 51.7097 56.7209L54.1316 57.3318C54.7968 57.5033 55.3929 57.7043 55.3929 58.2837C55.3929 59.1824 54.4395 59.4878 53.421 59.4878" fill="#5A4B3B"/>
<path d="M31.269 8.9079C31.8296 9.72183 32.7711 11.2965 33.6593 13.3894C33.8172 13.1254 34.2948 12.4809 34.4843 12.2799C33.6691 10.6304 32.3349 9.05768 31.7526 8.43492L31.267 8.90987L31.269 8.9079Z" fill="#5A4B3B"/>
<path d="M46.3686 23.2216C47.2785 22.7881 48.747 22.5772 49.4773 22.5772C50.1465 22.5772 50.8314 22.6501 51.4669 22.7349C52.1874 22.8314 53.0243 22.9339 53.8987 22.9339C55.8902 22.9339 57.8384 21.8776 58.1443 21.6884C57.8996 21.4755 57.5936 21.1799 57.412 20.9592C56.7765 21.2331 55.3198 21.7593 53.8691 21.7593C53.1486 21.7593 52.5466 21.6982 51.8795 21.6115C51.0564 21.5071 50.2708 21.4105 49.6056 21.4105C48.4944 21.4105 47.1187 21.5189 45.7844 22.457L46.3686 23.2177V23.2216Z" fill="#5A4B3B"/>
<path d="M44.5053 22.4097L43.8915 21.6155C41.521 22.524 38.8859 23.9922 38.8859 25.4939C38.8859 26.3493 39.5215 27.0272 40.9486 27.0272C43.0428 27.0272 45.2771 25.9709 47.0654 24.9875L46.8108 24.6386C46.6627 24.4258 46.5364 24.3647 46.3351 24.3647L45.9561 24.4691C44.4205 25.218 42.7585 25.9709 41.213 25.9709C40.3248 25.9709 40.1018 25.6969 40.1018 25.3146C40.1018 24.2386 43.0428 22.9911 44.5034 22.4097" fill="#5A4B3B"/>
<path d="M64.873 52.5409C65.0941 52.5409 65.2658 52.4778 65.3921 52.3714C65.5303 52.2452 65.5934 52.0758 65.5934 51.8215V51.0923C65.5934 50.8381 65.5303 50.6706 65.3921 50.5425C65.2678 50.438 65.0941 50.375 64.873 50.375H62.9604V46.9301C62.9604 46.6561 62.8735 46.4531 62.7472 46.2935C62.5893 46.1043 62.3663 45.988 62.0386 45.988H60.8445C60.5168 45.988 60.2938 46.1043 60.1359 46.2935C60.0115 46.4531 59.9247 46.6542 59.9247 46.9301V50.375H59.3325C59.1095 50.375 58.9398 50.438 58.8134 50.5425C58.6753 50.6706 58.6141 50.8361 58.6141 51.0923V51.8215C58.6141 52.0758 58.6753 52.2452 58.8134 52.3714C58.9398 52.4778 59.1095 52.5409 59.3325 52.5409H59.9247V57.8127C59.9247 59.1646 60.2958 60.0101 60.9826 60.6861C61.6162 61.3088 62.4433 61.701 63.8802 61.701H64.7802C65.0033 61.701 65.1711 61.638 65.2974 61.5296C65.4355 61.4054 65.5204 61.2359 65.5204 60.9817V60.0633C65.5204 59.811 65.4355 59.6396 65.2974 59.5154C65.1691 59.409 65.0033 59.344 64.7802 59.344H64.6539C64.0815 59.344 63.6887 59.1981 63.4242 58.9439C63.1084 58.6483 62.9486 58.195 62.9486 57.6038V52.5428H64.875L64.873 52.5409Z" fill="#5A4B3B"/>
<path d="M80.9575 48.3569C81.1786 48.3569 81.3484 48.2938 81.4747 48.1874C81.6128 48.0633 81.676 47.8918 81.676 47.6415V46.6581C81.676 46.2758 81.603 46.0866 81.4747 45.9486C81.3602 45.8245 81.1687 45.7496 80.9575 45.7496C80.7858 45.7496 80.618 45.7693 80.3318 45.7988L71.8879 46.6325C71.6451 46.6561 71.5287 46.729 71.4438 46.8236C71.3471 46.9301 71.3076 47.066 71.3076 47.2552V47.8051C71.3076 48.016 71.3471 48.1106 71.4241 48.1953C71.5188 48.3017 71.657 48.353 71.8484 48.353H80.9595L80.9575 48.3569Z" fill="#5A4B3B"/>
<path d="M65.4336 26.233C63.8467 29.5715 61.4327 32.0034 58.9575 33.4086C57.7812 34.0747 56.7252 34.5083 54.4395 34.5083H49.4991C47.7325 34.5083 46.6213 34.7408 45.7548 34.9615C44.8231 35.204 44.229 35.4464 43.2895 35.4464C41.892 35.4464 40.5992 34.7586 39.9755 34.1043L41.14 33.1859L40.5597 32.4153C40.2202 32.6577 36.0831 35.7124 35.2127 36.3982L35.1633 36.3667C35.1831 36.1539 35.1831 35.9647 35.1831 35.7774C35.1831 33.4519 34.1034 32.8922 32.4651 32.236L31.3539 32.8922C33.608 33.6411 34.1666 34.2442 34.1666 35.9233C34.1666 37.2536 33.6909 37.7837 33.004 38.1818C32.2954 38.5957 31.4171 38.7868 30.6433 38.7868C30.3157 38.7868 30.1676 38.8499 30.0532 38.9662C29.9268 39.0923 29.8617 39.2815 29.8617 39.5456V39.9141H30.1282C31.5454 39.9141 32.856 39.6934 34.2968 38.5622L38.9826 34.9064C39.6518 35.6671 41.3334 36.7234 43.3211 36.7234C44.4442 36.7234 45.1606 36.4515 46.1989 36.1874C47.0042 35.9863 47.7878 35.805 49.501 35.805H54.4652C57.0054 35.805 58.2312 35.2769 59.5852 34.5162C62.5282 32.8666 65.0349 30.078 66.454 26.8774C66.081 26.6429 65.7336 26.432 65.4375 26.231" fill="#5A4B3B"/>
<path d="M22.0513 36.5658H22.4323C23.2277 36.5658 23.3205 36.0888 23.3205 35.6356C23.3205 35.3301 23.3106 34.9813 23.3106 34.6009C23.3205 33.7239 23.354 32.9415 24.7693 32.3069C25.3397 32.0547 28.1445 30.9116 30.2308 30.0248C30.8446 29.7607 31.4151 29.5399 32.0506 29.5399C32.7592 29.5399 33.5744 29.8454 34.5889 30.4485C35.4475 30.9569 36.3476 31.6428 37.0542 32.433L37.9523 31.7472C37.1786 30.8387 36.1127 30.0248 35.0429 29.3902C33.9751 28.7575 33.0217 28.387 32.2184 28.387C31.869 28.387 31.5809 28.4501 31.3381 28.5132C31.0519 28.5881 30.7874 28.6708 30.4499 28.6708C30.0591 28.6708 29.7294 28.5782 29.2537 28.0284C29.0741 27.8273 27.9293 26.5286 27.6885 26.1482C27.5721 25.9689 27.3589 25.6082 27.3589 25.1865C27.3589 25.0072 27.3905 24.7963 27.4971 24.6071C28.482 25.3678 29.6978 25.8329 31.1802 26.0123L30.9788 25.0072C28.8531 24.4475 26.5871 22.5792 26.5871 21.3731C26.5871 21.1188 26.6503 20.9395 26.745 20.7168C27.5701 21.4795 29.5084 22.2737 30.5545 22.2737C31.1249 22.2737 31.5907 22.0825 32.0348 21.9012C32.4592 21.7337 32.8816 21.5662 33.452 21.5662C34.808 21.5662 36.4779 22.2205 37.9483 22.8433L38.2227 22.8984C38.4576 22.8984 38.6372 22.792 38.7537 22.5713L38.9451 22.2225C37.3266 21.2824 34.7429 20.2773 33.3987 20.2773C32.7849 20.2773 32.3388 20.435 31.9164 20.6064C31.4387 20.7956 31.0282 20.9947 30.594 20.9947C29.5261 20.9947 26.7845 19.9383 26.7845 18.9155C26.7845 17.7094 31.1427 17.2463 31.6203 17.2463L32.0546 16.2648C28.8925 16.2648 25.1245 17.3724 25.1245 18.8406C25.1245 19.2643 25.3693 19.4752 25.3693 19.8654C25.3693 20.3936 25.1245 20.7542 25.1245 21.3455C25.1245 21.7357 25.3594 22.2343 25.6338 22.6659C25.9299 23.1231 26.2812 23.4167 26.2812 23.7991C26.2812 24.0848 26.0897 24.4199 26.0897 25.088C26.0897 26.5128 26.9049 27.38 28.4919 29.0808L28.8096 29.4197C27.4971 29.9262 25.0515 30.9826 24.4811 31.2269C22.5053 32.0487 22.0079 33.0538 22.0079 34.6403C22.0079 35.2513 22.0079 35.9489 22.0494 36.5736" fill="#5A4B3B"/>
<path d="M35.7634 3.65579L35.5838 3.48827L35.341 3.62623C34.9383 3.97505 34.5771 4.32191 34.1981 4.75548C33.6593 5.35854 33.2053 6.15867 32.8323 7.03764L33.4047 7.38647C33.7955 6.80509 35.0548 4.81855 35.7002 3.81542L35.7634 3.65579Z" fill="#5A4B3B"/>
<path d="M22.0099 60.621C22.0099 60.9699 22.0948 61.1709 22.2428 61.3502C22.4224 61.5631 22.675 61.6991 23.0777 61.6991H24.0607C24.4633 61.6991 24.716 61.5631 24.8956 61.3502C25.0436 61.1709 25.1265 60.9699 25.1265 60.621V50.7967H25.1798C25.1798 50.7967 30.6393 60.4515 30.8624 60.8102C31.1703 61.3187 31.6855 61.6991 32.4276 61.6991H34.1132C34.5139 61.6991 34.7685 61.5631 34.9482 61.3502C35.0982 61.1709 35.1811 60.9699 35.1811 60.621V48.3549H57.2857C57.5087 48.3549 57.6765 48.2919 57.8028 48.1874C57.941 48.0633 58.0042 47.8898 58.0042 47.6395V46.7074C58.0042 46.4571 57.941 46.2856 57.8028 46.1615C57.6765 46.055 57.5087 45.992 57.2857 45.992H33.1599C32.7592 45.992 32.5046 46.128 32.325 46.3408C32.1769 46.5221 32.094 46.7212 32.094 47.07V56.6637H32.0388C32.0388 56.6637 26.7806 47.3025 26.5259 46.8709C26.3463 46.5635 26.147 46.3526 25.8805 46.193C25.616 46.0472 25.3397 45.9506 24.8107 45.9506H23.0757C22.6731 45.9506 22.4204 46.0885 22.2408 46.2994C22.0928 46.4788 22.0079 46.6798 22.0079 47.0286V60.625L22.0099 60.621Z" fill="#5A4B3B"/>
<path d="M39.3399 54.6003C39.478 53.3016 40.4709 52.33 41.9868 52.33C43.5026 52.33 44.4955 53.3016 44.6316 54.6003H39.3399ZM47.4029 56.6184C47.5845 56.4509 47.6693 56.2065 47.6693 55.7532C47.6693 54.3697 47.2351 52.9311 46.3271 51.8353C45.3955 50.7238 43.9763 49.9749 41.9789 49.9749C38.3056 49.9749 36.243 52.8384 36.243 55.8596C36.243 59.0819 38.4556 61.9139 41.9986 61.9139C43.7671 61.9139 45.5021 61.2477 46.4949 60.0771C46.9292 59.5667 47.2785 58.8592 47.2785 58.4276C47.2785 58.2798 47.2469 58.1536 47.1621 58.059C47.0772 57.9526 46.9489 57.8876 46.7278 57.8876H45.0225C44.6869 57.8876 44.452 58.0137 44.2843 58.2699C43.7869 58.9991 43.0664 59.3794 42.0085 59.3794C40.4235 59.3794 39.3951 58.1753 39.3221 56.8529H46.6864C47.014 56.8529 47.2469 56.78 47.4029 56.6223" fill="#5A4B3B"/>
<path d="M25.7877 12.203L25.9555 12.3706C26.0305 12.3706 26.0937 12.341 26.2318 12.2878L30.1025 10.9772L29.913 10.3426C28.3359 10.6067 27.195 11.0088 25.8923 12.0217L25.7877 12.203Z" fill="#5A4B3B"/>
<path d="M28.1346 4.66088C27.5444 4.20564 26.8753 3.8371 26.0937 3.51784L25.9555 3.48827L25.7877 3.64594L25.9042 3.84695C26.824 4.62738 28.6024 6.11926 29.1531 6.57451L29.5972 6.06605C29.1215 5.50635 28.632 5.04124 28.1365 4.66088" fill="#5A4B3B"/>
<path d="M86.5276 61.6991C85.4756 61.6991 84.615 60.8418 84.615 59.7933C84.615 58.7449 85.4756 57.8836 86.5276 57.8836C87.5796 57.8836 88.4264 58.7429 88.4264 59.7933C88.4264 60.8437 87.5777 61.6991 86.5276 61.6991ZM86.5276 58.2463C85.6769 58.2463 84.9782 58.9439 84.9782 59.7933C84.9782 60.6427 85.6769 61.3483 86.5276 61.3483C87.3783 61.3483 88.0751 60.6407 88.0751 59.7933C88.0751 58.9459 87.3783 58.2463 86.5276 58.2463ZM86.8928 60.8122C86.7901 60.5186 86.9322 59.9648 86.5177 59.9648H86.1921V60.8122H85.7262V58.7547H86.648C87.0211 58.7547 87.3467 58.8257 87.3467 59.2789C87.3467 59.5805 87.1632 59.7243 86.8809 59.7716C87.4356 59.8544 87.2323 60.4082 87.3941 60.8122H86.8908H86.8928ZM86.4664 59.074H86.1921V59.6494H86.4862C86.6974 59.6494 86.871 59.6199 86.871 59.3578C86.871 59.0957 86.6776 59.074 86.4664 59.074Z" fill="#5A4B3B"/>
</g>
<defs>
<clipPath id="clip0_3_163">
<rect width="104.434" height="82" fill="white"/>
</clipPath>
</defs>
</svg>
